<?xml version="1.0" encoding="utf-8" standalone="no"?>
<!DOCTYPE svg PUBLIC "-//W3C//DTD SVG 1.1//EN"
  "http://www.w3.org/Graphics/SVG/1.1/DTD/svg11.dtd">
<svg xmlns:xlink="http://www.w3.org/1999/xlink" width="2661.12pt" height="1411.2pt" viewBox="0 0 2661.12 1411.2" xmlns="http://www.w3.org/2000/svg" version="1.1">
 <metadata>
  <rdf:RDF xmlns:dc="http://purl.org/dc/elements/1.1/" xmlns:cc="http://creativecommons.org/ns#" xmlns:rdf="http://www.w3.org/1999/02/22-rdf-syntax-ns#">
   <cc:Work>
    <dc:type rdf:resource="http://purl.org/dc/dcmitype/StillImage"/>
    <dc:date>2024-07-10T21:00:24.738734</dc:date>
    <dc:format>image/svg+xml</dc:format>
    <dc:creator>
     <cc:Agent>
      <dc:title>Matplotlib v3.7.5, https://matplotlib.org/</dc:title>
     </cc:Agent>
    </dc:creator>
   </cc:Work>
  </rdf:RDF>
 </metadata>
 <defs>
  <style type="text/css">*{stroke-linejoin: round; stroke-linecap: butt}</style>
 </defs>
 <g id="figure_1">
  <g id="patch_1">
   <path d="M 0 1411.2 
L 2661.12 1411.2 
L 2661.12 0 
L 0 0 
z
" style="fill: #ffffff"/>
  </g>
  <g id="axes_1">
   <g id="patch_2">
    <path d="M 172.0488 489.069121 
L 1312.344905 489.069121 
L 1312.344905 166.041279 
L 172.0488 166.041279 
z
" style="fill: #ffffff"/>
   </g>
   <g id="patch_3">
    <path d="M 483.036372 228.187903 
C 486.47282 228.187903 489.768982 226.822588 492.198918 224.392652 
C 494.628853 221.962717 495.994169 218.666554 495.994169 215.230106 
C 495.994169 211.793659 494.628853 208.497496 492.198918 206.067561 
C 489.768982 203.637625 486.47282 202.27231 483.036372 202.27231 
C 479.599924 202.27231 476.303762 203.637625 473.873826 206.067561 
C 471.443891 208.497496 470.078575 211.793659 470.078575 215.230106 
C 470.078575 218.666554 471.443891 221.962717 473.873826 224.392652 
C 476.303762 226.822588 479.599924 228.187903 483.036372 228.187903 
z
" clip-path="url(#p794ec2d349)" style="fill: #bfbf00; stroke: #bfbf00; stroke-width: 2; stroke-linejoin: miter"/>
   </g>
   <g id="PathCollection_1">
    <defs>
     <path id="mc09395347a" d="M 0 3 
C 0.795609 3 1.55874 2.683901 2.12132 2.12132 
C 2.683901 1.55874 3 0.795609 3 0 
C 3 -0.795609 2.683901 -1.55874 2.12132 -2.12132 
C 1.55874 -2.683901 0.795609 -3 0 -3 
C -0.795609 -3 -1.55874 -2.683901 -2.12132 -2.12132 
C -2.683901 -1.55874 -3 -0.795609 -3 0 
C -3 0.795609 -2.683901 1.55874 -2.12132 2.12132 
C -1.55874 2.683901 -0.795609 3 0 3 
z
" style="stroke: #ff3b30"/>
    </defs>
    <g clip-path="url(#p794ec2d349)">
     <use xlink:href="#mc09395347a" x="1260.504165" y="215.230106" style="fill: #ff3b30; stroke: #ff3b30"/>
     <use xlink:href="#mc09395347a" x="1231.709061" y="200.691485" style="fill: #ff3b30; stroke: #ff3b30"/>
     <use xlink:href="#mc09395347a" x="1202.913958" y="189.245734" style="fill: #ff3b30; stroke: #ff3b30"/>
     <use xlink:href="#mc09395347a" x="1174.118854" y="183.32776" style="fill: #ff3b30; stroke: #ff3b30"/>
     <use xlink:href="#mc09395347a" x="1145.323751" y="184.196523" style="fill: #ff3b30; stroke: #ff3b30"/>
     <use xlink:href="#mc09395347a" x="1116.528647" y="191.667207" style="fill: #ff3b30; stroke: #ff3b30"/>
     <use xlink:href="#mc09395347a" x="1087.733544" y="204.150538" style="fill: #ff3b30; stroke: #ff3b30"/>
     <use xlink:href="#mc09395347a" x="1058.938441" y="218.990877" style="fill: #ff3b30; stroke: #ff3b30"/>
     <use xlink:href="#mc09395347a" x="1030.143337" y="233.03117" style="fill: #ff3b30; stroke: #ff3b30"/>
     <use xlink:href="#mc09395347a" x="1001.348234" y="243.284559" style="fill: #ff3b30; stroke: #ff3b30"/>
     <use xlink:href="#mc09395347a" x="972.55313" y="247.569791" style="fill: #ff3b30; stroke: #ff3b30"/>
     <use xlink:href="#mc09395347a" x="943.758027" y="244.97525" style="fill: #ff3b30; stroke: #ff3b30"/>
     <use xlink:href="#mc09395347a" x="914.962923" y="236.052884" style="fill: #ff3b30; stroke: #ff3b30"/>
     <use xlink:href="#mc09395347a" x="886.16782" y="222.70079" style="fill: #ff3b30; stroke: #ff3b30"/>
     <use xlink:href="#mc09395347a" x="857.372717" y="207.759423" style="fill: #ff3b30; stroke: #ff3b30"/>
     <use xlink:href="#mc09395347a" x="828.577613" y="194.407329" style="fill: #ff3b30; stroke: #ff3b30"/>
     <use xlink:href="#mc09395347a" x="799.78251" y="185.484963" style="fill: #ff3b30; stroke: #ff3b30"/>
     <use xlink:href="#mc09395347a" x="770.987406" y="182.890421" style="fill: #ff3b30; stroke: #ff3b30"/>
     <use xlink:href="#mc09395347a" x="742.192303" y="187.175654" style="fill: #ff3b30; stroke: #ff3b30"/>
     <use xlink:href="#mc09395347a" x="713.397199" y="197.429043" style="fill: #ff3b30; stroke: #ff3b30"/>
     <use xlink:href="#mc09395347a" x="684.602096" y="211.469336" style="fill: #ff3b30; stroke: #ff3b30"/>
     <use xlink:href="#mc09395347a" x="655.806993" y="226.309675" style="fill: #ff3b30; stroke: #ff3b30"/>
     <use xlink:href="#mc09395347a" x="627.011889" y="238.793006" style="fill: #ff3b30; stroke: #ff3b30"/>
     <use xlink:href="#mc09395347a" x="598.216786" y="246.263689" style="fill: #ff3b30; stroke: #ff3b30"/>
     <use xlink:href="#mc09395347a" x="569.421682" y="247.132453" style="fill: #ff3b30; stroke: #ff3b30"/>
     <use xlink:href="#mc09395347a" x="540.626579" y="241.214479" style="fill: #ff3b30; stroke: #ff3b30"/>
     <use xlink:href="#mc09395347a" x="511.831475" y="229.768728" style="fill: #ff3b30; stroke: #ff3b30"/>
     <use xlink:href="#mc09395347a" x="483.036372" y="215.230106" style="fill: #ff3b30; stroke: #ff3b30"/>
    </g>
   </g>
   <g id="PathCollection_2">
    <defs>
     <path id="m4d9bafa02e" d="M 9.521278 3.396044 
L 4.022537 0.466827 
L 3.522184 1.406092 
L 1.829614 0.504448 
L 3.926892 -3.432597 
L 0.159287 -5.439639 
L 0.943098 -6.911013 
L 3.23156 -5.69192 
L 4.723329 -8.492275 
L -0.775416 -11.421508 
L -2.26719 -8.621142 
L 0.021267 -7.402065 
L -0.762543 -5.930692 
L -4.530153 -7.937724 
L -9.216071 0.858703 
L -5.448466 2.865745 
L -6.228056 4.329195 
L -8.516514 3.110118 
L -10.008566 5.911005 
L -4.509825 8.840222 
L -3.017763 6.039341 
L -5.306231 4.820258 
L -4.526635 3.356797 
L -0.759025 5.363829 
L 1.338263 1.426789 
L 3.030854 2.328444 
L 2.530491 3.267704 
L 8.029241 6.196926 
L 9.521278 3.396044 
z
" style="stroke: #0000ff"/>
    </defs>
    <g clip-path="url(#p794ec2d349)">
     <use xlink:href="#m4d9bafa02e" x="489.98652" y="222.392383" style="fill: #0000ff; stroke: #0000ff"/>
    </g>
   </g>
   <g id="matplotlib.axis_1">
    <g id="xtick_1">
     <g id="line2d_1">
      <defs>
       <path id="m5e6487b7b3" d="M 0 0 
L 0 3.5 
" style="stroke: #000000; stroke-width: 0.8"/>
      </defs>
      <g>
       <use xlink:href="#m5e6487b7b3" x="223.880441" y="489.069121" style="stroke: #000000; stroke-width: 0.8"/>
      </g>
     </g>
     <g id="text_1">
      <!-- −4 -->
      <g transform="translate(216.509347 503.667559) scale(0.1 -0.1)">
       <defs>
        <path id="DejaVuSans-2212" d="M 678 2272 
L 4684 2272 
L 4684 1741 
L 678 1741 
L 678 2272 
z
" transform="scale(0.015625)"/>
        <path id="DejaVuSans-34" d="M 2419 4116 
L 825 1625 
L 2419 1625 
L 2419 4116 
z
M 2253 4666 
L 3047 4666 
L 3047 1625 
L 3713 1625 
L 3713 1100 
L 3047 1100 
L 3047 0 
L 2419 0 
L 2419 1100 
L 313 1100 
L 313 1709 
L 2253 4666 
z
" transform="scale(0.015625)"/>
       </defs>
       <use xlink:href="#DejaVuSans-2212"/>
       <use xlink:href="#DejaVuSans-34" x="83.789062"/>
      </g>
     </g>
    </g>
    <g id="xtick_2">
     <g id="line2d_2">
      <g>
       <use xlink:href="#m5e6487b7b3" x="353.458407" y="489.069121" style="stroke: #000000; stroke-width: 0.8"/>
      </g>
     </g>
     <g id="text_2">
      <!-- −2 -->
      <g transform="translate(346.087313 503.667559) scale(0.1 -0.1)">
       <defs>
        <path id="DejaVuSans-32" d="M 1228 531 
L 3431 531 
L 3431 0 
L 469 0 
L 469 531 
Q 828 903 1448 1529 
Q 2069 2156 2228 2338 
Q 2531 2678 2651 2914 
Q 2772 3150 2772 3378 
Q 2772 3750 2511 3984 
Q 2250 4219 1831 4219 
Q 1534 4219 1204 4116 
Q 875 4013 500 3803 
L 500 4441 
Q 881 4594 1212 4672 
Q 1544 4750 1819 4750 
Q 2544 4750 2975 4387 
Q 3406 4025 3406 3419 
Q 3406 3131 3298 2873 
Q 3191 2616 2906 2266 
Q 2828 2175 2409 1742 
Q 1991 1309 1228 531 
z
" transform="scale(0.015625)"/>
       </defs>
       <use xlink:href="#DejaVuSans-2212"/>
       <use xlink:href="#DejaVuSans-32" x="83.789062"/>
      </g>
     </g>
    </g>
    <g id="xtick_3">
     <g id="line2d_3">
      <g>
       <use xlink:href="#m5e6487b7b3" x="483.036372" y="489.069121" style="stroke: #000000; stroke-width: 0.8"/>
      </g>
     </g>
     <g id="text_3">
      <!-- 0 -->
      <g transform="translate(479.855122 503.667559) scale(0.1 -0.1)">
       <defs>
        <path id="DejaVuSans-30" d="M 2034 4250 
Q 1547 4250 1301 3770 
Q 1056 3291 1056 2328 
Q 1056 1369 1301 889 
Q 1547 409 2034 409 
Q 2525 409 2770 889 
Q 3016 1369 3016 2328 
Q 3016 3291 2770 3770 
Q 2525 4250 2034 4250 
z
M 2034 4750 
Q 2819 4750 3233 4129 
Q 3647 3509 3647 2328 
Q 3647 1150 3233 529 
Q 2819 -91 2034 -91 
Q 1250 -91 836 529 
Q 422 1150 422 2328 
Q 422 3509 836 4129 
Q 1250 4750 2034 4750 
z
" transform="scale(0.015625)"/>
       </defs>
       <use xlink:href="#DejaVuSans-30"/>
      </g>
     </g>
    </g>
    <g id="xtick_4">
     <g id="line2d_4">
      <g>
       <use xlink:href="#m5e6487b7b3" x="612.614337" y="489.069121" style="stroke: #000000; stroke-width: 0.8"/>
      </g>
     </g>
     <g id="text_4">
      <!-- 2 -->
      <g transform="translate(609.433087 503.667559) scale(0.1 -0.1)">
       <use xlink:href="#DejaVuSans-32"/>
      </g>
     </g>
    </g>
    <g id="xtick_5">
     <g id="line2d_5">
      <g>
       <use xlink:href="#m5e6487b7b3" x="742.192303" y="489.069121" style="stroke: #000000; stroke-width: 0.8"/>
      </g>
     </g>
     <g id="text_5">
      <!-- 4 -->
      <g transform="translate(739.011053 503.667559) scale(0.1 -0.1)">
       <use xlink:href="#DejaVuSans-34"/>
      </g>
     </g>
    </g>
    <g id="xtick_6">
     <g id="line2d_6">
      <g>
       <use xlink:href="#m5e6487b7b3" x="871.770268" y="489.069121" style="stroke: #000000; stroke-width: 0.8"/>
      </g>
     </g>
     <g id="text_6">
      <!-- 6 -->
      <g transform="translate(868.589018 503.667559) scale(0.1 -0.1)">
       <defs>
        <path id="DejaVuSans-36" d="M 2113 2584 
Q 1688 2584 1439 2293 
Q 1191 2003 1191 1497 
Q 1191 994 1439 701 
Q 1688 409 2113 409 
Q 2538 409 2786 701 
Q 3034 994 3034 1497 
Q 3034 2003 2786 2293 
Q 2538 2584 2113 2584 
z
M 3366 4563 
L 3366 3988 
Q 3128 4100 2886 4159 
Q 2644 4219 2406 4219 
Q 1781 4219 1451 3797 
Q 1122 3375 1075 2522 
Q 1259 2794 1537 2939 
Q 1816 3084 2150 3084 
Q 2853 3084 3261 2657 
Q 3669 2231 3669 1497 
Q 3669 778 3244 343 
Q 2819 -91 2113 -91 
Q 1303 -91 875 529 
Q 447 1150 447 2328 
Q 447 3434 972 4092 
Q 1497 4750 2381 4750 
Q 2619 4750 2861 4703 
Q 3103 4656 3366 4563 
z
" transform="scale(0.015625)"/>
       </defs>
       <use xlink:href="#DejaVuSans-36"/>
      </g>
     </g>
    </g>
    <g id="xtick_7">
     <g id="line2d_7">
      <g>
       <use xlink:href="#m5e6487b7b3" x="1001.348234" y="489.069121" style="stroke: #000000; stroke-width: 0.8"/>
      </g>
     </g>
     <g id="text_7">
      <!-- 8 -->
      <g transform="translate(998.166984 503.667559) scale(0.1 -0.1)">
       <defs>
        <path id="DejaVuSans-38" d="M 2034 2216 
Q 1584 2216 1326 1975 
Q 1069 1734 1069 1313 
Q 1069 891 1326 650 
Q 1584 409 2034 409 
Q 2484 409 2743 651 
Q 3003 894 3003 1313 
Q 3003 1734 2745 1975 
Q 2488 2216 2034 2216 
z
M 1403 2484 
Q 997 2584 770 2862 
Q 544 3141 544 3541 
Q 544 4100 942 4425 
Q 1341 4750 2034 4750 
Q 2731 4750 3128 4425 
Q 3525 4100 3525 3541 
Q 3525 3141 3298 2862 
Q 3072 2584 2669 2484 
Q 3125 2378 3379 2068 
Q 3634 1759 3634 1313 
Q 3634 634 3220 271 
Q 2806 -91 2034 -91 
Q 1263 -91 848 271 
Q 434 634 434 1313 
Q 434 1759 690 2068 
Q 947 2378 1403 2484 
z
M 1172 3481 
Q 1172 3119 1398 2916 
Q 1625 2713 2034 2713 
Q 2441 2713 2670 2916 
Q 2900 3119 2900 3481 
Q 2900 3844 2670 4047 
Q 2441 4250 2034 4250 
Q 1625 4250 1398 4047 
Q 1172 3844 1172 3481 
z
" transform="scale(0.015625)"/>
       </defs>
       <use xlink:href="#DejaVuSans-38"/>
      </g>
     </g>
    </g>
    <g id="xtick_8">
     <g id="line2d_8">
      <g>
       <use xlink:href="#m5e6487b7b3" x="1130.926199" y="489.069121" style="stroke: #000000; stroke-width: 0.8"/>
      </g>
     </g>
     <g id="text_8">
      <!-- 10 -->
      <g transform="translate(1124.563699 503.667559) scale(0.1 -0.1)">
       <defs>
        <path id="DejaVuSans-31" d="M 794 531 
L 1825 531 
L 1825 4091 
L 703 3866 
L 703 4441 
L 1819 4666 
L 2450 4666 
L 2450 531 
L 3481 531 
L 3481 0 
L 794 0 
L 794 531 
z
" transform="scale(0.015625)"/>
       </defs>
       <use xlink:href="#DejaVuSans-31"/>
       <use xlink:href="#DejaVuSans-30" x="63.623047"/>
      </g>
     </g>
    </g>
    <g id="xtick_9">
     <g id="line2d_9">
      <g>
       <use xlink:href="#m5e6487b7b3" x="1260.504165" y="489.069121" style="stroke: #000000; stroke-width: 0.8"/>
      </g>
     </g>
     <g id="text_9">
      <!-- 12 -->
      <g transform="translate(1254.141665 503.667559) scale(0.1 -0.1)">
       <use xlink:href="#DejaVuSans-31"/>
       <use xlink:href="#DejaVuSans-32" x="63.623047"/>
      </g>
     </g>
    </g>
    <g id="text_10">
     <!-- x [m] -->
     <g transform="translate(728.87654 517.345684) scale(0.1 -0.1)">
      <defs>
       <path id="DejaVuSans-78" d="M 3513 3500 
L 2247 1797 
L 3578 0 
L 2900 0 
L 1881 1375 
L 863 0 
L 184 0 
L 1544 1831 
L 300 3500 
L 978 3500 
L 1906 2253 
L 2834 3500 
L 3513 3500 
z
" transform="scale(0.015625)"/>
       <path id="DejaVuSans-20" transform="scale(0.015625)"/>
       <path id="DejaVuSans-5b" d="M 550 4863 
L 1875 4863 
L 1875 4416 
L 1125 4416 
L 1125 -397 
L 1875 -397 
L 1875 -844 
L 550 -844 
L 550 4863 
z
" transform="scale(0.015625)"/>
       <path id="DejaVuSans-6d" d="M 3328 2828 
Q 3544 3216 3844 3400 
Q 4144 3584 4550 3584 
Q 5097 3584 5394 3201 
Q 5691 2819 5691 2113 
L 5691 0 
L 5113 0 
L 5113 2094 
Q 5113 2597 4934 2840 
Q 4756 3084 4391 3084 
Q 3944 3084 3684 2787 
Q 3425 2491 3425 1978 
L 3425 0 
L 2847 0 
L 2847 2094 
Q 2847 2600 2669 2842 
Q 2491 3084 2119 3084 
Q 1678 3084 1418 2786 
Q 1159 2488 1159 1978 
L 1159 0 
L 581 0 
L 581 3500 
L 1159 3500 
L 1159 2956 
Q 1356 3278 1631 3431 
Q 1906 3584 2284 3584 
Q 2666 3584 2933 3390 
Q 3200 3197 3328 2828 
z
" transform="scale(0.015625)"/>
       <path id="DejaVuSans-5d" d="M 1947 4863 
L 1947 -844 
L 622 -844 
L 622 -397 
L 1369 -397 
L 1369 4416 
L 622 4416 
L 622 4863 
L 1947 4863 
z
" transform="scale(0.015625)"/>
      </defs>
      <use xlink:href="#DejaVuSans-78"/>
      <use xlink:href="#DejaVuSans-20" x="59.179688"/>
      <use xlink:href="#DejaVuSans-5b" x="90.966797"/>
      <use xlink:href="#DejaVuSans-6d" x="129.980469"/>
      <use xlink:href="#DejaVuSans-5d" x="227.392578"/>
     </g>
    </g>
   </g>
   <g id="matplotlib.axis_2">
    <g id="ytick_1">
     <g id="line2d_10">
      <defs>
       <path id="md1adcfb027" d="M 0 0 
L -3.5 0 
" style="stroke: #000000; stroke-width: 0.8"/>
      </defs>
      <g>
       <use xlink:href="#md1adcfb027" x="172.0488" y="474.386037" style="stroke: #000000; stroke-width: 0.8"/>
      </g>
     </g>
     <g id="text_11">
      <!-- −4 -->
      <g transform="translate(150.306612 478.185256) scale(0.1 -0.1)">
       <use xlink:href="#DejaVuSans-2212"/>
       <use xlink:href="#DejaVuSans-34" x="83.789062"/>
      </g>
     </g>
    </g>
    <g id="ytick_2">
     <g id="line2d_11">
      <g>
       <use xlink:href="#md1adcfb027" x="172.0488" y="409.597055" style="stroke: #000000; stroke-width: 0.8"/>
      </g>
     </g>
     <g id="text_12">
      <!-- −3 -->
      <g transform="translate(150.306612 413.396273) scale(0.1 -0.1)">
       <defs>
        <path id="DejaVuSans-33" d="M 2597 2516 
Q 3050 2419 3304 2112 
Q 3559 1806 3559 1356 
Q 3559 666 3084 287 
Q 2609 -91 1734 -91 
Q 1441 -91 1130 -33 
Q 819 25 488 141 
L 488 750 
Q 750 597 1062 519 
Q 1375 441 1716 441 
Q 2309 441 2620 675 
Q 2931 909 2931 1356 
Q 2931 1769 2642 2001 
Q 2353 2234 1838 2234 
L 1294 2234 
L 1294 2753 
L 1863 2753 
Q 2328 2753 2575 2939 
Q 2822 3125 2822 3475 
Q 2822 3834 2567 4026 
Q 2313 4219 1838 4219 
Q 1578 4219 1281 4162 
Q 984 4106 628 3988 
L 628 4550 
Q 988 4650 1302 4700 
Q 1616 4750 1894 4750 
Q 2613 4750 3031 4423 
Q 3450 4097 3450 3541 
Q 3450 3153 3228 2886 
Q 3006 2619 2597 2516 
z
" transform="scale(0.015625)"/>
       </defs>
       <use xlink:href="#DejaVuSans-2212"/>
       <use xlink:href="#DejaVuSans-33" x="83.789062"/>
      </g>
     </g>
    </g>
    <g id="ytick_3">
     <g id="line2d_12">
      <g>
       <use xlink:href="#md1adcfb027" x="172.0488" y="344.808072" style="stroke: #000000; stroke-width: 0.8"/>
      </g>
     </g>
     <g id="text_13">
      <!-- −2 -->
      <g transform="translate(150.306612 348.607291) scale(0.1 -0.1)">
       <use xlink:href="#DejaVuSans-2212"/>
       <use xlink:href="#DejaVuSans-32" x="83.789062"/>
      </g>
     </g>
    </g>
    <g id="ytick_4">
     <g id="line2d_13">
      <g>
       <use xlink:href="#md1adcfb027" x="172.0488" y="280.019089" style="stroke: #000000; stroke-width: 0.8"/>
      </g>
     </g>
     <g id="text_14">
      <!-- −1 -->
      <g transform="translate(150.306612 283.818308) scale(0.1 -0.1)">
       <use xlink:href="#DejaVuSans-2212"/>
       <use xlink:href="#DejaVuSans-31" x="83.789062"/>
      </g>
     </g>
    </g>
    <g id="ytick_5">
     <g id="line2d_14">
      <g>
       <use xlink:href="#md1adcfb027" x="172.0488" y="215.230106" style="stroke: #000000; stroke-width: 0.8"/>
      </g>
     </g>
     <g id="text_15">
      <!-- 0 -->
      <g transform="translate(158.6863 219.029325) scale(0.1 -0.1)">
       <use xlink:href="#DejaVuSans-30"/>
      </g>
     </g>
    </g>
    <g id="text_16">
     <!-- y [m] -->
     <g transform="translate(144.226925 340.875513) rotate(-90) scale(0.1 -0.1)">
      <defs>
       <path id="DejaVuSans-79" d="M 2059 -325 
Q 1816 -950 1584 -1140 
Q 1353 -1331 966 -1331 
L 506 -1331 
L 506 -850 
L 844 -850 
Q 1081 -850 1212 -737 
Q 1344 -625 1503 -206 
L 1606 56 
L 191 3500 
L 800 3500 
L 1894 763 
L 2988 3500 
L 3597 3500 
L 2059 -325 
z
" transform="scale(0.015625)"/>
      </defs>
      <use xlink:href="#DejaVuSans-79"/>
      <use xlink:href="#DejaVuSans-20" x="59.179688"/>
      <use xlink:href="#DejaVuSans-5b" x="90.966797"/>
      <use xlink:href="#DejaVuSans-6d" x="129.980469"/>
      <use xlink:href="#DejaVuSans-5d" x="227.392578"/>
     </g>
    </g>
   </g>
   <g id="line2d_15">
    <path d="M 223.880441 215.230106 
L 495.994169 215.230106 
" clip-path="url(#p794ec2d349)" style="fill: none; stroke-dasharray: 2.775,1.2; stroke-dashoffset: 0; stroke: #000000; stroke-width: 0.75"/>
   </g>
   <g id="line2d_16">
    <path d="M 483.036372 474.386037 
L 483.036372 202.27231 
" clip-path="url(#p794ec2d349)" style="fill: none; stroke-dasharray: 2.775,1.2; stroke-dashoffset: 0; stroke: #000000; stroke-width: 0.75"/>
   </g>
   <g id="line2d_17">
    <path d="M 1260.504165 215.230106 
L 1260.504165 215.230106 
L 1260.504155 215.243061 
L 1260.504129 215.317081 
L 1260.506409 216.029754 
L 1260.513264 216.742399 
L 1259.086449 209.220487 
L 1253.406385 205.134457 
L 1245.036668 204.463983 
L 1238.200154 202.452298 
L 1231.446365 200.178284 
L 1224.751776 197.724118 
L 1218.083247 195.209864 
L 1211.438118 192.634401 
L 1204.746527 190.146798 
L 1197.956722 187.983431 
L 1191.086954 186.079669 
L 1184.174275 184.34664 
L 1177.187753 182.90792 
L 1170.126819 181.95163 
L 1163.017018 181.480438 
L 1155.891639 181.496551 
L 1148.78325 181.99091 
L 1141.722349 182.94836 
L 1134.739034 184.364818 
L 1127.811694 186.087262 
L 1120.916156 187.887837 
L 1114.066435 189.87219 
L 1107.324631 192.180753 
L 1100.672514 194.744419 
L 1094.084634 197.462619 
L 1087.568135 200.347807 
L 1081.136171 203.416609 
L 1074.772777 206.627661 
L 1068.453049 209.92181 
L 1062.157352 213.263445 
L 1055.859708 216.599727 
L 1049.558062 219.928452 
L 1043.250462 223.245873 
L 1036.895624 226.4787 
L 1030.447655 229.513633 
L 1023.92478 232.3864 
L 1017.354836 235.147874 
L 1010.74769 237.820013 
L 1004.117824 240.434524 
L 997.465483 242.991309 
L 990.727993 245.346648 
L 983.86757 247.272565 
L 976.900186 248.765922 
L 969.850651 249.803876 
L 962.746779 250.357312 
L 955.62169 250.423656 
L 948.511762 249.943619 
L 941.473956 248.835873 
L 934.561955 247.10901 
L 927.739291 244.973516 
L 920.967928 242.751152 
L 914.228567 240.433547 
L 907.544751 237.954656 
L 900.962559 235.223414 
L 894.489366 232.243024 
L 888.107589 229.067465 
L 881.787843 225.773467 
L 875.531014 222.361471 
L 869.313595 218.875539 
L 863.102815 215.380212 
L 856.897667 211.874897 
L 850.673802 208.400817 
L 844.400077 205.019907 
L 838.076925 201.732365 
L 831.669468 198.606878 
L 825.141095 195.749565 
L 818.500405 193.164001 
L 811.784071 190.76915 
L 805.046202 188.447138 
L 798.283953 186.197112 
L 791.439961 184.169974 
L 784.488959 182.602752 
L 777.449602 181.49819 
L 770.352118 180.867859 
L 763.228165 180.724363 
L 756.111077 181.068371 
L 749.038688 181.936945 
L 742.061624 183.380334 
L 735.18103 185.26656 
L 728.382467 187.403113 
L 721.66761 189.789745 
L 715.043528 192.417984 
L 708.515708 195.276912 
L 702.092169 198.363018 
L 695.738422 201.598742 
L 689.406768 204.869999 
L 683.094422 208.17836 
L 676.800829 211.522264 
L 670.52507 214.899517 
L 664.267321 218.310025 
L 657.993102 221.694647 
L 651.660304 224.963498 
L 645.269087 228.1166 
L 638.836109 231.185188 
L 632.38525 234.214607 
L 625.916204 237.204992 
L 619.373393 240.046714 
L 612.707778 242.5668 
L 605.928386 244.762501 
L 599.028577 246.552128 
L 592.016252 247.814745 
L 584.928572 248.543926 
L 577.806138 248.756448 
L 570.68605 248.481422 
L 563.601438 247.720135 
L 556.553439 246.607336 
L 549.540101 245.341577 
L 542.556365 243.921547 
L 535.623418 242.256717 
L 528.794287 240.221587 
L 522.084817 237.82121 
L 515.490975 235.114003 
L 508.995864 232.181495 
L 502.605841 229.026551 
L 496.285632 225.725875 
L 489.98652 222.392383 
" clip-path="url(#p794ec2d349)" style="fill: none; stroke-dasharray: 1.85,0.8; stroke-dashoffset: 0; stroke: #0000ff; stroke-width: 0.5"/>
   </g>
   <g id="line2d_18">
    <path d="M 1260.504165 215.230106 
L 1231.709061 200.691485 
L 1202.913958 189.245734 
L 1174.118854 183.32776 
L 1145.323751 184.196523 
L 1116.528647 191.667207 
L 1087.733544 204.150538 
L 1058.938441 218.990877 
L 1030.143337 233.03117 
L 1001.348234 243.284559 
L 972.55313 247.569791 
L 943.758027 244.97525 
L 914.962923 236.052884 
L 886.16782 222.70079 
L 857.372717 207.759423 
L 828.577613 194.407329 
L 799.78251 185.484963 
L 770.987406 182.890421 
L 742.192303 187.175654 
L 713.397199 197.429043 
L 684.602096 211.469336 
L 655.806993 226.309675 
L 627.011889 238.793006 
L 598.216786 246.263689 
L 569.421682 247.132453 
L 540.626579 241.214479 
L 511.831475 229.768728 
L 483.036372 215.230106 
" clip-path="url(#p794ec2d349)" style="fill: none; stroke: #1f77b4; stroke-width: 1.5; stroke-linecap: square"/>
   </g>
   <g id="patch_4">
    <path d="M 172.0488 489.069121 
L 172.0488 166.041279 
" style="fill: none; stroke: #000000; stroke-width: 0.8; stroke-linejoin: miter; stroke-linecap: square"/>
   </g>
   <g id="patch_5">
    <path d="M 1312.344905 489.069121 
L 1312.344905 166.041279 
" style="fill: none; stroke: #000000; stroke-width: 0.8; stroke-linejoin: miter; stroke-linecap: square"/>
   </g>
   <g id="patch_6">
    <path d="M 172.0488 489.069121 
L 1312.344905 489.069121 
" style="fill: none; stroke: #000000; stroke-width: 0.8; stroke-linejoin: miter; stroke-linecap: square"/>
   </g>
   <g id="patch_7">
    <path d="M 172.0488 166.041279 
L 1312.344905 166.041279 
" style="fill: none; stroke: #000000; stroke-width: 0.8; stroke-linejoin: miter; stroke-linecap: square"/>
   </g>
   <g id="text_17">
    <!-- Target -->
    <g transform="translate(1175.509373 201.103438) scale(0.1 -0.1)">
     <defs>
      <path id="DejaVuSans-54" d="M -19 4666 
L 3928 4666 
L 3928 4134 
L 2272 4134 
L 2272 0 
L 1638 0 
L 1638 4134 
L -19 4134 
L -19 4666 
z
" transform="scale(0.015625)"/>
      <path id="DejaVuSans-61" d="M 2194 1759 
Q 1497 1759 1228 1600 
Q 959 1441 959 1056 
Q 959 750 1161 570 
Q 1363 391 1709 391 
Q 2188 391 2477 730 
Q 2766 1069 2766 1631 
L 2766 1759 
L 2194 1759 
z
M 3341 1997 
L 3341 0 
L 2766 0 
L 2766 531 
Q 2569 213 2275 61 
Q 1981 -91 1556 -91 
Q 1019 -91 701 211 
Q 384 513 384 1019 
Q 384 1609 779 1909 
Q 1175 2209 1959 2209 
L 2766 2209 
L 2766 2266 
Q 2766 2663 2505 2880 
Q 2244 3097 1772 3097 
Q 1472 3097 1187 3025 
Q 903 2953 641 2809 
L 641 3341 
Q 956 3463 1253 3523 
Q 1550 3584 1831 3584 
Q 2591 3584 2966 3190 
Q 3341 2797 3341 1997 
z
" transform="scale(0.015625)"/>
      <path id="DejaVuSans-72" d="M 2631 2963 
Q 2534 3019 2420 3045 
Q 2306 3072 2169 3072 
Q 1681 3072 1420 2755 
Q 1159 2438 1159 1844 
L 1159 0 
L 581 0 
L 581 3500 
L 1159 3500 
L 1159 2956 
Q 1341 3275 1631 3429 
Q 1922 3584 2338 3584 
Q 2397 3584 2469 3576 
Q 2541 3569 2628 3553 
L 2631 2963 
z
" transform="scale(0.015625)"/>
      <path id="DejaVuSans-67" d="M 2906 1791 
Q 2906 2416 2648 2759 
Q 2391 3103 1925 3103 
Q 1463 3103 1205 2759 
Q 947 2416 947 1791 
Q 947 1169 1205 825 
Q 1463 481 1925 481 
Q 2391 481 2648 825 
Q 2906 1169 2906 1791 
z
M 3481 434 
Q 3481 -459 3084 -895 
Q 2688 -1331 1869 -1331 
Q 1566 -1331 1297 -1286 
Q 1028 -1241 775 -1147 
L 775 -588 
Q 1028 -725 1275 -790 
Q 1522 -856 1778 -856 
Q 2344 -856 2625 -561 
Q 2906 -266 2906 331 
L 2906 616 
Q 2728 306 2450 153 
Q 2172 0 1784 0 
Q 1141 0 747 490 
Q 353 981 353 1791 
Q 353 2603 747 3093 
Q 1141 3584 1784 3584 
Q 2172 3584 2450 3431 
Q 2728 3278 2906 2969 
L 2906 3500 
L 3481 3500 
L 3481 434 
z
" transform="scale(0.015625)"/>
      <path id="DejaVuSans-65" d="M 3597 1894 
L 3597 1613 
L 953 1613 
Q 991 1019 1311 708 
Q 1631 397 2203 397 
Q 2534 397 2845 478 
Q 3156 559 3463 722 
L 3463 178 
Q 3153 47 2828 -22 
Q 2503 -91 2169 -91 
Q 1331 -91 842 396 
Q 353 884 353 1716 
Q 353 2575 817 3079 
Q 1281 3584 2069 3584 
Q 2775 3584 3186 3129 
Q 3597 2675 3597 1894 
z
M 3022 2063 
Q 3016 2534 2758 2815 
Q 2500 3097 2075 3097 
Q 1594 3097 1305 2825 
Q 1016 2553 972 2059 
L 3022 2063 
z
" transform="scale(0.015625)"/>
      <path id="DejaVuSans-74" d="M 1172 4494 
L 1172 3500 
L 2356 3500 
L 2356 3053 
L 1172 3053 
L 1172 1153 
Q 1172 725 1289 603 
Q 1406 481 1766 481 
L 2356 481 
L 2356 0 
L 1766 0 
Q 1100 0 847 248 
Q 594 497 594 1153 
L 594 3053 
L 172 3053 
L 172 3500 
L 594 3500 
L 594 4494 
L 1172 4494 
z
" transform="scale(0.015625)"/>
     </defs>
     <use xlink:href="#DejaVuSans-54"/>
     <use xlink:href="#DejaVuSans-61" x="44.583984"/>
     <use xlink:href="#DejaVuSans-72" x="105.863281"/>
     <use xlink:href="#DejaVuSans-67" x="145.226562"/>
     <use xlink:href="#DejaVuSans-65" x="208.703125"/>
     <use xlink:href="#DejaVuSans-74" x="270.226562"/>
    </g>
   </g>
   <g id="text_18">
    <!-- t = 5.906 -->
    <g transform="translate(229.063605 184.952046) scale(0.1 -0.1)">
     <defs>
      <path id="DejaVuSans-3d" d="M 678 2906 
L 4684 2906 
L 4684 2381 
L 678 2381 
L 678 2906 
z
M 678 1631 
L 4684 1631 
L 4684 1100 
L 678 1100 
L 678 1631 
z
" transform="scale(0.015625)"/>
      <path id="DejaVuSans-35" d="M 691 4666 
L 3169 4666 
L 3169 4134 
L 1269 4134 
L 1269 2991 
Q 1406 3038 1543 3061 
Q 1681 3084 1819 3084 
Q 2600 3084 3056 2656 
Q 3513 2228 3513 1497 
Q 3513 744 3044 326 
Q 2575 -91 1722 -91 
Q 1428 -91 1123 -41 
Q 819 9 494 109 
L 494 744 
Q 775 591 1075 516 
Q 1375 441 1709 441 
Q 2250 441 2565 725 
Q 2881 1009 2881 1497 
Q 2881 1984 2565 2268 
Q 2250 2553 1709 2553 
Q 1456 2553 1204 2497 
Q 953 2441 691 2322 
L 691 4666 
z
" transform="scale(0.015625)"/>
      <path id="DejaVuSans-2e" d="M 684 794 
L 1344 794 
L 1344 0 
L 684 0 
L 684 794 
z
" transform="scale(0.015625)"/>
      <path id="DejaVuSans-39" d="M 703 97 
L 703 672 
Q 941 559 1184 500 
Q 1428 441 1663 441 
Q 2288 441 2617 861 
Q 2947 1281 2994 2138 
Q 2813 1869 2534 1725 
Q 2256 1581 1919 1581 
Q 1219 1581 811 2004 
Q 403 2428 403 3163 
Q 403 3881 828 4315 
Q 1253 4750 1959 4750 
Q 2769 4750 3195 4129 
Q 3622 3509 3622 2328 
Q 3622 1225 3098 567 
Q 2575 -91 1691 -91 
Q 1453 -91 1209 -44 
Q 966 3 703 97 
z
M 1959 2075 
Q 2384 2075 2632 2365 
Q 2881 2656 2881 3163 
Q 2881 3666 2632 3958 
Q 2384 4250 1959 4250 
Q 1534 4250 1286 3958 
Q 1038 3666 1038 3163 
Q 1038 2656 1286 2365 
Q 1534 2075 1959 2075 
z
" transform="scale(0.015625)"/>
     </defs>
     <use xlink:href="#DejaVuSans-74"/>
     <use xlink:href="#DejaVuSans-20" x="39.208984"/>
     <use xlink:href="#DejaVuSans-3d" x="70.996094"/>
     <use xlink:href="#DejaVuSans-20" x="154.785156"/>
     <use xlink:href="#DejaVuSans-35" x="186.572266"/>
     <use xlink:href="#DejaVuSans-2e" x="250.195312"/>
     <use xlink:href="#DejaVuSans-39" x="281.982422"/>
     <use xlink:href="#DejaVuSans-30" x="345.605469"/>
     <use xlink:href="#DejaVuSans-36" x="409.228516"/>
    </g>
   </g>
   <g id="text_19">
    <!-- Pause - space, q - quit, click - data cursor -->
    <g transform="translate(618.287478 160.041279) scale(0.12 -0.12)">
     <defs>
      <path id="DejaVuSans-50" d="M 1259 4147 
L 1259 2394 
L 2053 2394 
Q 2494 2394 2734 2622 
Q 2975 2850 2975 3272 
Q 2975 3691 2734 3919 
Q 2494 4147 2053 4147 
L 1259 4147 
z
M 628 4666 
L 2053 4666 
Q 2838 4666 3239 4311 
Q 3641 3956 3641 3272 
Q 3641 2581 3239 2228 
Q 2838 1875 2053 1875 
L 1259 1875 
L 1259 0 
L 628 0 
L 628 4666 
z
" transform="scale(0.015625)"/>
      <path id="DejaVuSans-75" d="M 544 1381 
L 544 3500 
L 1119 3500 
L 1119 1403 
Q 1119 906 1312 657 
Q 1506 409 1894 409 
Q 2359 409 2629 706 
Q 2900 1003 2900 1516 
L 2900 3500 
L 3475 3500 
L 3475 0 
L 2900 0 
L 2900 538 
Q 2691 219 2414 64 
Q 2138 -91 1772 -91 
Q 1169 -91 856 284 
Q 544 659 544 1381 
z
M 1991 3584 
L 1991 3584 
z
" transform="scale(0.015625)"/>
      <path id="DejaVuSans-73" d="M 2834 3397 
L 2834 2853 
Q 2591 2978 2328 3040 
Q 2066 3103 1784 3103 
Q 1356 3103 1142 2972 
Q 928 2841 928 2578 
Q 928 2378 1081 2264 
Q 1234 2150 1697 2047 
L 1894 2003 
Q 2506 1872 2764 1633 
Q 3022 1394 3022 966 
Q 3022 478 2636 193 
Q 2250 -91 1575 -91 
Q 1294 -91 989 -36 
Q 684 19 347 128 
L 347 722 
Q 666 556 975 473 
Q 1284 391 1588 391 
Q 1994 391 2212 530 
Q 2431 669 2431 922 
Q 2431 1156 2273 1281 
Q 2116 1406 1581 1522 
L 1381 1569 
Q 847 1681 609 1914 
Q 372 2147 372 2553 
Q 372 3047 722 3315 
Q 1072 3584 1716 3584 
Q 2034 3584 2315 3537 
Q 2597 3491 2834 3397 
z
" transform="scale(0.015625)"/>
      <path id="DejaVuSans-2d" d="M 313 2009 
L 1997 2009 
L 1997 1497 
L 313 1497 
L 313 2009 
z
" transform="scale(0.015625)"/>
      <path id="DejaVuSans-70" d="M 1159 525 
L 1159 -1331 
L 581 -1331 
L 581 3500 
L 1159 3500 
L 1159 2969 
Q 1341 3281 1617 3432 
Q 1894 3584 2278 3584 
Q 2916 3584 3314 3078 
Q 3713 2572 3713 1747 
Q 3713 922 3314 415 
Q 2916 -91 2278 -91 
Q 1894 -91 1617 61 
Q 1341 213 1159 525 
z
M 3116 1747 
Q 3116 2381 2855 2742 
Q 2594 3103 2138 3103 
Q 1681 3103 1420 2742 
Q 1159 2381 1159 1747 
Q 1159 1113 1420 752 
Q 1681 391 2138 391 
Q 2594 391 2855 752 
Q 3116 1113 3116 1747 
z
" transform="scale(0.015625)"/>
      <path id="DejaVuSans-63" d="M 3122 3366 
L 3122 2828 
Q 2878 2963 2633 3030 
Q 2388 3097 2138 3097 
Q 1578 3097 1268 2742 
Q 959 2388 959 1747 
Q 959 1106 1268 751 
Q 1578 397 2138 397 
Q 2388 397 2633 464 
Q 2878 531 3122 666 
L 3122 134 
Q 2881 22 2623 -34 
Q 2366 -91 2075 -91 
Q 1284 -91 818 406 
Q 353 903 353 1747 
Q 353 2603 823 3093 
Q 1294 3584 2113 3584 
Q 2378 3584 2631 3529 
Q 2884 3475 3122 3366 
z
" transform="scale(0.015625)"/>
      <path id="DejaVuSans-2c" d="M 750 794 
L 1409 794 
L 1409 256 
L 897 -744 
L 494 -744 
L 750 256 
L 750 794 
z
" transform="scale(0.015625)"/>
      <path id="DejaVuSans-71" d="M 947 1747 
Q 947 1113 1208 752 
Q 1469 391 1925 391 
Q 2381 391 2643 752 
Q 2906 1113 2906 1747 
Q 2906 2381 2643 2742 
Q 2381 3103 1925 3103 
Q 1469 3103 1208 2742 
Q 947 2381 947 1747 
z
M 2906 525 
Q 2725 213 2448 61 
Q 2172 -91 1784 -91 
Q 1150 -91 751 415 
Q 353 922 353 1747 
Q 353 2572 751 3078 
Q 1150 3584 1784 3584 
Q 2172 3584 2448 3432 
Q 2725 3281 2906 2969 
L 2906 3500 
L 3481 3500 
L 3481 -1331 
L 2906 -1331 
L 2906 525 
z
" transform="scale(0.015625)"/>
      <path id="DejaVuSans-69" d="M 603 3500 
L 1178 3500 
L 1178 0 
L 603 0 
L 603 3500 
z
M 603 4863 
L 1178 4863 
L 1178 4134 
L 603 4134 
L 603 4863 
z
" transform="scale(0.015625)"/>
      <path id="DejaVuSans-6c" d="M 603 4863 
L 1178 4863 
L 1178 0 
L 603 0 
L 603 4863 
z
" transform="scale(0.015625)"/>
      <path id="DejaVuSans-6b" d="M 581 4863 
L 1159 4863 
L 1159 1991 
L 2875 3500 
L 3609 3500 
L 1753 1863 
L 3688 0 
L 2938 0 
L 1159 1709 
L 1159 0 
L 581 0 
L 581 4863 
z
" transform="scale(0.015625)"/>
      <path id="DejaVuSans-64" d="M 2906 2969 
L 2906 4863 
L 3481 4863 
L 3481 0 
L 2906 0 
L 2906 525 
Q 2725 213 2448 61 
Q 2172 -91 1784 -91 
Q 1150 -91 751 415 
Q 353 922 353 1747 
Q 353 2572 751 3078 
Q 1150 3584 1784 3584 
Q 2172 3584 2448 3432 
Q 2725 3281 2906 2969 
z
M 947 1747 
Q 947 1113 1208 752 
Q 1469 391 1925 391 
Q 2381 391 2643 752 
Q 2906 1113 2906 1747 
Q 2906 2381 2643 2742 
Q 2381 3103 1925 3103 
Q 1469 3103 1208 2742 
Q 947 2381 947 1747 
z
" transform="scale(0.015625)"/>
      <path id="DejaVuSans-6f" d="M 1959 3097 
Q 1497 3097 1228 2736 
Q 959 2375 959 1747 
Q 959 1119 1226 758 
Q 1494 397 1959 397 
Q 2419 397 2687 759 
Q 2956 1122 2956 1747 
Q 2956 2369 2687 2733 
Q 2419 3097 1959 3097 
z
M 1959 3584 
Q 2709 3584 3137 3096 
Q 3566 2609 3566 1747 
Q 3566 888 3137 398 
Q 2709 -91 1959 -91 
Q 1206 -91 779 398 
Q 353 888 353 1747 
Q 353 2609 779 3096 
Q 1206 3584 1959 3584 
z
" transform="scale(0.015625)"/>
     </defs>
     <use xlink:href="#DejaVuSans-50"/>
     <use xlink:href="#DejaVuSans-61" x="55.802734"/>
     <use xlink:href="#DejaVuSans-75" x="117.082031"/>
     <use xlink:href="#DejaVuSans-73" x="180.460938"/>
     <use xlink:href="#DejaVuSans-65" x="232.560547"/>
     <use xlink:href="#DejaVuSans-20" x="294.083984"/>
     <use xlink:href="#DejaVuSans-2d" x="325.871094"/>
     <use xlink:href="#DejaVuSans-20" x="361.955078"/>
     <use xlink:href="#DejaVuSans-73" x="393.742188"/>
     <use xlink:href="#DejaVuSans-70" x="445.841797"/>
     <use xlink:href="#DejaVuSans-61" x="509.318359"/>
     <use xlink:href="#DejaVuSans-63" x="570.597656"/>
     <use xlink:href="#DejaVuSans-65" x="625.578125"/>
     <use xlink:href="#DejaVuSans-2c" x="687.101562"/>
     <use xlink:href="#DejaVuSans-20" x="718.888672"/>
     <use xlink:href="#DejaVuSans-71" x="750.675781"/>
     <use xlink:href="#DejaVuSans-20" x="814.152344"/>
     <use xlink:href="#DejaVuSans-2d" x="845.939453"/>
     <use xlink:href="#DejaVuSans-20" x="882.023438"/>
     <use xlink:href="#DejaVuSans-71" x="913.810547"/>
     <use xlink:href="#DejaVuSans-75" x="977.287109"/>
     <use xlink:href="#DejaVuSans-69" x="1040.666016"/>
     <use xlink:href="#DejaVuSans-74" x="1068.449219"/>
     <use xlink:href="#DejaVuSans-2c" x="1107.658203"/>
     <use xlink:href="#DejaVuSans-20" x="1139.445312"/>
     <use xlink:href="#DejaVuSans-63" x="1171.232422"/>
     <use xlink:href="#DejaVuSans-6c" x="1226.212891"/>
     <use xlink:href="#DejaVuSans-69" x="1253.996094"/>
     <use xlink:href="#DejaVuSans-63" x="1281.779297"/>
     <use xlink:href="#DejaVuSans-6b" x="1336.759766"/>
     <use xlink:href="#DejaVuSans-20" x="1394.669922"/>
     <use xlink:href="#DejaVuSans-2d" x="1426.457031"/>
     <use xlink:href="#DejaVuSans-20" x="1462.541016"/>
     <use xlink:href="#DejaVuSans-64" x="1494.328125"/>
     <use xlink:href="#DejaVuSans-61" x="1557.804688"/>
     <use xlink:href="#DejaVuSans-74" x="1619.083984"/>
     <use xlink:href="#DejaVuSans-61" x="1658.292969"/>
     <use xlink:href="#DejaVuSans-20" x="1719.572266"/>
     <use xlink:href="#DejaVuSans-63" x="1751.359375"/>
     <use xlink:href="#DejaVuSans-75" x="1806.339844"/>
     <use xlink:href="#DejaVuSans-72" x="1869.71875"/>
     <use xlink:href="#DejaVuSans-73" x="1910.832031"/>
     <use xlink:href="#DejaVuSans-6f" x="1962.931641"/>
     <use xlink:href="#DejaVuSans-72" x="2024.113281"/>
    </g>
   </g>
  </g>
  <g id="axes_2">
   <g id="patch_8">
    <path d="M 1457.622295 633.9424 
L 2597.9184 633.9424 
L 2597.9184 21.168 
L 1457.622295 21.168 
z
" style="fill: #ffffff"/>
   </g>
   <g id="matplotlib.axis_3">
    <g id="xtick_10">
     <g id="line2d_19">
      <g>
       <use xlink:href="#m5e6487b7b3" x="1457.622295" y="633.9424" style="stroke: #000000; stroke-width: 0.8"/>
      </g>
     </g>
     <g id="text_20">
      <!-- 0 -->
      <g transform="translate(1454.441045 648.540838) scale(0.1 -0.1)">
       <use xlink:href="#DejaVuSans-30"/>
      </g>
     </g>
    </g>
    <g id="xtick_11">
     <g id="line2d_20">
      <g>
       <use xlink:href="#m5e6487b7b3" x="1647.671645" y="633.9424" style="stroke: #000000; stroke-width: 0.8"/>
      </g>
     </g>
     <g id="text_21">
      <!-- 5 -->
      <g transform="translate(1644.490395 648.540838) scale(0.1 -0.1)">
       <use xlink:href="#DejaVuSans-35"/>
      </g>
     </g>
    </g>
    <g id="xtick_12">
     <g id="line2d_21">
      <g>
       <use xlink:href="#m5e6487b7b3" x="1837.720996" y="633.9424" style="stroke: #000000; stroke-width: 0.8"/>
      </g>
     </g>
     <g id="text_22">
      <!-- 10 -->
      <g transform="translate(1831.358496 648.540838) scale(0.1 -0.1)">
       <use xlink:href="#DejaVuSans-31"/>
       <use xlink:href="#DejaVuSans-30" x="63.623047"/>
      </g>
     </g>
    </g>
    <g id="xtick_13">
     <g id="line2d_22">
      <g>
       <use xlink:href="#m5e6487b7b3" x="2027.770347" y="633.9424" style="stroke: #000000; stroke-width: 0.8"/>
      </g>
     </g>
     <g id="text_23">
      <!-- 15 -->
      <g transform="translate(2021.407847 648.540838) scale(0.1 -0.1)">
       <use xlink:href="#DejaVuSans-31"/>
       <use xlink:href="#DejaVuSans-35" x="63.623047"/>
      </g>
     </g>
    </g>
    <g id="xtick_14">
     <g id="line2d_23">
      <g>
       <use xlink:href="#m5e6487b7b3" x="2217.819698" y="633.9424" style="stroke: #000000; stroke-width: 0.8"/>
      </g>
     </g>
     <g id="text_24">
      <!-- 20 -->
      <g transform="translate(2211.457198 648.540838) scale(0.1 -0.1)">
       <use xlink:href="#DejaVuSans-32"/>
       <use xlink:href="#DejaVuSans-30" x="63.623047"/>
      </g>
     </g>
    </g>
    <g id="xtick_15">
     <g id="line2d_24">
      <g>
       <use xlink:href="#m5e6487b7b3" x="2407.869049" y="633.9424" style="stroke: #000000; stroke-width: 0.8"/>
      </g>
     </g>
     <g id="text_25">
      <!-- 25 -->
      <g transform="translate(2401.506549 648.540838) scale(0.1 -0.1)">
       <use xlink:href="#DejaVuSans-32"/>
       <use xlink:href="#DejaVuSans-35" x="63.623047"/>
      </g>
     </g>
    </g>
    <g id="xtick_16">
     <g id="line2d_25">
      <g>
       <use xlink:href="#m5e6487b7b3" x="2597.9184" y="633.9424" style="stroke: #000000; stroke-width: 0.8"/>
      </g>
     </g>
     <g id="text_26">
      <!-- 30 -->
      <g transform="translate(2591.5559 648.540838) scale(0.1 -0.1)">
       <use xlink:href="#DejaVuSans-33"/>
       <use xlink:href="#DejaVuSans-30" x="63.623047"/>
      </g>
     </g>
    </g>
    <g id="text_27">
     <!-- t [s] -->
     <g transform="translate(2017.714879 662.218963) scale(0.1 -0.1)">
      <use xlink:href="#DejaVuSans-74"/>
      <use xlink:href="#DejaVuSans-20" x="39.208984"/>
      <use xlink:href="#DejaVuSans-5b" x="70.996094"/>
      <use xlink:href="#DejaVuSans-73" x="110.009766"/>
      <use xlink:href="#DejaVuSans-5d" x="162.109375"/>
     </g>
    </g>
   </g>
   <g id="matplotlib.axis_4">
    <g id="ytick_6">
     <g id="line2d_26">
      <g>
       <use xlink:href="#md1adcfb027" x="1457.622295" y="606.089018" style="stroke: #000000; stroke-width: 0.8"/>
      </g>
     </g>
     <g id="text_28">
      <!-- −8 -->
      <g transform="translate(1435.880107 609.888237) scale(0.1 -0.1)">
       <use xlink:href="#DejaVuSans-2212"/>
       <use xlink:href="#DejaVuSans-38" x="83.789062"/>
      </g>
     </g>
    </g>
    <g id="ytick_7">
     <g id="line2d_27">
      <g>
       <use xlink:href="#md1adcfb027" x="1457.622295" y="536.455564" style="stroke: #000000; stroke-width: 0.8"/>
      </g>
     </g>
     <g id="text_29">
      <!-- −6 -->
      <g transform="translate(1435.880107 540.254782) scale(0.1 -0.1)">
       <use xlink:href="#DejaVuSans-2212"/>
       <use xlink:href="#DejaVuSans-36" x="83.789062"/>
      </g>
     </g>
    </g>
    <g id="ytick_8">
     <g id="line2d_28">
      <g>
       <use xlink:href="#md1adcfb027" x="1457.622295" y="466.822109" style="stroke: #000000; stroke-width: 0.8"/>
      </g>
     </g>
     <g id="text_30">
      <!-- −4 -->
      <g transform="translate(1435.880107 470.621328) scale(0.1 -0.1)">
       <use xlink:href="#DejaVuSans-2212"/>
       <use xlink:href="#DejaVuSans-34" x="83.789062"/>
      </g>
     </g>
    </g>
    <g id="ytick_9">
     <g id="line2d_29">
      <g>
       <use xlink:href="#md1adcfb027" x="1457.622295" y="397.188655" style="stroke: #000000; stroke-width: 0.8"/>
      </g>
     </g>
     <g id="text_31">
      <!-- −2 -->
      <g transform="translate(1435.880107 400.987873) scale(0.1 -0.1)">
       <use xlink:href="#DejaVuSans-2212"/>
       <use xlink:href="#DejaVuSans-32" x="83.789062"/>
      </g>
     </g>
    </g>
    <g id="ytick_10">
     <g id="line2d_30">
      <g>
       <use xlink:href="#md1adcfb027" x="1457.622295" y="327.5552" style="stroke: #000000; stroke-width: 0.8"/>
      </g>
     </g>
     <g id="text_32">
      <!-- 0 -->
      <g transform="translate(1444.259795 331.354419) scale(0.1 -0.1)">
       <use xlink:href="#DejaVuSans-30"/>
      </g>
     </g>
    </g>
    <g id="ytick_11">
     <g id="line2d_31">
      <g>
       <use xlink:href="#md1adcfb027" x="1457.622295" y="257.921745" style="stroke: #000000; stroke-width: 0.8"/>
      </g>
     </g>
     <g id="text_33">
      <!-- 2 -->
      <g transform="translate(1444.259795 261.720964) scale(0.1 -0.1)">
       <use xlink:href="#DejaVuSans-32"/>
      </g>
     </g>
    </g>
    <g id="ytick_12">
     <g id="line2d_32">
      <g>
       <use xlink:href="#md1adcfb027" x="1457.622295" y="188.288291" style="stroke: #000000; stroke-width: 0.8"/>
      </g>
     </g>
     <g id="text_34">
      <!-- 4 -->
      <g transform="translate(1444.259795 192.08751) scale(0.1 -0.1)">
       <use xlink:href="#DejaVuSans-34"/>
      </g>
     </g>
    </g>
    <g id="ytick_13">
     <g id="line2d_33">
      <g>
       <use xlink:href="#md1adcfb027" x="1457.622295" y="118.654836" style="stroke: #000000; stroke-width: 0.8"/>
      </g>
     </g>
     <g id="text_35">
      <!-- 6 -->
      <g transform="translate(1444.259795 122.454055) scale(0.1 -0.1)">
       <use xlink:href="#DejaVuSans-36"/>
      </g>
     </g>
    </g>
    <g id="ytick_14">
     <g id="line2d_34">
      <g>
       <use xlink:href="#md1adcfb027" x="1457.622295" y="49.021382" style="stroke: #000000; stroke-width: 0.8"/>
      </g>
     </g>
     <g id="text_36">
      <!-- 8 -->
      <g transform="translate(1444.259795 52.820601) scale(0.1 -0.1)">
       <use xlink:href="#DejaVuSans-38"/>
      </g>
     </g>
    </g>
   </g>
   <g id="line2d_35">
    <path d="M 1457.622295 327.5552 
L 2597.9184 327.5552 
" clip-path="url(#pbe77a9831e)" style="fill: none; stroke-dasharray: 2.775,1.2; stroke-dashoffset: 0; stroke: #000000; stroke-width: 0.75"/>
   </g>
   <g id="line2d_36">
    <path d="M 1509.149734 -1 
L 1509.174818 -0.952696 
L 1511.075311 2.589541 
L 1512.975805 6.081728 
L 1514.876298 9.53042 
L 1516.776792 12.947224 
L 1518.677285 16.341585 
L 1520.577779 19.72677 
L 1522.478272 23.1036 
L 1524.378766 26.472873 
L 1526.279259 29.857315 
L 1528.179753 33.28362 
L 1530.080246 36.74287 
L 1531.98074 40.220221 
L 1533.881233 43.71053 
L 1535.781727 47.205662 
L 1537.68222 50.705673 
L 1539.582714 54.248949 
L 1541.483207 57.864988 
L 1543.383701 61.548256 
L 1545.284194 65.288827 
L 1547.184688 69.07507 
L 1549.085181 72.890974 
L 1550.985675 76.720359 
L 1552.886168 80.535982 
L 1554.786662 84.307424 
L 1556.687155 88.043908 
L 1558.587649 91.752426 
L 1560.488142 95.442828 
L 1562.388636 99.103485 
L 1564.289129 102.710443 
L 1566.189623 106.256966 
L 1568.090116 109.748409 
L 1569.99061 113.196634 
L 1571.891103 116.59905 
L 1573.791597 119.965776 
L 1575.69209 123.312593 
L 1577.592584 126.639082 
L 1579.493077 129.957709 
L 1581.393571 133.28571 
L 1583.294064 136.623355 
L 1585.194558 139.991617 
L 1587.095052 143.414911 
L 1588.995545 146.891767 
L 1590.896039 150.40225 
L 1592.796532 153.913927 
L 1594.697026 157.428473 
L 1596.597519 160.984871 
L 1598.498013 164.612541 
L 1600.398506 168.306438 
L 1602.299 172.055274 
L 1604.199493 175.846414 
L 1606.099987 179.664688 
L 1608.00048 183.493839 
L 1609.900974 187.310193 
L 1611.801467 191.10267 
L 1613.701961 194.864193 
L 1615.602454 198.591298 
L 1617.502948 202.276447 
L 1619.403441 205.912132 
L 1621.303935 209.489113 
L 1623.204428 213.017494 
L 1625.104922 216.514869 
L 1627.005415 219.97993 
L 1628.905909 223.409726 
L 1630.806402 226.801141 
L 1632.706896 230.150065 
L 1634.607389 233.47165 
L 1636.507883 236.788133 
L 1638.408376 240.09892 
L 1640.30887 243.39264 
L 1642.209363 246.651306 
L 1644.109857 249.870697 
L 1646.01035 253.085664 
L 1647.910844 256.339888 
L 1649.811337 259.634538 
L 1651.711831 262.989911 
L 1653.612324 266.42911 
L 1655.512818 269.947385 
L 1657.413311 273.534288 
L 1659.313805 277.177924 
L 1661.214298 280.872632 
L 1663.114792 284.600264 
L 1665.015285 288.324339 
L 1666.915779 292.047699 
L 1668.816272 295.781905 
L 1670.716766 299.536993 
L 1672.617259 303.312342 
L 1674.517753 307.101513 
L 1676.418246 310.894096 
L 1678.31874 314.688119 
L 1680.219233 318.471872 
L 1682.119727 322.192019 
" clip-path="url(#pbe77a9831e)" style="fill: none; stroke: #0000ff; stroke-width: 0.5; stroke-linecap: square"/>
   </g>
   <g id="line2d_37">
    <path d="M 1457.622295 272.892938 
L 1457.626096 272.892938 
L 1457.664105 272.888874 
L 1457.861493 272.865653 
L 1459.761986 272.642075 
L 1461.66248 272.418496 
L 1463.562973 251.425175 
L 1465.463467 228.348928 
L 1467.36396 227.467067 
L 1469.264454 228.811004 
L 1471.164947 230.15494 
L 1473.065441 230.568388 
L 1474.965934 230.88852 
L 1476.866428 231.208652 
L 1478.766921 229.739023 
L 1480.667415 228.089904 
L 1482.567909 227.157744 
L 1484.468402 226.297485 
L 1486.368896 224.053468 
L 1488.269389 221.670678 
L 1490.169883 219.287888 
L 1492.070376 435.665048 
L 1493.97087 433.3802 
L 1495.871363 431.105175 
L 1497.771857 428.83015 
L 1499.67235 428.248342 
L 1501.572844 427.83634 
L 1503.473337 426.282782 
L 1505.373831 424.614741 
L 1507.274324 423.719399 
L 1509.174818 422.901549 
L 1511.075311 421.929444 
L 1512.975805 420.94187 
L 1514.876298 420.435009 
L 1516.776792 419.976358 
L 1518.677285 419.959542 
L 1520.577779 419.987037 
L 1522.478272 420.046267 
L 1524.378766 420.108681 
L 1526.279259 421.084792 
L 1528.179753 422.152534 
L 1530.080246 422.78643 
L 1531.98074 423.376816 
L 1533.881233 423.705676 
L 1535.781727 424.008307 
L 1537.68222 424.310939 
L 1539.582714 426.317606 
L 1541.483207 428.495165 
L 1543.383701 430.672724 
L 1545.284194 433.036808 
L 1547.184688 435.419598 
L 1549.085181 219.042438 
L 1550.985675 222.066549 
L 1552.886168 225.154975 
L 1554.786662 228.243401 
L 1556.687155 228.971013 
L 1558.587649 229.461867 
L 1560.488142 229.952721 
L 1562.388636 231.20507 
L 1564.289129 232.533787 
L 1566.189623 233.862503 
L 1568.090116 234.577369 
L 1569.99061 235.230675 
L 1571.891103 235.88398 
L 1573.791597 235.994443 
L 1575.69209 236.050466 
L 1577.592584 236.106489 
L 1579.493077 235.642527 
L 1581.393571 235.126418 
L 1583.294064 234.61031 
L 1585.194558 233.257508 
L 1587.095052 231.820798 
L 1588.995545 230.384088 
L 1590.896039 229.915677 
L 1592.796532 229.544374 
L 1594.697026 229.17307 
L 1596.597519 227.047109 
L 1598.498013 224.74518 
L 1600.398506 222.443251 
L 1602.299 220.067832 
L 1604.199493 436.444991 
L 1606.099987 434.062201 
L 1608.00048 431.25661 
L 1609.900974 428.408618 
L 1611.801467 426.977989 
L 1613.701961 425.689502 
L 1615.602454 424.401014 
L 1617.502948 423.173586 
L 1619.403441 421.952281 
L 1621.303935 420.730975 
L 1623.204428 420.433948 
L 1625.104922 420.229614 
L 1627.005415 420.025279 
L 1628.905909 419.83874 
L 1630.806402 419.653985 
L 1632.706896 419.46923 
L 1634.607389 420.028082 
L 1636.507883 420.661507 
L 1638.408376 421.294932 
L 1640.30887 421.543867 
L 1642.209363 421.754242 
L 1644.109857 421.964618 
L 1646.01035 423.510405 
L 1647.910844 425.190115 
L 1649.811337 426.869826 
L 1651.711831 429.41607 
L 1653.612324 432.049215 
L 1655.512818 434.68236 
L 1657.413311 218.32802 
L 1659.313805 220.71081 
L 1661.214298 223.093599 
L 1663.114792 224.00827 
L 1665.015285 224.775708 
L 1666.915779 225.543146 
L 1668.816272 227.320041 
L 1670.716766 229.198171 
L 1672.617259 231.076301 
L 1674.517753 232.33989 
L 1676.418246 233.54185 
L 1678.31874 234.74381 
L 1680.219233 235.026477 
L 1682.119727 235.216951 
" clip-path="url(#pbe77a9831e)" style="fill: none; stroke: #ff0000; stroke-width: 0.5; stroke-linecap: square"/>
   </g>
   <g id="patch_9">
    <path d="M 1457.622295 633.9424 
L 1457.622295 21.168 
" style="fill: none; stroke: #000000; stroke-width: 0.8; stroke-linejoin: miter; stroke-linecap: square"/>
   </g>
   <g id="patch_10">
    <path d="M 2597.9184 633.9424 
L 2597.9184 21.168 
" style="fill: none; stroke: #000000; stroke-width: 0.8; stroke-linejoin: miter; stroke-linecap: square"/>
   </g>
   <g id="patch_11">
    <path d="M 1457.622295 633.9424 
L 2597.9184 633.9424 
" style="fill: none; stroke: #000000; stroke-width: 0.8; stroke-linejoin: miter; stroke-linecap: square"/>
   </g>
   <g id="patch_12">
    <path d="M 1457.622295 21.168 
L 2597.9184 21.168 
" style="fill: none; stroke: #000000; stroke-width: 0.8; stroke-linejoin: miter; stroke-linecap: square"/>
   </g>
   <g id="legend_1">
    <g id="patch_13">
     <path d="M 2503.4184 58.946125 
L 2590.9184 58.946125 
Q 2592.9184 58.946125 2592.9184 56.946125 
L 2592.9184 28.168 
Q 2592.9184 26.168 2590.9184 26.168 
L 2503.4184 26.168 
Q 2501.4184 26.168 2501.4184 28.168 
L 2501.4184 56.946125 
Q 2501.4184 58.946125 2503.4184 58.946125 
z
" style="fill: #ffffff; opacity: 0.8; stroke: #cccccc; stroke-linejoin: miter"/>
    </g>
    <g id="line2d_38">
     <path d="M 2505.4184 34.368 
L 2515.4184 34.368 
L 2525.4184 34.368 
" style="fill: none; stroke: #0000ff; stroke-width: 0.5; stroke-linecap: square"/>
    </g>
    <g id="text_37">
     <!-- $\Vert(x,y)\Vert$ [m] -->
     <g transform="translate(2533.4184 37.868) scale(0.1 -0.1)">
      <defs>
       <path id="DejaVuSans-2016" d="M 1344 4891 
L 1344 -1509 
L 813 -1509 
L 813 4891 
L 1344 4891 
z
M 2376 4891 
L 2376 -1509 
L 1845 -1509 
L 1845 4891 
L 2376 4891 
z
" transform="scale(0.015625)"/>
       <path id="DejaVuSans-28" d="M 1984 4856 
Q 1566 4138 1362 3434 
Q 1159 2731 1159 2009 
Q 1159 1288 1364 580 
Q 1569 -128 1984 -844 
L 1484 -844 
Q 1016 -109 783 600 
Q 550 1309 550 2009 
Q 550 2706 781 3412 
Q 1013 4119 1484 4856 
L 1984 4856 
z
" transform="scale(0.015625)"/>
       <path id="DejaVuSans-Oblique-78" d="M 3841 3500 
L 2234 1784 
L 3219 0 
L 2559 0 
L 1819 1388 
L 531 0 
L -166 0 
L 1556 1844 
L 641 3500 
L 1300 3500 
L 1972 2234 
L 3144 3500 
L 3841 3500 
z
" transform="scale(0.015625)"/>
       <path id="DejaVuSans-Oblique-79" d="M 1588 -325 
Q 1188 -997 936 -1164 
Q 684 -1331 294 -1331 
L -159 -1331 
L -63 -850 
L 269 -850 
Q 509 -850 678 -719 
Q 847 -588 1056 -206 
L 1234 128 
L 459 3500 
L 1069 3500 
L 1650 819 
L 3256 3500 
L 3859 3500 
L 1588 -325 
z
" transform="scale(0.015625)"/>
       <path id="DejaVuSans-29" d="M 513 4856 
L 1013 4856 
Q 1481 4119 1714 3412 
Q 1947 2706 1947 2009 
Q 1947 1309 1714 600 
Q 1481 -109 1013 -844 
L 513 -844 
Q 928 -128 1133 580 
Q 1338 1288 1338 2009 
Q 1338 2731 1133 3434 
Q 928 4138 513 4856 
z
" transform="scale(0.015625)"/>
      </defs>
      <use xlink:href="#DejaVuSans-2016" transform="translate(0 0.578125)"/>
      <use xlink:href="#DejaVuSans-28" transform="translate(50 0.578125)"/>
      <use xlink:href="#DejaVuSans-Oblique-78" transform="translate(89.013672 0.578125)"/>
      <use xlink:href="#DejaVuSans-2c" transform="translate(148.193359 0.578125)"/>
      <use xlink:href="#DejaVuSans-Oblique-79" transform="translate(199.462891 0.578125)"/>
      <use xlink:href="#DejaVuSans-29" transform="translate(258.642578 0.578125)"/>
      <use xlink:href="#DejaVuSans-2016" transform="translate(297.65625 0.578125)"/>
      <use xlink:href="#DejaVuSans-20" transform="translate(347.65625 0.578125)"/>
      <use xlink:href="#DejaVuSans-5b" transform="translate(379.443359 0.578125)"/>
      <use xlink:href="#DejaVuSans-6d" transform="translate(418.457031 0.578125)"/>
      <use xlink:href="#DejaVuSans-5d" transform="translate(515.869141 0.578125)"/>
     </g>
    </g>
    <g id="line2d_39">
     <path d="M 2505.4184 49.366438 
L 2515.4184 49.366438 
L 2525.4184 49.366438 
" style="fill: none; stroke: #ff0000; stroke-width: 0.5; stroke-linecap: square"/>
    </g>
    <g id="text_38">
     <!-- $\alpha$ [rad] -->
     <g transform="translate(2533.4184 52.866438) scale(0.1 -0.1)">
      <defs>
       <path id="DejaVuSans-Oblique-3b1" d="M 2619 1628 
L 2622 2350 
Q 2625 3088 2069 3091 
Q 1653 3094 1394 2747 
Q 1069 2319 959 1747 
Q 825 1059 994 731 
Q 1169 397 1547 397 
Q 1966 397 2319 1063 
L 2619 1628 
z
M 2166 3578 
Q 3141 3594 3128 2584 
Q 3128 2584 3616 3500 
L 4128 3500 
L 3119 1603 
L 3109 919 
Q 3109 766 3194 638 
Q 3291 488 3391 488 
L 3669 488 
L 3575 0 
L 3228 0 
Q 2934 0 2722 263 
Q 2622 394 2619 669 
Q 2416 334 2066 50 
Q 1900 -81 1453 -78 
Q 722 -72 456 397 
Q 184 884 353 1747 
Q 534 2675 1009 3097 
Q 1544 3569 2166 3578 
z
" transform="scale(0.015625)"/>
      </defs>
      <use xlink:href="#DejaVuSans-Oblique-3b1" transform="translate(0 0.015625)"/>
      <use xlink:href="#DejaVuSans-20" transform="translate(65.917969 0.015625)"/>
      <use xlink:href="#DejaVuSans-5b" transform="translate(97.705078 0.015625)"/>
      <use xlink:href="#DejaVuSans-72" transform="translate(136.71875 0.015625)"/>
      <use xlink:href="#DejaVuSans-61" transform="translate(177.832031 0.015625)"/>
      <use xlink:href="#DejaVuSans-64" transform="translate(239.111328 0.015625)"/>
      <use xlink:href="#DejaVuSans-5d" transform="translate(302.587891 0.015625)"/>
     </g>
    </g>
   </g>
  </g>
  <g id="axes_3">
   <g id="patch_14">
    <path d="M 172.0488 1328.9584 
L 1312.344905 1328.9584 
L 1312.344905 716.184 
L 172.0488 716.184 
z
" style="fill: #ffffff"/>
   </g>
   <g id="matplotlib.axis_5">
    <g id="xtick_17">
     <g id="line2d_40">
      <g>
       <use xlink:href="#m5e6487b7b3" x="172.0488" y="1328.9584" style="stroke: #000000; stroke-width: 0.8"/>
      </g>
     </g>
     <g id="text_39">
      <!-- 0 -->
      <g transform="translate(168.86755 1343.556838) scale(0.1 -0.1)">
       <use xlink:href="#DejaVuSans-30"/>
      </g>
     </g>
    </g>
    <g id="xtick_18">
     <g id="line2d_41">
      <g>
       <use xlink:href="#m5e6487b7b3" x="362.098151" y="1328.9584" style="stroke: #000000; stroke-width: 0.8"/>
      </g>
     </g>
     <g id="text_40">
      <!-- 5 -->
      <g transform="translate(358.916901 1343.556838) scale(0.1 -0.1)">
       <use xlink:href="#DejaVuSans-35"/>
      </g>
     </g>
    </g>
    <g id="xtick_19">
     <g id="line2d_42">
      <g>
       <use xlink:href="#m5e6487b7b3" x="552.147502" y="1328.9584" style="stroke: #000000; stroke-width: 0.8"/>
      </g>
     </g>
     <g id="text_41">
      <!-- 10 -->
      <g transform="translate(545.785002 1343.556838) scale(0.1 -0.1)">
       <use xlink:href="#DejaVuSans-31"/>
       <use xlink:href="#DejaVuSans-30" x="63.623047"/>
      </g>
     </g>
    </g>
    <g id="xtick_20">
     <g id="line2d_43">
      <g>
       <use xlink:href="#m5e6487b7b3" x="742.196853" y="1328.9584" style="stroke: #000000; stroke-width: 0.8"/>
      </g>
     </g>
     <g id="text_42">
      <!-- 15 -->
      <g transform="translate(735.834353 1343.556838) scale(0.1 -0.1)">
       <use xlink:href="#DejaVuSans-31"/>
       <use xlink:href="#DejaVuSans-35" x="63.623047"/>
      </g>
     </g>
    </g>
    <g id="xtick_21">
     <g id="line2d_44">
      <g>
       <use xlink:href="#m5e6487b7b3" x="932.246204" y="1328.9584" style="stroke: #000000; stroke-width: 0.8"/>
      </g>
     </g>
     <g id="text_43">
      <!-- 20 -->
      <g transform="translate(925.883704 1343.556838) scale(0.1 -0.1)">
       <use xlink:href="#DejaVuSans-32"/>
       <use xlink:href="#DejaVuSans-30" x="63.623047"/>
      </g>
     </g>
    </g>
    <g id="xtick_22">
     <g id="line2d_45">
      <g>
       <use xlink:href="#m5e6487b7b3" x="1122.295555" y="1328.9584" style="stroke: #000000; stroke-width: 0.8"/>
      </g>
     </g>
     <g id="text_44">
      <!-- 25 -->
      <g transform="translate(1115.933055 1343.556838) scale(0.1 -0.1)">
       <use xlink:href="#DejaVuSans-32"/>
       <use xlink:href="#DejaVuSans-35" x="63.623047"/>
      </g>
     </g>
    </g>
    <g id="xtick_23">
     <g id="line2d_46">
      <g>
       <use xlink:href="#m5e6487b7b3" x="1312.344905" y="1328.9584" style="stroke: #000000; stroke-width: 0.8"/>
      </g>
     </g>
     <g id="text_45">
      <!-- 30 -->
      <g transform="translate(1305.982405 1343.556838) scale(0.1 -0.1)">
       <use xlink:href="#DejaVuSans-33"/>
       <use xlink:href="#DejaVuSans-30" x="63.623047"/>
      </g>
     </g>
    </g>
    <g id="text_46">
     <!-- t [s] -->
     <g transform="translate(732.141384 1357.234963) scale(0.1 -0.1)">
      <use xlink:href="#DejaVuSans-74"/>
      <use xlink:href="#DejaVuSans-20" x="39.208984"/>
      <use xlink:href="#DejaVuSans-5b" x="70.996094"/>
      <use xlink:href="#DejaVuSans-73" x="110.009766"/>
      <use xlink:href="#DejaVuSans-5d" x="162.109375"/>
     </g>
    </g>
   </g>
   <g id="matplotlib.axis_6">
    <g id="ytick_15">
     <g id="line2d_47">
      <g>
       <use xlink:href="#md1adcfb027" x="172.0488" y="1328.9584" style="stroke: #000000; stroke-width: 0.8"/>
      </g>
     </g>
     <g id="text_47">
      <!-- $\mathdefault{0}$ -->
      <g transform="translate(158.6488 1332.757619) scale(0.1 -0.1)">
       <use xlink:href="#DejaVuSans-30" transform="translate(0 0.78125)"/>
      </g>
     </g>
    </g>
    <g id="ytick_16">
     <g id="line2d_48">
      <g>
       <use xlink:href="#md1adcfb027" x="172.0488" y="1258.18408" style="stroke: #000000; stroke-width: 0.8"/>
      </g>
     </g>
     <g id="text_48">
      <!-- $\mathdefault{10^{0}}$ -->
      <g transform="translate(147.4488 1261.983298) scale(0.1 -0.1)">
       <use xlink:href="#DejaVuSans-31" transform="translate(0 0.765625)"/>
       <use xlink:href="#DejaVuSans-30" transform="translate(63.623047 0.765625)"/>
       <use xlink:href="#DejaVuSans-30" transform="translate(128.203125 39.046875) scale(0.7)"/>
      </g>
     </g>
    </g>
    <g id="ytick_17">
     <g id="line2d_49">
      <g>
       <use xlink:href="#md1adcfb027" x="172.0488" y="1098.36533" style="stroke: #000000; stroke-width: 0.8"/>
      </g>
     </g>
     <g id="text_49">
      <!-- $\mathdefault{10^{1}}$ -->
      <g transform="translate(147.4488 1102.164549) scale(0.1 -0.1)">
       <use xlink:href="#DejaVuSans-31" transform="translate(0 0.684375)"/>
       <use xlink:href="#DejaVuSans-30" transform="translate(63.623047 0.684375)"/>
       <use xlink:href="#DejaVuSans-31" transform="translate(128.203125 38.965625) scale(0.7)"/>
      </g>
     </g>
    </g>
    <g id="ytick_18">
     <g id="line2d_50">
      <g>
       <use xlink:href="#md1adcfb027" x="172.0488" y="970.971554" style="stroke: #000000; stroke-width: 0.8"/>
      </g>
     </g>
     <g id="text_50">
      <!-- $\mathdefault{10^{2}}$ -->
      <g transform="translate(147.4488 974.770772) scale(0.1 -0.1)">
       <use xlink:href="#DejaVuSans-31" transform="translate(0 0.765625)"/>
       <use xlink:href="#DejaVuSans-30" transform="translate(63.623047 0.765625)"/>
       <use xlink:href="#DejaVuSans-32" transform="translate(128.203125 39.046875) scale(0.7)"/>
      </g>
     </g>
    </g>
    <g id="ytick_19">
     <g id="line2d_51">
      <g>
       <use xlink:href="#md1adcfb027" x="172.0488" y="843.577777" style="stroke: #000000; stroke-width: 0.8"/>
      </g>
     </g>
     <g id="text_51">
      <!-- $\mathdefault{10^{3}}$ -->
      <g transform="translate(147.4488 847.376996) scale(0.1 -0.1)">
       <use xlink:href="#DejaVuSans-31" transform="translate(0 0.765625)"/>
       <use xlink:href="#DejaVuSans-30" transform="translate(63.623047 0.765625)"/>
       <use xlink:href="#DejaVuSans-33" transform="translate(128.203125 39.046875) scale(0.7)"/>
      </g>
     </g>
    </g>
    <g id="ytick_20">
     <g id="line2d_52">
      <g>
       <use xlink:href="#md1adcfb027" x="172.0488" y="716.184" style="stroke: #000000; stroke-width: 0.8"/>
      </g>
     </g>
     <g id="text_52">
      <!-- $\mathdefault{10^{4}}$ -->
      <g transform="translate(147.4488 719.983219) scale(0.1 -0.1)">
       <use xlink:href="#DejaVuSans-31" transform="translate(0 0.684375)"/>
       <use xlink:href="#DejaVuSans-30" transform="translate(63.623047 0.684375)"/>
       <use xlink:href="#DejaVuSans-34" transform="translate(128.203125 38.965625) scale(0.7)"/>
      </g>
     </g>
    </g>
   </g>
   <g id="line2d_53">
    <path d="M 172.0488 1258.18408 
L 172.052601 1258.18408 
L 172.090611 1258.18408 
L 172.287998 1258.18408 
L 174.188492 1258.18408 
L 176.088985 1258.18408 
L 177.989479 1258.18408 
L 179.889972 1258.18408 
L 181.790466 1258.18408 
L 183.690959 1258.18408 
L 185.591453 1258.18408 
L 187.491946 1258.18408 
L 189.39244 1258.18408 
L 191.292933 1258.18408 
L 193.193427 1258.18408 
L 195.09392 1258.18408 
L 196.994414 1258.18408 
L 198.894907 1258.18408 
L 200.795401 1258.18408 
L 202.695894 1258.18408 
L 204.596388 1258.18408 
L 206.496882 1258.18408 
L 208.397375 1258.18408 
L 210.297869 1258.18408 
L 212.198362 1258.18408 
L 214.098856 1258.18408 
L 215.999349 1258.18408 
L 217.899843 1258.18408 
L 219.800336 1258.18408 
L 221.70083 1258.18408 
L 223.601323 1258.18408 
L 225.501817 1258.18408 
L 227.40231 1258.18408 
L 229.302804 1258.18408 
L 231.203297 1258.18408 
L 233.103791 1258.18408 
L 235.004284 1258.18408 
L 236.904778 1258.18408 
L 238.805271 1258.18408 
L 240.705765 1258.18408 
L 242.606258 1258.18408 
L 244.506752 1258.18408 
L 246.407245 1258.18408 
L 248.307739 1258.18408 
L 250.208232 1258.18408 
L 252.108726 1258.18408 
L 254.009219 1258.18408 
L 255.909713 1258.18408 
L 257.810206 1258.18408 
L 259.7107 1258.18408 
L 261.611193 1258.18408 
L 263.511687 1258.18408 
L 265.41218 1258.18408 
L 267.312674 1258.18408 
L 269.213167 1258.18408 
L 271.113661 1258.18408 
L 273.014154 1258.18408 
L 274.914648 1258.18408 
L 276.815141 1258.18408 
L 278.715635 1258.18408 
L 280.616128 1258.18408 
L 282.516622 1258.18408 
L 284.417115 1258.18408 
L 286.317609 1258.18408 
L 288.218102 1258.18408 
L 290.118596 1258.18408 
L 292.019089 1258.18408 
L 293.919583 1258.18408 
L 295.820076 1258.18408 
L 297.72057 1258.18408 
L 299.621063 1258.18408 
L 301.521557 1258.18408 
L 303.42205 1258.18408 
L 305.322544 1258.18408 
L 307.223037 1258.18408 
L 309.123531 1258.18408 
L 311.024025 1258.18408 
L 312.924518 1258.18408 
L 314.825012 1258.18408 
L 316.725505 1258.18408 
L 318.625999 1258.18408 
L 320.526492 1258.18408 
L 322.426986 1258.18408 
L 324.327479 1258.18408 
L 326.227973 1258.18408 
L 328.128466 1258.18408 
L 330.02896 1258.18408 
L 331.929453 1258.18408 
L 333.829947 1258.18408 
L 335.73044 1258.18408 
L 337.630934 1258.18408 
L 339.531427 1258.18408 
L 341.431921 1258.18408 
L 343.332414 1258.18408 
L 345.232908 1258.18408 
L 347.133401 1258.18408 
L 349.033895 1258.18408 
L 350.934388 1258.18408 
L 352.834882 1258.18408 
L 354.735375 1258.18408 
L 356.635869 1258.18408 
L 358.536362 1258.18408 
L 360.436856 1258.18408 
L 362.337349 1258.18408 
L 364.237843 1258.18408 
L 366.138336 1258.18408 
L 368.03883 1258.18408 
L 369.939323 1258.18408 
L 371.839817 1258.18408 
L 373.74031 1258.18408 
L 375.640804 1258.18408 
L 377.541297 1258.18408 
L 379.441791 1258.18408 
L 381.342284 1258.18408 
L 383.242778 1258.18408 
L 385.143271 1258.18408 
L 387.043765 1258.18408 
L 388.944258 1258.18408 
L 390.844752 1258.18408 
L 392.745245 1258.18408 
L 394.645739 1258.18408 
L 396.546232 1258.18408 
" clip-path="url(#pffa399ef83)" style="fill: none; stroke: #ff0000; stroke-width: 0.5; stroke-linecap: square"/>
   </g>
   <g id="line2d_54">
    <path d="M 172.0488 1328.9584 
L 172.052601 1321.880968 
L 172.090611 1314.803536 
L 172.287998 1307.726104 
L 174.188492 1300.648672 
L 176.088985 1293.57124 
L 177.989479 1286.493808 
L 179.889972 1279.416376 
L 181.790466 1272.338944 
L 183.690959 1265.261512 
L 185.591453 1258.18408 
L 187.491946 1251.106648 
L 189.39244 1244.029215 
L 191.292933 1236.951783 
L 193.193427 1229.874351 
L 195.09392 1222.796919 
L 196.994414 1215.719487 
L 198.894907 1208.642055 
L 200.795401 1201.564623 
L 202.695894 1194.487191 
L 204.596388 1187.409759 
L 206.496882 1184.710374 
L 208.397375 1182.136589 
L 210.297869 1179.677232 
L 212.198362 1177.322561 
L 214.098856 1175.064027 
L 215.999349 1172.894085 
L 217.899843 1170.806048 
L 219.800336 1168.793957 
L 221.70083 1166.85248 
L 223.601323 1164.976829 
L 225.501817 1163.162685 
L 227.40231 1161.406144 
L 229.302804 1159.703658 
L 231.203297 1158.052001 
L 233.103791 1156.448224 
L 235.004284 1154.889631 
L 236.904778 1153.373744 
L 238.805271 1151.898285 
L 240.705765 1150.461155 
L 242.606258 1149.060411 
L 244.506752 1147.694257 
L 246.407245 1146.361026 
L 248.307739 1145.059168 
L 250.208232 1143.787241 
L 252.108726 1142.543898 
L 254.009219 1141.327884 
L 255.909713 1140.138023 
L 257.810206 1138.973213 
L 259.7107 1137.832422 
L 261.611193 1136.714678 
L 263.511687 1135.61907 
L 265.41218 1134.544737 
L 267.312674 1133.490869 
L 269.213167 1132.4567 
L 271.113661 1131.441508 
L 273.014154 1130.444609 
L 274.914648 1129.465355 
L 276.815141 1128.503132 
L 278.715635 1127.557358 
L 280.616128 1126.62748 
L 282.516622 1125.712973 
L 284.417115 1124.813337 
L 286.317609 1123.928096 
L 288.218102 1123.056796 
L 290.118596 1122.199004 
L 292.019089 1121.35431 
L 293.919583 1120.522318 
L 295.820076 1119.702653 
L 297.72057 1118.894953 
L 299.621063 1118.098876 
L 301.521557 1117.314091 
L 303.42205 1116.540282 
L 305.322544 1115.777147 
L 307.223037 1115.024396 
L 309.123531 1114.281748 
L 311.024025 1113.548937 
L 312.924518 1112.825706 
L 314.825012 1112.111806 
L 316.725505 1111.407002 
L 318.625999 1110.711063 
L 320.526492 1110.023769 
L 322.426986 1109.344909 
L 324.327479 1108.674278 
L 326.227973 1108.011678 
L 328.128466 1107.35692 
L 330.02896 1106.70982 
L 331.929453 1106.070201 
L 333.829947 1105.437892 
L 335.73044 1104.812729 
L 337.630934 1104.19455 
L 339.531427 1103.583202 
L 341.431921 1102.978536 
L 343.332414 1102.380407 
L 345.232908 1101.788675 
L 347.133401 1101.203204 
L 349.033895 1100.623865 
L 350.934388 1100.050529 
L 352.834882 1099.483074 
L 354.735375 1098.921379 
L 356.635869 1098.36533 
L 358.536362 1097.814814 
L 360.436856 1097.269722 
L 362.337349 1096.729948 
L 364.237843 1096.195389 
L 366.138336 1095.665946 
L 368.03883 1095.141521 
L 369.939323 1094.62202 
L 371.839817 1094.107352 
L 373.74031 1093.597427 
L 375.640804 1093.09216 
L 377.541297 1092.591465 
L 379.441791 1092.095261 
L 381.342284 1091.603467 
L 383.242778 1091.116006 
L 385.143271 1090.632803 
L 387.043765 1090.153784 
L 388.944258 1089.678876 
L 390.844752 1089.20801 
L 392.745245 1088.741118 
L 394.645739 1088.278132 
L 396.546232 1087.818989 
" clip-path="url(#pffa399ef83)" style="fill: none; stroke: #008000; stroke-width: 0.5; stroke-linecap: square"/>
   </g>
   <g id="patch_15">
    <path d="M 172.0488 1328.9584 
L 172.0488 716.184 
" style="fill: none; stroke: #000000; stroke-width: 0.8; stroke-linejoin: miter; stroke-linecap: square"/>
   </g>
   <g id="patch_16">
    <path d="M 1312.344905 1328.9584 
L 1312.344905 716.184 
" style="fill: none; stroke: #000000; stroke-width: 0.8; stroke-linejoin: miter; stroke-linecap: square"/>
   </g>
   <g id="patch_17">
    <path d="M 172.0488 1328.9584 
L 1312.344905 1328.9584 
" style="fill: none; stroke: #000000; stroke-width: 0.8; stroke-linejoin: miter; stroke-linecap: square"/>
   </g>
   <g id="patch_18">
    <path d="M 172.0488 716.184 
L 1312.344905 716.184 
" style="fill: none; stroke: #000000; stroke-width: 0.8; stroke-linejoin: miter; stroke-linecap: square"/>
   </g>
   <g id="legend_2">
    <g id="patch_19">
     <path d="M 1207.244905 757.762125 
L 1305.344905 757.762125 
Q 1307.344905 757.762125 1307.344905 755.762125 
L 1307.344905 723.184 
Q 1307.344905 721.184 1305.344905 721.184 
L 1207.244905 721.184 
Q 1205.244905 721.184 1205.244905 723.184 
L 1205.244905 755.762125 
Q 1205.244905 757.762125 1207.244905 757.762125 
z
" style="fill: #ffffff; opacity: 0.8; stroke: #cccccc; stroke-linejoin: miter"/>
    </g>
    <g id="line2d_55">
     <path d="M 1209.244905 729.282438 
L 1219.244905 729.282438 
L 1229.244905 729.282438 
" style="fill: none; stroke: #ff0000; stroke-width: 0.5; stroke-linecap: square"/>
    </g>
    <g id="text_53">
     <!-- Run. obj. -->
     <g transform="translate(1237.244905 732.782438) scale(0.1 -0.1)">
      <defs>
       <path id="DejaVuSans-52" d="M 2841 2188 
Q 3044 2119 3236 1894 
Q 3428 1669 3622 1275 
L 4263 0 
L 3584 0 
L 2988 1197 
Q 2756 1666 2539 1819 
Q 2322 1972 1947 1972 
L 1259 1972 
L 1259 0 
L 628 0 
L 628 4666 
L 2053 4666 
Q 2853 4666 3247 4331 
Q 3641 3997 3641 3322 
Q 3641 2881 3436 2590 
Q 3231 2300 2841 2188 
z
M 1259 4147 
L 1259 2491 
L 2053 2491 
Q 2509 2491 2742 2702 
Q 2975 2913 2975 3322 
Q 2975 3731 2742 3939 
Q 2509 4147 2053 4147 
L 1259 4147 
z
" transform="scale(0.015625)"/>
       <path id="DejaVuSans-6e" d="M 3513 2113 
L 3513 0 
L 2938 0 
L 2938 2094 
Q 2938 2591 2744 2837 
Q 2550 3084 2163 3084 
Q 1697 3084 1428 2787 
Q 1159 2491 1159 1978 
L 1159 0 
L 581 0 
L 581 3500 
L 1159 3500 
L 1159 2956 
Q 1366 3272 1645 3428 
Q 1925 3584 2291 3584 
Q 2894 3584 3203 3211 
Q 3513 2838 3513 2113 
z
" transform="scale(0.015625)"/>
       <path id="DejaVuSans-62" d="M 3116 1747 
Q 3116 2381 2855 2742 
Q 2594 3103 2138 3103 
Q 1681 3103 1420 2742 
Q 1159 2381 1159 1747 
Q 1159 1113 1420 752 
Q 1681 391 2138 391 
Q 2594 391 2855 752 
Q 3116 1113 3116 1747 
z
M 1159 2969 
Q 1341 3281 1617 3432 
Q 1894 3584 2278 3584 
Q 2916 3584 3314 3078 
Q 3713 2572 3713 1747 
Q 3713 922 3314 415 
Q 2916 -91 2278 -91 
Q 1894 -91 1617 61 
Q 1341 213 1159 525 
L 1159 0 
L 581 0 
L 581 4863 
L 1159 4863 
L 1159 2969 
z
" transform="scale(0.015625)"/>
       <path id="DejaVuSans-6a" d="M 603 3500 
L 1178 3500 
L 1178 -63 
Q 1178 -731 923 -1031 
Q 669 -1331 103 -1331 
L -116 -1331 
L -116 -844 
L 38 -844 
Q 366 -844 484 -692 
Q 603 -541 603 -63 
L 603 3500 
z
M 603 4863 
L 1178 4863 
L 1178 4134 
L 603 4134 
L 603 4863 
z
" transform="scale(0.015625)"/>
      </defs>
      <use xlink:href="#DejaVuSans-52"/>
      <use xlink:href="#DejaVuSans-75" x="64.982422"/>
      <use xlink:href="#DejaVuSans-6e" x="128.361328"/>
      <use xlink:href="#DejaVuSans-2e" x="191.740234"/>
      <use xlink:href="#DejaVuSans-20" x="223.527344"/>
      <use xlink:href="#DejaVuSans-6f" x="255.314453"/>
      <use xlink:href="#DejaVuSans-62" x="316.496094"/>
      <use xlink:href="#DejaVuSans-6a" x="379.972656"/>
      <use xlink:href="#DejaVuSans-2e" x="407.755859"/>
     </g>
    </g>
    <g id="line2d_56">
     <path d="M 1209.244905 747.162125 
L 1219.244905 747.162125 
L 1229.244905 747.162125 
" style="fill: none; stroke: #008000; stroke-width: 0.5; stroke-linecap: square"/>
    </g>
    <g id="text_54">
     <!-- $\int \mathrm{Run.\,obj.} \,\mathrm{d}t$ -->
     <g transform="translate(1237.244905 750.662125) scale(0.1 -0.1)">
      <defs>
       <path id="DejaVuSansDisplay-222b" d="M 2134 5525 
Q 2172 6263 2528 6556 
Q 2884 6850 3218 6850 
Q 3553 6850 3833 6575 
Q 4113 6300 4200 5678 
L 3544 5613 
Q 3469 6188 3219 6188 
Q 2906 6188 2869 5413 
L 2581 -597 
Q 2547 -1334 2187 -1628 
Q 1828 -1922 1497 -1922 
Q 1163 -1922 883 -1647 
Q 603 -1372 516 -750 
L 1172 -684 
Q 1247 -1259 1497 -1259 
Q 1809 -1259 1847 -488 
L 2134 5525 
z
" transform="scale(0.015625)"/>
       <path id="DejaVuSans-Oblique-74" d="M 2706 3500 
L 2619 3053 
L 1472 3053 
L 1100 1153 
Q 1081 1047 1072 975 
Q 1063 903 1063 863 
Q 1063 663 1183 572 
Q 1303 481 1569 481 
L 2150 481 
L 2053 0 
L 1503 0 
Q 991 0 739 200 
Q 488 400 488 806 
Q 488 878 497 964 
Q 506 1050 525 1153 
L 897 3053 
L 409 3053 
L 500 3500 
L 978 3500 
L 1172 4494 
L 1747 4494 
L 1556 3500 
L 2706 3500 
z
" transform="scale(0.015625)"/>
      </defs>
      <use xlink:href="#DejaVuSansDisplay-222b" transform="translate(0 0.96875)"/>
      <use xlink:href="#DejaVuSans-52" transform="translate(73.632812 0.96875)"/>
      <use xlink:href="#DejaVuSans-75" transform="translate(143.115234 0.96875)"/>
      <use xlink:href="#DejaVuSans-6e" transform="translate(206.494141 0.96875)"/>
      <use xlink:href="#DejaVuSans-2e" transform="translate(269.873047 0.96875)"/>
      <use xlink:href="#DejaVuSans-6f" transform="translate(337.378254 0.96875)"/>
      <use xlink:href="#DejaVuSans-62" transform="translate(398.559895 0.96875)"/>
      <use xlink:href="#DejaVuSans-6a" transform="translate(462.036458 0.96875)"/>
      <use xlink:href="#DejaVuSans-2e" transform="translate(489.819661 0.96875)"/>
      <use xlink:href="#DejaVuSans-64" transform="translate(557.324868 0.96875)"/>
      <use xlink:href="#DejaVuSans-Oblique-74" transform="translate(620.801431 0.96875)"/>
     </g>
    </g>
   </g>
  </g>
  <g id="axes_4">
   <g id="patch_20">
    <path d="M 1457.622295 1328.9584 
L 2597.9184 1328.9584 
L 2597.9184 716.184 
L 1457.622295 716.184 
z
" style="fill: #ffffff"/>
   </g>
   <g id="matplotlib.axis_7">
    <g id="xtick_24">
     <g id="line2d_57">
      <g>
       <use xlink:href="#m5e6487b7b3" x="1457.622295" y="1328.9584" style="stroke: #000000; stroke-width: 0.8"/>
      </g>
     </g>
     <g id="text_55">
      <!-- 0 -->
      <g transform="translate(1454.441045 1343.556838) scale(0.1 -0.1)">
       <use xlink:href="#DejaVuSans-30"/>
      </g>
     </g>
    </g>
    <g id="xtick_25">
     <g id="line2d_58">
      <g>
       <use xlink:href="#m5e6487b7b3" x="1647.671645" y="1328.9584" style="stroke: #000000; stroke-width: 0.8"/>
      </g>
     </g>
     <g id="text_56">
      <!-- 5 -->
      <g transform="translate(1644.490395 1343.556838) scale(0.1 -0.1)">
       <use xlink:href="#DejaVuSans-35"/>
      </g>
     </g>
    </g>
    <g id="xtick_26">
     <g id="line2d_59">
      <g>
       <use xlink:href="#m5e6487b7b3" x="1837.720996" y="1328.9584" style="stroke: #000000; stroke-width: 0.8"/>
      </g>
     </g>
     <g id="text_57">
      <!-- 10 -->
      <g transform="translate(1831.358496 1343.556838) scale(0.1 -0.1)">
       <use xlink:href="#DejaVuSans-31"/>
       <use xlink:href="#DejaVuSans-30" x="63.623047"/>
      </g>
     </g>
    </g>
    <g id="xtick_27">
     <g id="line2d_60">
      <g>
       <use xlink:href="#m5e6487b7b3" x="2027.770347" y="1328.9584" style="stroke: #000000; stroke-width: 0.8"/>
      </g>
     </g>
     <g id="text_58">
      <!-- 15 -->
      <g transform="translate(2021.407847 1343.556838) scale(0.1 -0.1)">
       <use xlink:href="#DejaVuSans-31"/>
       <use xlink:href="#DejaVuSans-35" x="63.623047"/>
      </g>
     </g>
    </g>
    <g id="xtick_28">
     <g id="line2d_61">
      <g>
       <use xlink:href="#m5e6487b7b3" x="2217.819698" y="1328.9584" style="stroke: #000000; stroke-width: 0.8"/>
      </g>
     </g>
     <g id="text_59">
      <!-- 20 -->
      <g transform="translate(2211.457198 1343.556838) scale(0.1 -0.1)">
       <use xlink:href="#DejaVuSans-32"/>
       <use xlink:href="#DejaVuSans-30" x="63.623047"/>
      </g>
     </g>
    </g>
    <g id="xtick_29">
     <g id="line2d_62">
      <g>
       <use xlink:href="#m5e6487b7b3" x="2407.869049" y="1328.9584" style="stroke: #000000; stroke-width: 0.8"/>
      </g>
     </g>
     <g id="text_60">
      <!-- 25 -->
      <g transform="translate(2401.506549 1343.556838) scale(0.1 -0.1)">
       <use xlink:href="#DejaVuSans-32"/>
       <use xlink:href="#DejaVuSans-35" x="63.623047"/>
      </g>
     </g>
    </g>
    <g id="xtick_30">
     <g id="line2d_63">
      <g>
       <use xlink:href="#m5e6487b7b3" x="2597.9184" y="1328.9584" style="stroke: #000000; stroke-width: 0.8"/>
      </g>
     </g>
     <g id="text_61">
      <!-- 30 -->
      <g transform="translate(2591.5559 1343.556838) scale(0.1 -0.1)">
       <use xlink:href="#DejaVuSans-33"/>
       <use xlink:href="#DejaVuSans-30" x="63.623047"/>
      </g>
     </g>
    </g>
    <g id="text_62">
     <!-- t [s] -->
     <g transform="translate(2017.714879 1357.234963) scale(0.1 -0.1)">
      <use xlink:href="#DejaVuSans-74"/>
      <use xlink:href="#DejaVuSans-20" x="39.208984"/>
      <use xlink:href="#DejaVuSans-5b" x="70.996094"/>
      <use xlink:href="#DejaVuSans-73" x="110.009766"/>
      <use xlink:href="#DejaVuSans-5d" x="162.109375"/>
     </g>
    </g>
   </g>
   <g id="matplotlib.axis_8">
    <g id="ytick_21">
     <g id="line2d_64">
      <g>
       <use xlink:href="#md1adcfb027" x="1457.622295" y="1316.797064" style="stroke: #000000; stroke-width: 0.8"/>
      </g>
     </g>
     <g id="text_63">
      <!-- −3 -->
      <g transform="translate(1435.880107 1320.596283) scale(0.1 -0.1)">
       <use xlink:href="#DejaVuSans-2212"/>
       <use xlink:href="#DejaVuSans-33" x="83.789062"/>
      </g>
     </g>
    </g>
    <g id="ytick_22">
     <g id="line2d_65">
      <g>
       <use xlink:href="#md1adcfb027" x="1457.622295" y="1218.721776" style="stroke: #000000; stroke-width: 0.8"/>
      </g>
     </g>
     <g id="text_64">
      <!-- −2 -->
      <g transform="translate(1435.880107 1222.520995) scale(0.1 -0.1)">
       <use xlink:href="#DejaVuSans-2212"/>
       <use xlink:href="#DejaVuSans-32" x="83.789062"/>
      </g>
     </g>
    </g>
    <g id="ytick_23">
     <g id="line2d_66">
      <g>
       <use xlink:href="#md1adcfb027" x="1457.622295" y="1120.646488" style="stroke: #000000; stroke-width: 0.8"/>
      </g>
     </g>
     <g id="text_65">
      <!-- −1 -->
      <g transform="translate(1435.880107 1124.445707) scale(0.1 -0.1)">
       <use xlink:href="#DejaVuSans-2212"/>
       <use xlink:href="#DejaVuSans-31" x="83.789062"/>
      </g>
     </g>
    </g>
    <g id="ytick_24">
     <g id="line2d_67">
      <g>
       <use xlink:href="#md1adcfb027" x="1457.622295" y="1022.5712" style="stroke: #000000; stroke-width: 0.8"/>
      </g>
     </g>
     <g id="text_66">
      <!-- 0 -->
      <g transform="translate(1444.259795 1026.370419) scale(0.1 -0.1)">
       <use xlink:href="#DejaVuSans-30"/>
      </g>
     </g>
    </g>
    <g id="ytick_25">
     <g id="line2d_68">
      <g>
       <use xlink:href="#md1adcfb027" x="1457.622295" y="924.495912" style="stroke: #000000; stroke-width: 0.8"/>
      </g>
     </g>
     <g id="text_67">
      <!-- 1 -->
      <g transform="translate(1444.259795 928.295131) scale(0.1 -0.1)">
       <use xlink:href="#DejaVuSans-31"/>
      </g>
     </g>
    </g>
    <g id="ytick_26">
     <g id="line2d_69">
      <g>
       <use xlink:href="#md1adcfb027" x="1457.622295" y="826.420624" style="stroke: #000000; stroke-width: 0.8"/>
      </g>
     </g>
     <g id="text_68">
      <!-- 2 -->
      <g transform="translate(1444.259795 830.219843) scale(0.1 -0.1)">
       <use xlink:href="#DejaVuSans-32"/>
      </g>
     </g>
    </g>
    <g id="ytick_27">
     <g id="line2d_70">
      <g>
       <use xlink:href="#md1adcfb027" x="1457.622295" y="728.345336" style="stroke: #000000; stroke-width: 0.8"/>
      </g>
     </g>
     <g id="text_69">
      <!-- 3 -->
      <g transform="translate(1444.259795 732.144554) scale(0.1 -0.1)">
       <use xlink:href="#DejaVuSans-33"/>
      </g>
     </g>
    </g>
   </g>
   <g id="line2d_71">
    <path d="M 1457.622295 1022.5712 
L 2597.9184 1022.5712 
" clip-path="url(#p81cc55e7a8)" style="fill: none; stroke-dasharray: 2.775,1.2; stroke-dashoffset: 0; stroke: #000000; stroke-width: 0.75"/>
   </g>
   <g id="line2d_72">
    <path d="M 1457.622295 1022.5712 
L 1457.626096 1044.147763 
L 1457.664105 1044.147763 
L 1457.861493 1044.147763 
L 1459.761986 1044.147763 
L 1461.66248 728.345336 
L 1463.562973 806.805566 
L 1465.463467 728.345336 
L 1467.36396 806.805566 
L 1469.264454 806.805566 
L 1471.164947 728.345336 
L 1473.065441 806.805566 
L 1474.965934 806.805566 
L 1476.866428 728.345336 
L 1478.766921 806.805566 
L 1480.667415 728.345336 
L 1482.567909 806.805566 
L 1484.468402 728.345336 
L 1486.368896 806.805566 
L 1488.269389 728.345336 
L 1490.169883 806.805566 
L 1492.070376 728.345336 
L 1493.97087 806.805566 
L 1495.871363 806.805566 
L 1497.771857 728.345336 
L 1499.67235 806.805566 
L 1501.572844 728.345336 
L 1503.473337 806.805566 
L 1505.373831 728.345336 
L 1507.274324 806.805566 
L 1509.174818 728.345336 
L 1511.075311 806.805566 
L 1512.975805 728.345336 
L 1514.876298 806.805566 
L 1516.776792 728.345336 
L 1518.677285 806.805566 
L 1520.577779 728.345336 
L 1522.478272 806.805566 
L 1524.378766 728.345336 
L 1526.279259 806.805566 
L 1528.179753 728.345336 
L 1530.080246 806.805566 
L 1531.98074 728.345336 
L 1533.881233 806.805566 
L 1535.781727 806.805566 
L 1537.68222 728.345336 
L 1539.582714 806.805566 
L 1541.483207 806.805566 
L 1543.383701 728.345336 
L 1545.284194 806.805566 
L 1547.184688 806.805566 
L 1549.085181 728.345336 
L 1550.985675 806.805566 
L 1552.886168 806.805566 
L 1554.786662 728.345336 
L 1556.687155 806.805566 
L 1558.587649 806.805566 
L 1560.488142 728.345336 
L 1562.388636 806.805566 
L 1564.289129 806.805566 
L 1566.189623 728.345336 
L 1568.090116 806.805566 
L 1569.99061 806.805566 
L 1571.891103 728.345336 
L 1573.791597 806.805566 
L 1575.69209 806.805566 
L 1577.592584 728.345336 
L 1579.493077 806.805566 
L 1581.393571 806.805566 
L 1583.294064 728.345336 
L 1585.194558 806.805566 
L 1587.095052 806.805566 
L 1588.995545 728.345336 
L 1590.896039 806.805566 
L 1592.796532 806.805566 
L 1594.697026 728.345336 
L 1596.597519 806.805566 
L 1598.498013 806.805566 
L 1600.398506 728.345336 
L 1602.299 806.805566 
L 1604.199493 806.805566 
L 1606.099987 728.345336 
L 1608.00048 806.805566 
L 1609.900974 728.345336 
L 1611.801467 806.805566 
L 1613.701961 806.805566 
L 1615.602454 728.345336 
L 1617.502948 806.805566 
L 1619.403441 806.805566 
L 1621.303935 728.345336 
L 1623.204428 806.805566 
L 1625.104922 806.805566 
L 1627.005415 728.345336 
L 1628.905909 806.805566 
L 1630.806402 806.805566 
L 1632.706896 728.345336 
L 1634.607389 806.805566 
L 1636.507883 806.805566 
L 1638.408376 728.345336 
L 1640.30887 806.805566 
L 1642.209363 806.805566 
L 1644.109857 728.345336 
L 1646.01035 806.805566 
L 1647.910844 806.805566 
L 1649.811337 728.345336 
L 1651.711831 806.805566 
L 1653.612324 806.805566 
L 1655.512818 728.345336 
L 1657.413311 806.805566 
L 1659.313805 806.805566 
L 1661.214298 728.345336 
L 1663.114792 806.805566 
L 1665.015285 806.805566 
L 1666.915779 728.345336 
L 1668.816272 806.805566 
L 1670.716766 806.805566 
L 1672.617259 728.345336 
L 1674.517753 806.805566 
L 1676.418246 806.805566 
L 1678.31874 728.345336 
L 1680.219233 806.805566 
L 1682.119727 806.805566 
" clip-path="url(#p81cc55e7a8)" style="fill: none; stroke: #1f77b4; stroke-width: 0.5; stroke-linecap: square"/>
   </g>
   <g id="line2d_73">
    <path d="M 1457.622295 1022.5712 
L 1457.626096 1050.424582 
L 1457.664105 1050.424582 
L 1457.861493 1050.424582 
L 1459.761986 1050.424582 
L 1461.66248 1208.059288 
L 1463.562973 1208.059288 
L 1465.463467 1039.605706 
L 1467.36396 1039.605706 
L 1469.264454 1039.605706 
L 1471.164947 1026.667819 
L 1473.065441 1026.667819 
L 1474.965934 1026.667819 
L 1476.866428 1001.7732 
L 1478.766921 1001.7732 
L 1480.667415 1011.60233 
L 1482.567909 1011.60233 
L 1484.468402 1330.683805 
L 1486.368896 1301.105018 
L 1488.269389 1330.683805 
L 1490.169883 1301.105018 
L 1492.070376 994.255467 
L 1493.97087 994.255467 
L 1495.871363 994.255467 
L 1497.771857 1017.300968 
L 1499.67235 1017.300968 
L 1501.572844 1001.541772 
L 1503.473337 1001.541772 
L 1505.373831 1012.138884 
L 1507.274324 1012.138884 
L 1509.174818 1009.995581 
L 1511.075311 1009.995581 
L 1512.975805 1016.705586 
L 1514.876298 1016.705586 
L 1516.776792 1022.92324 
L 1518.677285 1022.92324 
L 1520.577779 1023.370332 
L 1522.478272 1023.370332 
L 1524.378766 1036.155143 
L 1526.279259 1036.155143 
L 1528.179753 1030.11565 
L 1530.080246 1030.11565 
L 1531.98074 1026.444111 
L 1533.881233 1026.444111 
L 1535.781727 1026.444111 
L 1537.68222 1049.736189 
L 1539.582714 1049.736189 
L 1541.483207 1049.736189 
L 1543.383701 714.458595 
L 1545.284194 744.037382 
L 1547.184688 744.037382 
L 1549.085181 1060.160203 
L 1550.985675 1060.160203 
L 1552.886168 1060.160203 
L 1554.786662 1028.84756 
L 1556.687155 1028.84756 
L 1558.587649 1028.84756 
L 1560.488142 1039.416583 
L 1562.388636 1039.416583 
L 1564.289129 1039.416583 
L 1566.189623 1030.91599 
L 1568.090116 1030.91599 
L 1569.99061 1030.91599 
L 1571.891103 1023.28851 
L 1573.791597 1023.28851 
L 1575.69209 1023.28851 
L 1577.592584 1015.972866 
L 1579.493077 1015.972866 
L 1581.393571 1015.972866 
L 1583.294064 1004.386712 
L 1585.194558 1004.386712 
L 1587.095052 1004.386712 
L 1588.995545 1017.820712 
L 1590.896039 1017.820712 
L 1592.796532 1017.820712 
L 1594.697026 993.939216 
L 1596.597519 993.939216 
L 1598.498013 993.939216 
L 1600.398506 1330.683805 
L 1602.299 1301.105018 
L 1604.199493 1301.105018 
L 1606.099987 987.658717 
L 1608.00048 987.658717 
L 1609.900974 1006.226308 
L 1611.801467 1006.226308 
L 1613.701961 1006.226308 
L 1615.602454 1007.064023 
L 1617.502948 1007.064023 
L 1619.403441 1007.064023 
L 1621.303935 1019.955502 
L 1623.204428 1019.955502 
L 1625.104922 1019.955502 
L 1627.005415 1020.20604 
L 1628.905909 1020.20604 
L 1630.806402 1020.20604 
L 1632.706896 1030.663224 
L 1634.607389 1030.663224 
L 1636.507883 1030.663224 
L 1638.408376 1025.264193 
L 1640.30887 1025.264193 
L 1642.209363 1025.264193 
L 1644.109857 1043.743242 
L 1646.01035 1043.743242 
L 1647.910844 1043.743242 
L 1649.811337 1055.045035 
L 1651.711831 1055.045035 
L 1653.612324 1055.045035 
L 1655.512818 714.458595 
L 1657.413311 744.037382 
L 1659.313805 744.037382 
L 1661.214298 1032.364869 
L 1663.114792 1032.364869 
L 1665.015285 1032.364869 
L 1666.915779 1046.153697 
L 1668.816272 1046.153697 
L 1670.716766 1046.153697 
L 1672.617259 1037.836724 
L 1674.517753 1037.836724 
L 1676.418246 1037.836724 
L 1678.31874 1025.00955 
L 1680.219233 1025.00955 
L 1682.119727 1025.00955 
" clip-path="url(#p81cc55e7a8)" style="fill: none; stroke: #ff7f0e; stroke-width: 0.5; stroke-linecap: square"/>
   </g>
   <g id="patch_21">
    <path d="M 1457.622295 1328.9584 
L 1457.622295 716.184 
" style="fill: none; stroke: #000000; stroke-width: 0.8; stroke-linejoin: miter; stroke-linecap: square"/>
   </g>
   <g id="patch_22">
    <path d="M 2597.9184 1328.9584 
L 2597.9184 716.184 
" style="fill: none; stroke: #000000; stroke-width: 0.8; stroke-linejoin: miter; stroke-linecap: square"/>
   </g>
   <g id="patch_23">
    <path d="M 1457.622295 1328.9584 
L 2597.9184 1328.9584 
" style="fill: none; stroke: #000000; stroke-width: 0.8; stroke-linejoin: miter; stroke-linecap: square"/>
   </g>
   <g id="patch_24">
    <path d="M 1457.622295 716.184 
L 2597.9184 716.184 
" style="fill: none; stroke: #000000; stroke-width: 0.8; stroke-linejoin: miter; stroke-linecap: square"/>
   </g>
   <g id="legend_3">
    <g id="patch_25">
     <path d="M 2514.3184 753.54025 
L 2590.9184 753.54025 
Q 2592.9184 753.54025 2592.9184 751.54025 
L 2592.9184 723.184 
Q 2592.9184 721.184 2590.9184 721.184 
L 2514.3184 721.184 
Q 2512.3184 721.184 2512.3184 723.184 
L 2512.3184 751.54025 
Q 2512.3184 753.54025 2514.3184 753.54025 
z
" style="fill: #ffffff; opacity: 0.8; stroke: #cccccc; stroke-linejoin: miter"/>
    </g>
    <g id="line2d_74">
     <path d="M 2516.3184 729.282438 
L 2526.3184 729.282438 
L 2536.3184 729.282438 
" style="fill: none; stroke: #1f77b4; stroke-width: 0.5; stroke-linecap: square"/>
    </g>
    <g id="text_70">
     <!-- v [m/s] -->
     <g transform="translate(2544.3184 732.782438) scale(0.1 -0.1)">
      <defs>
       <path id="DejaVuSans-76" d="M 191 3500 
L 800 3500 
L 1894 563 
L 2988 3500 
L 3597 3500 
L 2284 0 
L 1503 0 
L 191 3500 
z
" transform="scale(0.015625)"/>
       <path id="DejaVuSans-2f" d="M 1625 4666 
L 2156 4666 
L 531 -594 
L 0 -594 
L 1625 4666 
z
" transform="scale(0.015625)"/>
      </defs>
      <use xlink:href="#DejaVuSans-76"/>
      <use xlink:href="#DejaVuSans-20" x="59.179688"/>
      <use xlink:href="#DejaVuSans-5b" x="90.966797"/>
      <use xlink:href="#DejaVuSans-6d" x="129.980469"/>
      <use xlink:href="#DejaVuSans-2f" x="227.392578"/>
      <use xlink:href="#DejaVuSans-73" x="261.083984"/>
      <use xlink:href="#DejaVuSans-5d" x="313.183594"/>
     </g>
    </g>
    <g id="line2d_75">
     <path d="M 2516.3184 743.960563 
L 2526.3184 743.960563 
L 2536.3184 743.960563 
" style="fill: none; stroke: #ff7f0e; stroke-width: 0.5; stroke-linecap: square"/>
    </g>
    <g id="text_71">
     <!-- $\omega$ [rad/s] -->
     <g transform="translate(2544.3184 747.460563) scale(0.1 -0.1)">
      <defs>
       <path id="DejaVuSans-Oblique-3c9" d="M 1369 -91 
Q 72 -91 434 1766 
Q 575 2500 1256 3500 
L 1875 3500 
Q 1231 2500 1088 1750 
Q 819 397 1519 397 
Q 2166 397 2478 2078 
L 3009 2078 
Q 2669 388 3316 397 
Q 4013 403 4275 1750 
Q 4419 2500 4169 3500 
L 4788 3500 
Q 5075 2500 4934 1766 
Q 4578 -94 3278 -91 
Q 2428 -88 2503 844 
Q 2194 -91 1369 -91 
z
" transform="scale(0.015625)"/>
      </defs>
      <use xlink:href="#DejaVuSans-Oblique-3c9" transform="translate(0 0.015625)"/>
      <use xlink:href="#DejaVuSans-20" transform="translate(83.740234 0.015625)"/>
      <use xlink:href="#DejaVuSans-5b" transform="translate(115.527344 0.015625)"/>
      <use xlink:href="#DejaVuSans-72" transform="translate(154.541016 0.015625)"/>
      <use xlink:href="#DejaVuSans-61" transform="translate(195.654297 0.015625)"/>
      <use xlink:href="#DejaVuSans-64" transform="translate(256.933594 0.015625)"/>
      <use xlink:href="#DejaVuSans-2f" transform="translate(320.410156 0.015625)"/>
      <use xlink:href="#DejaVuSans-73" transform="translate(354.101562 0.015625)"/>
      <use xlink:href="#DejaVuSans-5d" transform="translate(406.201172 0.015625)"/>
     </g>
    </g>
   </g>
  </g>
  <g id="text_72">
   <!-- $\int \mathrm{Run.\,obj.} \,\mathrm{d}t$ = 12.1 -->
   <g transform="translate(133.056 709.45) scale(0.1 -0.1)">
    <use xlink:href="#DejaVuSansDisplay-222b" transform="translate(0 0.96875)"/>
    <use xlink:href="#DejaVuSans-52" transform="translate(73.632812 0.96875)"/>
    <use xlink:href="#DejaVuSans-75" transform="translate(143.115234 0.96875)"/>
    <use xlink:href="#DejaVuSans-6e" transform="translate(206.494141 0.96875)"/>
    <use xlink:href="#DejaVuSans-2e" transform="translate(269.873047 0.96875)"/>
    <use xlink:href="#DejaVuSans-6f" transform="translate(337.378254 0.96875)"/>
    <use xlink:href="#DejaVuSans-62" transform="translate(398.559895 0.96875)"/>
    <use xlink:href="#DejaVuSans-6a" transform="translate(462.036458 0.96875)"/>
    <use xlink:href="#DejaVuSans-2e" transform="translate(489.819661 0.96875)"/>
    <use xlink:href="#DejaVuSans-64" transform="translate(557.324868 0.96875)"/>
    <use xlink:href="#DejaVuSans-Oblique-74" transform="translate(620.801431 0.96875)"/>
    <use xlink:href="#DejaVuSans-20" transform="translate(660.010415 0.96875)"/>
    <use xlink:href="#DejaVuSans-3d" transform="translate(691.797524 0.96875)"/>
    <use xlink:href="#DejaVuSans-20" transform="translate(775.586587 0.96875)"/>
    <use xlink:href="#DejaVuSans-31" transform="translate(807.373696 0.96875)"/>
    <use xlink:href="#DejaVuSans-32" transform="translate(870.996743 0.96875)"/>
    <use xlink:href="#DejaVuSans-2e" transform="translate(934.61979 0.96875)"/>
    <use xlink:href="#DejaVuSans-31" transform="translate(966.406899 0.96875)"/>
   </g>
  </g>
 </g>
 <defs>
  <clipPath id="p794ec2d349">
   <rect x="172.0488" y="166.041279" width="1140.296105" height="323.027842"/>
  </clipPath>
  <clipPath id="pbe77a9831e">
   <rect x="1457.622295" y="21.168" width="1140.296105" height="612.7744"/>
  </clipPath>
  <clipPath id="pffa399ef83">
   <rect x="172.0488" y="716.184" width="1140.296105" height="612.7744"/>
  </clipPath>
  <clipPath id="p81cc55e7a8">
   <rect x="1457.622295" y="716.184" width="1140.296105" height="612.7744"/>
  </clipPath>
 </defs>
</svg>
