<?xml version="1.0" encoding="utf-8" standalone="no"?>
<!DOCTYPE svg PUBLIC "-//W3C//DTD SVG 1.1//EN"
  "http://www.w3.org/Graphics/SVG/1.1/DTD/svg11.dtd">
<svg xmlns:xlink="http://www.w3.org/1999/xlink" width="2661.12pt" height="1411.2pt" viewBox="0 0 2661.12 1411.2" xmlns="http://www.w3.org/2000/svg" version="1.1">
 <metadata>
  <rdf:RDF xmlns:dc="http://purl.org/dc/elements/1.1/" xmlns:cc="http://creativecommons.org/ns#" xmlns:rdf="http://www.w3.org/1999/02/22-rdf-syntax-ns#">
   <cc:Work>
    <dc:type rdf:resource="http://purl.org/dc/dcmitype/StillImage"/>
    <dc:date>2024-07-10T20:54:12.553465</dc:date>
    <dc:format>image/svg+xml</dc:format>
    <dc:creator>
     <cc:Agent>
      <dc:title>Matplotlib v3.7.5, https://matplotlib.org/</dc:title>
     </cc:Agent>
    </dc:creator>
   </cc:Work>
  </rdf:RDF>
 </metadata>
 <defs>
  <style type="text/css">*{stroke-linejoin: round; stroke-linecap: butt}</style>
 </defs>
 <g id="figure_1">
  <g id="patch_1">
   <path d="M 0 1411.2 
L 2661.12 1411.2 
L 2661.12 0 
L 0 0 
z
" style="fill: #ffffff"/>
  </g>
  <g id="axes_1">
   <g id="patch_2">
    <path d="M 172.0488 487.755684 
L 1312.344905 487.755684 
L 1312.344905 167.354716 
L 172.0488 167.354716 
z
" style="fill: #ffffff"/>
   </g>
   <g id="patch_3">
    <path d="M 481.954012 228.022112 
C 485.376107 228.022112 488.658503 226.662499 491.07829 224.242712 
C 493.498077 221.822925 494.85769 218.540529 494.85769 215.118433 
C 494.85769 211.696338 493.498077 208.413942 491.07829 205.994155 
C 488.658503 203.574368 485.376107 202.214755 481.954012 202.214755 
C 478.531916 202.214755 475.24952 203.574368 472.829733 205.994155 
C 470.409946 208.413942 469.050333 211.696338 469.050333 215.118433 
C 469.050333 218.540529 470.409946 221.822925 472.829733 224.242712 
C 475.24952 226.662499 478.531916 228.022112 481.954012 228.022112 
z
" clip-path="url(#p079f7e74a2)" style="fill: #bfbf00; stroke: #bfbf00; stroke-width: 2; stroke-linejoin: miter"/>
   </g>
   <g id="PathCollection_1">
    <defs>
     <path id="m6acb9bbea7" d="M 0 3 
C 0.795609 3 1.55874 2.683901 2.12132 2.12132 
C 2.683901 1.55874 3 0.795609 3 0 
C 3 -0.795609 2.683901 -1.55874 2.12132 -2.12132 
C 1.55874 -2.683901 0.795609 -3 0 -3 
C -0.795609 -3 -1.55874 -2.683901 -2.12132 -2.12132 
C -2.683901 -1.55874 -3 -0.795609 -3 0 
C -3 0.795609 -2.683901 1.55874 -2.12132 2.12132 
C -1.55874 2.683901 -0.795609 3 0 3 
z
" style="stroke: #ff3b30"/>
    </defs>
    <g clip-path="url(#p079f7e74a2)">
     <use xlink:href="#m6acb9bbea7" x="1256.174723" y="215.118433" style="fill: #ff3b30; stroke: #ff3b30"/>
     <use xlink:href="#m6acb9bbea7" x="1227.499882" y="200.640533" style="fill: #ff3b30; stroke: #ff3b30"/>
     <use xlink:href="#m6acb9bbea7" x="1198.825041" y="189.242584" style="fill: #ff3b30; stroke: #ff3b30"/>
     <use xlink:href="#m6acb9bbea7" x="1170.1502" y="183.349327" style="fill: #ff3b30; stroke: #ff3b30"/>
     <use xlink:href="#m6acb9bbea7" x="1141.475359" y="184.214462" style="fill: #ff3b30; stroke: #ff3b30"/>
     <use xlink:href="#m6acb9bbea7" x="1112.800518" y="191.653944" style="fill: #ff3b30; stroke: #ff3b30"/>
     <use xlink:href="#m6acb9bbea7" x="1084.125676" y="204.085138" style="fill: #ff3b30; stroke: #ff3b30"/>
     <use xlink:href="#m6acb9bbea7" x="1055.450835" y="218.863497" style="fill: #ff3b30; stroke: #ff3b30"/>
     <use xlink:href="#m6acb9bbea7" x="1026.775994" y="232.845151" style="fill: #ff3b30; stroke: #ff3b30"/>
     <use xlink:href="#m6acb9bbea7" x="998.101153" y="243.055717" style="fill: #ff3b30; stroke: #ff3b30"/>
     <use xlink:href="#m6acb9bbea7" x="969.426312" y="247.323052" style="fill: #ff3b30; stroke: #ff3b30"/>
     <use xlink:href="#m6acb9bbea7" x="940.751471" y="244.739347" style="fill: #ff3b30; stroke: #ff3b30"/>
     <use xlink:href="#m6acb9bbea7" x="912.076629" y="235.854245" style="fill: #ff3b30; stroke: #ff3b30"/>
     <use xlink:href="#m6acb9bbea7" x="883.401788" y="222.557916" style="fill: #ff3b30; stroke: #ff3b30"/>
     <use xlink:href="#m6acb9bbea7" x="854.726947" y="207.678951" style="fill: #ff3b30; stroke: #ff3b30"/>
     <use xlink:href="#m6acb9bbea7" x="826.052106" y="194.382622" style="fill: #ff3b30; stroke: #ff3b30"/>
     <use xlink:href="#m6acb9bbea7" x="797.377265" y="185.49752" style="fill: #ff3b30; stroke: #ff3b30"/>
     <use xlink:href="#m6acb9bbea7" x="768.702423" y="182.913815" style="fill: #ff3b30; stroke: #ff3b30"/>
     <use xlink:href="#m6acb9bbea7" x="740.027582" y="187.18115" style="fill: #ff3b30; stroke: #ff3b30"/>
     <use xlink:href="#m6acb9bbea7" x="711.352741" y="197.391715" style="fill: #ff3b30; stroke: #ff3b30"/>
     <use xlink:href="#m6acb9bbea7" x="682.6779" y="211.373369" style="fill: #ff3b30; stroke: #ff3b30"/>
     <use xlink:href="#m6acb9bbea7" x="654.003059" y="226.151728" style="fill: #ff3b30; stroke: #ff3b30"/>
     <use xlink:href="#m6acb9bbea7" x="625.328218" y="238.582922" style="fill: #ff3b30; stroke: #ff3b30"/>
     <use xlink:href="#m6acb9bbea7" x="596.653376" y="246.022405" style="fill: #ff3b30; stroke: #ff3b30"/>
     <use xlink:href="#m6acb9bbea7" x="567.978535" y="246.88754" style="fill: #ff3b30; stroke: #ff3b30"/>
     <use xlink:href="#m6acb9bbea7" x="539.303694" y="240.994283" style="fill: #ff3b30; stroke: #ff3b30"/>
     <use xlink:href="#m6acb9bbea7" x="510.628853" y="229.596334" style="fill: #ff3b30; stroke: #ff3b30"/>
     <use xlink:href="#m6acb9bbea7" x="481.954012" y="215.118433" style="fill: #ff3b30; stroke: #ff3b30"/>
    </g>
   </g>
   <g id="PathCollection_2">
    <defs>
     <path id="mddb7ac8dbf" d="M 9.598061 3.172548 
L 4.032351 0.372669 
L 3.554091 1.323374 
L 1.840906 0.461541 
L 3.845579 -3.523454 
L 0.032088 -5.441877 
L 0.78129 -6.93117 
L 3.097624 -5.765905 
L 4.523524 -8.600367 
L -1.042191 -11.400261 
L -2.468097 -8.565789 
L -0.151768 -7.40054 
L -0.90097 -5.911246 
L -4.714466 -7.829659 
L -9.193479 1.073901 
L -5.379988 2.992324 
L -6.125156 4.473599 
L -8.441485 3.308349 
L -9.867656 6.143349 
L -4.301945 8.943228 
L -2.875764 6.108233 
L -5.192103 4.942979 
L -4.44693 3.461694 
L -0.633434 5.380106 
L 1.37125 1.395116 
L 3.084455 2.256959 
L 2.606185 3.207658 
L 8.171906 6.007543 
L 9.598061 3.172548 
z
" style="stroke: #0000ff"/>
    </defs>
    <g clip-path="url(#p079f7e74a2)">
     <use xlink:href="#mddb7ac8dbf" x="492.955035" y="221.090093" style="fill: #0000ff; stroke: #0000ff"/>
    </g>
   </g>
   <g id="matplotlib.axis_1">
    <g id="xtick_1">
     <g id="line2d_1">
      <defs>
       <path id="mf78fa14f81" d="M 0 0 
L 0 3.5 
" style="stroke: #000000; stroke-width: 0.8"/>
      </defs>
      <g>
       <use xlink:href="#mf78fa14f81" x="223.880441" y="487.755684" style="stroke: #000000; stroke-width: 0.8"/>
      </g>
     </g>
     <g id="text_1">
      <!-- −4 -->
      <g transform="translate(216.509347 502.354122) scale(0.1 -0.1)">
       <defs>
        <path id="DejaVuSans-2212" d="M 678 2272 
L 4684 2272 
L 4684 1741 
L 678 1741 
L 678 2272 
z
" transform="scale(0.015625)"/>
        <path id="DejaVuSans-34" d="M 2419 4116 
L 825 1625 
L 2419 1625 
L 2419 4116 
z
M 2253 4666 
L 3047 4666 
L 3047 1625 
L 3713 1625 
L 3713 1100 
L 3047 1100 
L 3047 0 
L 2419 0 
L 2419 1100 
L 313 1100 
L 313 1709 
L 2253 4666 
z
" transform="scale(0.015625)"/>
       </defs>
       <use xlink:href="#DejaVuSans-2212"/>
       <use xlink:href="#DejaVuSans-34" x="83.789062"/>
      </g>
     </g>
    </g>
    <g id="xtick_2">
     <g id="line2d_2">
      <g>
       <use xlink:href="#mf78fa14f81" x="352.917226" y="487.755684" style="stroke: #000000; stroke-width: 0.8"/>
      </g>
     </g>
     <g id="text_2">
      <!-- −2 -->
      <g transform="translate(345.546133 502.354122) scale(0.1 -0.1)">
       <defs>
        <path id="DejaVuSans-32" d="M 1228 531 
L 3431 531 
L 3431 0 
L 469 0 
L 469 531 
Q 828 903 1448 1529 
Q 2069 2156 2228 2338 
Q 2531 2678 2651 2914 
Q 2772 3150 2772 3378 
Q 2772 3750 2511 3984 
Q 2250 4219 1831 4219 
Q 1534 4219 1204 4116 
Q 875 4013 500 3803 
L 500 4441 
Q 881 4594 1212 4672 
Q 1544 4750 1819 4750 
Q 2544 4750 2975 4387 
Q 3406 4025 3406 3419 
Q 3406 3131 3298 2873 
Q 3191 2616 2906 2266 
Q 2828 2175 2409 1742 
Q 1991 1309 1228 531 
z
" transform="scale(0.015625)"/>
       </defs>
       <use xlink:href="#DejaVuSans-2212"/>
       <use xlink:href="#DejaVuSans-32" x="83.789062"/>
      </g>
     </g>
    </g>
    <g id="xtick_3">
     <g id="line2d_3">
      <g>
       <use xlink:href="#mf78fa14f81" x="481.954012" y="487.755684" style="stroke: #000000; stroke-width: 0.8"/>
      </g>
     </g>
     <g id="text_3">
      <!-- 0 -->
      <g transform="translate(478.772762 502.354122) scale(0.1 -0.1)">
       <defs>
        <path id="DejaVuSans-30" d="M 2034 4250 
Q 1547 4250 1301 3770 
Q 1056 3291 1056 2328 
Q 1056 1369 1301 889 
Q 1547 409 2034 409 
Q 2525 409 2770 889 
Q 3016 1369 3016 2328 
Q 3016 3291 2770 3770 
Q 2525 4250 2034 4250 
z
M 2034 4750 
Q 2819 4750 3233 4129 
Q 3647 3509 3647 2328 
Q 3647 1150 3233 529 
Q 2819 -91 2034 -91 
Q 1250 -91 836 529 
Q 422 1150 422 2328 
Q 422 3509 836 4129 
Q 1250 4750 2034 4750 
z
" transform="scale(0.015625)"/>
       </defs>
       <use xlink:href="#DejaVuSans-30"/>
      </g>
     </g>
    </g>
    <g id="xtick_4">
     <g id="line2d_4">
      <g>
       <use xlink:href="#mf78fa14f81" x="610.990797" y="487.755684" style="stroke: #000000; stroke-width: 0.8"/>
      </g>
     </g>
     <g id="text_4">
      <!-- 2 -->
      <g transform="translate(607.809547 502.354122) scale(0.1 -0.1)">
       <use xlink:href="#DejaVuSans-32"/>
      </g>
     </g>
    </g>
    <g id="xtick_5">
     <g id="line2d_5">
      <g>
       <use xlink:href="#mf78fa14f81" x="740.027582" y="487.755684" style="stroke: #000000; stroke-width: 0.8"/>
      </g>
     </g>
     <g id="text_5">
      <!-- 4 -->
      <g transform="translate(736.846332 502.354122) scale(0.1 -0.1)">
       <use xlink:href="#DejaVuSans-34"/>
      </g>
     </g>
    </g>
    <g id="xtick_6">
     <g id="line2d_6">
      <g>
       <use xlink:href="#mf78fa14f81" x="869.064368" y="487.755684" style="stroke: #000000; stroke-width: 0.8"/>
      </g>
     </g>
     <g id="text_6">
      <!-- 6 -->
      <g transform="translate(865.883118 502.354122) scale(0.1 -0.1)">
       <defs>
        <path id="DejaVuSans-36" d="M 2113 2584 
Q 1688 2584 1439 2293 
Q 1191 2003 1191 1497 
Q 1191 994 1439 701 
Q 1688 409 2113 409 
Q 2538 409 2786 701 
Q 3034 994 3034 1497 
Q 3034 2003 2786 2293 
Q 2538 2584 2113 2584 
z
M 3366 4563 
L 3366 3988 
Q 3128 4100 2886 4159 
Q 2644 4219 2406 4219 
Q 1781 4219 1451 3797 
Q 1122 3375 1075 2522 
Q 1259 2794 1537 2939 
Q 1816 3084 2150 3084 
Q 2853 3084 3261 2657 
Q 3669 2231 3669 1497 
Q 3669 778 3244 343 
Q 2819 -91 2113 -91 
Q 1303 -91 875 529 
Q 447 1150 447 2328 
Q 447 3434 972 4092 
Q 1497 4750 2381 4750 
Q 2619 4750 2861 4703 
Q 3103 4656 3366 4563 
z
" transform="scale(0.015625)"/>
       </defs>
       <use xlink:href="#DejaVuSans-36"/>
      </g>
     </g>
    </g>
    <g id="xtick_7">
     <g id="line2d_7">
      <g>
       <use xlink:href="#mf78fa14f81" x="998.101153" y="487.755684" style="stroke: #000000; stroke-width: 0.8"/>
      </g>
     </g>
     <g id="text_7">
      <!-- 8 -->
      <g transform="translate(994.919903 502.354122) scale(0.1 -0.1)">
       <defs>
        <path id="DejaVuSans-38" d="M 2034 2216 
Q 1584 2216 1326 1975 
Q 1069 1734 1069 1313 
Q 1069 891 1326 650 
Q 1584 409 2034 409 
Q 2484 409 2743 651 
Q 3003 894 3003 1313 
Q 3003 1734 2745 1975 
Q 2488 2216 2034 2216 
z
M 1403 2484 
Q 997 2584 770 2862 
Q 544 3141 544 3541 
Q 544 4100 942 4425 
Q 1341 4750 2034 4750 
Q 2731 4750 3128 4425 
Q 3525 4100 3525 3541 
Q 3525 3141 3298 2862 
Q 3072 2584 2669 2484 
Q 3125 2378 3379 2068 
Q 3634 1759 3634 1313 
Q 3634 634 3220 271 
Q 2806 -91 2034 -91 
Q 1263 -91 848 271 
Q 434 634 434 1313 
Q 434 1759 690 2068 
Q 947 2378 1403 2484 
z
M 1172 3481 
Q 1172 3119 1398 2916 
Q 1625 2713 2034 2713 
Q 2441 2713 2670 2916 
Q 2900 3119 2900 3481 
Q 2900 3844 2670 4047 
Q 2441 4250 2034 4250 
Q 1625 4250 1398 4047 
Q 1172 3844 1172 3481 
z
" transform="scale(0.015625)"/>
       </defs>
       <use xlink:href="#DejaVuSans-38"/>
      </g>
     </g>
    </g>
    <g id="xtick_8">
     <g id="line2d_8">
      <g>
       <use xlink:href="#mf78fa14f81" x="1127.137938" y="487.755684" style="stroke: #000000; stroke-width: 0.8"/>
      </g>
     </g>
     <g id="text_8">
      <!-- 10 -->
      <g transform="translate(1120.775438 502.354122) scale(0.1 -0.1)">
       <defs>
        <path id="DejaVuSans-31" d="M 794 531 
L 1825 531 
L 1825 4091 
L 703 3866 
L 703 4441 
L 1819 4666 
L 2450 4666 
L 2450 531 
L 3481 531 
L 3481 0 
L 794 0 
L 794 531 
z
" transform="scale(0.015625)"/>
       </defs>
       <use xlink:href="#DejaVuSans-31"/>
       <use xlink:href="#DejaVuSans-30" x="63.623047"/>
      </g>
     </g>
    </g>
    <g id="xtick_9">
     <g id="line2d_9">
      <g>
       <use xlink:href="#mf78fa14f81" x="1256.174723" y="487.755684" style="stroke: #000000; stroke-width: 0.8"/>
      </g>
     </g>
     <g id="text_9">
      <!-- 12 -->
      <g transform="translate(1249.812223 502.354122) scale(0.1 -0.1)">
       <use xlink:href="#DejaVuSans-31"/>
       <use xlink:href="#DejaVuSans-32" x="63.623047"/>
      </g>
     </g>
    </g>
    <g id="text_10">
     <!-- x [m] -->
     <g transform="translate(728.87654 516.032247) scale(0.1 -0.1)">
      <defs>
       <path id="DejaVuSans-78" d="M 3513 3500 
L 2247 1797 
L 3578 0 
L 2900 0 
L 1881 1375 
L 863 0 
L 184 0 
L 1544 1831 
L 300 3500 
L 978 3500 
L 1906 2253 
L 2834 3500 
L 3513 3500 
z
" transform="scale(0.015625)"/>
       <path id="DejaVuSans-20" transform="scale(0.015625)"/>
       <path id="DejaVuSans-5b" d="M 550 4863 
L 1875 4863 
L 1875 4416 
L 1125 4416 
L 1125 -397 
L 1875 -397 
L 1875 -844 
L 550 -844 
L 550 4863 
z
" transform="scale(0.015625)"/>
       <path id="DejaVuSans-6d" d="M 3328 2828 
Q 3544 3216 3844 3400 
Q 4144 3584 4550 3584 
Q 5097 3584 5394 3201 
Q 5691 2819 5691 2113 
L 5691 0 
L 5113 0 
L 5113 2094 
Q 5113 2597 4934 2840 
Q 4756 3084 4391 3084 
Q 3944 3084 3684 2787 
Q 3425 2491 3425 1978 
L 3425 0 
L 2847 0 
L 2847 2094 
Q 2847 2600 2669 2842 
Q 2491 3084 2119 3084 
Q 1678 3084 1418 2786 
Q 1159 2488 1159 1978 
L 1159 0 
L 581 0 
L 581 3500 
L 1159 3500 
L 1159 2956 
Q 1356 3278 1631 3431 
Q 1906 3584 2284 3584 
Q 2666 3584 2933 3390 
Q 3200 3197 3328 2828 
z
" transform="scale(0.015625)"/>
       <path id="DejaVuSans-5d" d="M 1947 4863 
L 1947 -844 
L 622 -844 
L 622 -397 
L 1369 -397 
L 1369 4416 
L 622 4416 
L 622 4863 
L 1947 4863 
z
" transform="scale(0.015625)"/>
      </defs>
      <use xlink:href="#DejaVuSans-78"/>
      <use xlink:href="#DejaVuSans-20" x="59.179688"/>
      <use xlink:href="#DejaVuSans-5b" x="90.966797"/>
      <use xlink:href="#DejaVuSans-6d" x="129.980469"/>
      <use xlink:href="#DejaVuSans-5d" x="227.392578"/>
     </g>
    </g>
   </g>
   <g id="matplotlib.axis_2">
    <g id="ytick_1">
     <g id="line2d_10">
      <defs>
       <path id="mf367998faf" d="M 0 0 
L -3.5 0 
" style="stroke: #000000; stroke-width: 0.8"/>
      </defs>
      <g>
       <use xlink:href="#mf367998faf" x="172.0488" y="473.192004" style="stroke: #000000; stroke-width: 0.8"/>
      </g>
     </g>
     <g id="text_11">
      <!-- −4 -->
      <g transform="translate(150.306612 476.991223) scale(0.1 -0.1)">
       <use xlink:href="#DejaVuSans-2212"/>
       <use xlink:href="#DejaVuSans-34" x="83.789062"/>
      </g>
     </g>
    </g>
    <g id="ytick_2">
     <g id="line2d_11">
      <g>
       <use xlink:href="#mf367998faf" x="172.0488" y="408.673611" style="stroke: #000000; stroke-width: 0.8"/>
      </g>
     </g>
     <g id="text_12">
      <!-- −3 -->
      <g transform="translate(150.306612 412.47283) scale(0.1 -0.1)">
       <defs>
        <path id="DejaVuSans-33" d="M 2597 2516 
Q 3050 2419 3304 2112 
Q 3559 1806 3559 1356 
Q 3559 666 3084 287 
Q 2609 -91 1734 -91 
Q 1441 -91 1130 -33 
Q 819 25 488 141 
L 488 750 
Q 750 597 1062 519 
Q 1375 441 1716 441 
Q 2309 441 2620 675 
Q 2931 909 2931 1356 
Q 2931 1769 2642 2001 
Q 2353 2234 1838 2234 
L 1294 2234 
L 1294 2753 
L 1863 2753 
Q 2328 2753 2575 2939 
Q 2822 3125 2822 3475 
Q 2822 3834 2567 4026 
Q 2313 4219 1838 4219 
Q 1578 4219 1281 4162 
Q 984 4106 628 3988 
L 628 4550 
Q 988 4650 1302 4700 
Q 1616 4750 1894 4750 
Q 2613 4750 3031 4423 
Q 3450 4097 3450 3541 
Q 3450 3153 3228 2886 
Q 3006 2619 2597 2516 
z
" transform="scale(0.015625)"/>
       </defs>
       <use xlink:href="#DejaVuSans-2212"/>
       <use xlink:href="#DejaVuSans-33" x="83.789062"/>
      </g>
     </g>
    </g>
    <g id="ytick_3">
     <g id="line2d_12">
      <g>
       <use xlink:href="#mf367998faf" x="172.0488" y="344.155219" style="stroke: #000000; stroke-width: 0.8"/>
      </g>
     </g>
     <g id="text_13">
      <!-- −2 -->
      <g transform="translate(150.306612 347.954437) scale(0.1 -0.1)">
       <use xlink:href="#DejaVuSans-2212"/>
       <use xlink:href="#DejaVuSans-32" x="83.789062"/>
      </g>
     </g>
    </g>
    <g id="ytick_4">
     <g id="line2d_13">
      <g>
       <use xlink:href="#mf367998faf" x="172.0488" y="279.636826" style="stroke: #000000; stroke-width: 0.8"/>
      </g>
     </g>
     <g id="text_14">
      <!-- −1 -->
      <g transform="translate(150.306612 283.436045) scale(0.1 -0.1)">
       <use xlink:href="#DejaVuSans-2212"/>
       <use xlink:href="#DejaVuSans-31" x="83.789062"/>
      </g>
     </g>
    </g>
    <g id="ytick_5">
     <g id="line2d_14">
      <g>
       <use xlink:href="#mf367998faf" x="172.0488" y="215.118433" style="stroke: #000000; stroke-width: 0.8"/>
      </g>
     </g>
     <g id="text_15">
      <!-- 0 -->
      <g transform="translate(158.6863 218.917652) scale(0.1 -0.1)">
       <use xlink:href="#DejaVuSans-30"/>
      </g>
     </g>
    </g>
    <g id="text_16">
     <!-- y [m] -->
     <g transform="translate(144.226925 340.875513) rotate(-90) scale(0.1 -0.1)">
      <defs>
       <path id="DejaVuSans-79" d="M 2059 -325 
Q 1816 -950 1584 -1140 
Q 1353 -1331 966 -1331 
L 506 -1331 
L 506 -850 
L 844 -850 
Q 1081 -850 1212 -737 
Q 1344 -625 1503 -206 
L 1606 56 
L 191 3500 
L 800 3500 
L 1894 763 
L 2988 3500 
L 3597 3500 
L 2059 -325 
z
" transform="scale(0.015625)"/>
      </defs>
      <use xlink:href="#DejaVuSans-79"/>
      <use xlink:href="#DejaVuSans-20" x="59.179688"/>
      <use xlink:href="#DejaVuSans-5b" x="90.966797"/>
      <use xlink:href="#DejaVuSans-6d" x="129.980469"/>
      <use xlink:href="#DejaVuSans-5d" x="227.392578"/>
     </g>
    </g>
   </g>
   <g id="line2d_15">
    <path d="M 223.880441 215.118433 
L 494.85769 215.118433 
" clip-path="url(#p079f7e74a2)" style="fill: none; stroke-dasharray: 2.775,1.2; stroke-dashoffset: 0; stroke: #000000; stroke-width: 0.75"/>
   </g>
   <g id="line2d_16">
    <path d="M 481.954012 473.192004 
L 481.954012 202.214755 
" clip-path="url(#p079f7e74a2)" style="fill: none; stroke-dasharray: 2.775,1.2; stroke-dashoffset: 0; stroke: #000000; stroke-width: 0.75"/>
   </g>
   <g id="line2d_17">
    <path d="M 1256.174723 215.118433 
L 1256.183785 216.62441 
L 1256.084111 214.341012 
L 1255.812223 211.775101 
L 1255.69636 209.009094 
L 1256.478784 206.56151 
L 1257.995551 204.487319 
L 1260.513264 202.34269 
L 1260.204342 199.828874 
L 1258.401048 198.050438 
L 1255.511023 197.362958 
L 1250.582733 195.827781 
L 1243.101808 193.833996 
L 1235.56373 192.06917 
L 1212.834238 187.286957 
L 1205.217788 185.899759 
L 1195.009953 184.363444 
L 1182.225563 182.607408 
L 1177.085878 182.139509 
L 1171.92928 181.927901 
L 1166.767771 181.955709 
L 1156.450791 182.299255 
L 1151.295574 182.574449 
L 1146.168222 183.157932 
L 1141.079487 184.021712 
L 1133.507624 185.635103 
L 1123.484863 188.105479 
L 1118.519572 189.515143 
L 1113.629769 191.166983 
L 1106.396298 193.925969 
L 1096.867543 197.895994 
L 1089.784302 201.021168 
L 1082.799176 204.35993 
L 1071.28081 210.176054 
L 1050.595783 220.740114 
L 1036.715799 227.603306 
L 1029.629089 230.72025 
L 1020.058191 234.587496 
L 1010.404696 238.245898 
L 1005.484237 239.802368 
L 1000.495877 241.127706 
L 992.94312 242.828328 
L 982.805295 244.773006 
L 977.704854 245.564342 
L 972.571879 246.100868 
L 967.418568 246.381351 
L 962.257684 246.405096 
L 957.100537 246.190138 
L 949.376663 245.6497 
L 944.266842 244.929475 
L 939.206108 243.914441 
L 934.187863 242.707412 
L 926.716625 240.677978 
L 919.295203 238.471978 
L 914.420689 236.77639 
L 907.228466 233.911419 
L 897.776364 229.762216 
L 888.414566 225.413035 
L 879.167316 220.825229 
L 863.123284 212.522373 
L 853.907348 207.871898 
L 839.974215 201.116807 
L 832.943645 197.874818 
L 828.169895 195.912552 
L 820.920671 193.194756 
L 813.606968 190.65511 
L 808.668988 189.152261 
L 803.654352 187.931437 
L 798.593533 186.918035 
L 790.953177 185.668494 
L 783.280563 184.633857 
L 778.145141 184.116391 
L 772.990821 183.855105 
L 767.829884 183.850583 
L 762.673853 184.080532 
L 754.960706 184.745595 
L 749.835477 185.361042 
L 744.76005 186.295699 
L 739.740601 187.496695 
L 734.76872 188.882136 
L 727.378102 191.187866 
L 720.047791 193.679643 
L 715.230561 195.532389 
L 708.109383 198.569627 
L 698.741165 202.904893 
L 687.149507 208.573381 
L 673.373401 215.643218 
L 659.60446 222.726565 
L 650.292498 227.18153 
L 638.558064 232.548594 
L 633.807107 234.566284 
L 628.978104 236.388211 
L 621.641234 238.859376 
L 614.237286 241.122342 
L 606.783976 243.221136 
L 601.734678 244.28781 
L 596.634894 245.081028 
L 591.50836 245.678953 
L 583.793635 246.327068 
L 578.637673 246.561481 
L 573.476783 246.539075 
L 568.324203 246.247413 
L 563.191025 245.709938 
L 555.529748 244.596244 
L 550.447635 243.692437 
L 545.424418 242.50825 
L 540.462182 241.08905 
L 533.108525 238.668602 
L 525.830627 236.028183 
L 518.62136 233.206326 
L 511.530813 230.098107 
L 502.201875 225.67896 
L 492.955035 221.090093 
L 492.955035 221.090093 
" clip-path="url(#p079f7e74a2)" style="fill: none; stroke-dasharray: 1.85,0.8; stroke-dashoffset: 0; stroke: #0000ff; stroke-width: 0.5"/>
   </g>
   <g id="line2d_18">
    <path d="M 1256.174723 215.118433 
L 1227.499882 200.640533 
L 1198.825041 189.242584 
L 1170.1502 183.349327 
L 1141.475359 184.214462 
L 1112.800518 191.653944 
L 1084.125676 204.085138 
L 1055.450835 218.863497 
L 1026.775994 232.845151 
L 998.101153 243.055717 
L 969.426312 247.323052 
L 940.751471 244.739347 
L 912.076629 235.854245 
L 883.401788 222.557916 
L 854.726947 207.678951 
L 826.052106 194.382622 
L 797.377265 185.49752 
L 768.702423 182.913815 
L 740.027582 187.18115 
L 711.352741 197.391715 
L 682.6779 211.373369 
L 654.003059 226.151728 
L 625.328218 238.582922 
L 596.653376 246.022405 
L 567.978535 246.88754 
L 539.303694 240.994283 
L 510.628853 229.596334 
L 481.954012 215.118433 
" clip-path="url(#p079f7e74a2)" style="fill: none; stroke: #1f77b4; stroke-width: 1.5; stroke-linecap: square"/>
   </g>
   <g id="patch_4">
    <path d="M 172.0488 487.755684 
L 172.0488 167.354716 
" style="fill: none; stroke: #000000; stroke-width: 0.8; stroke-linejoin: miter; stroke-linecap: square"/>
   </g>
   <g id="patch_5">
    <path d="M 1312.344905 487.755684 
L 1312.344905 167.354716 
" style="fill: none; stroke: #000000; stroke-width: 0.8; stroke-linejoin: miter; stroke-linecap: square"/>
   </g>
   <g id="patch_6">
    <path d="M 172.0488 487.755684 
L 1312.344905 487.755684 
" style="fill: none; stroke: #000000; stroke-width: 0.8; stroke-linejoin: miter; stroke-linecap: square"/>
   </g>
   <g id="patch_7">
    <path d="M 172.0488 167.354716 
L 1312.344905 167.354716 
" style="fill: none; stroke: #000000; stroke-width: 0.8; stroke-linejoin: miter; stroke-linecap: square"/>
   </g>
   <g id="text_17">
    <!-- Target -->
    <g transform="translate(1175.509373 202.154188) scale(0.1 -0.1)">
     <defs>
      <path id="DejaVuSans-54" d="M -19 4666 
L 3928 4666 
L 3928 4134 
L 2272 4134 
L 2272 0 
L 1638 0 
L 1638 4134 
L -19 4134 
L -19 4666 
z
" transform="scale(0.015625)"/>
      <path id="DejaVuSans-61" d="M 2194 1759 
Q 1497 1759 1228 1600 
Q 959 1441 959 1056 
Q 959 750 1161 570 
Q 1363 391 1709 391 
Q 2188 391 2477 730 
Q 2766 1069 2766 1631 
L 2766 1759 
L 2194 1759 
z
M 3341 1997 
L 3341 0 
L 2766 0 
L 2766 531 
Q 2569 213 2275 61 
Q 1981 -91 1556 -91 
Q 1019 -91 701 211 
Q 384 513 384 1019 
Q 384 1609 779 1909 
Q 1175 2209 1959 2209 
L 2766 2209 
L 2766 2266 
Q 2766 2663 2505 2880 
Q 2244 3097 1772 3097 
Q 1472 3097 1187 3025 
Q 903 2953 641 2809 
L 641 3341 
Q 956 3463 1253 3523 
Q 1550 3584 1831 3584 
Q 2591 3584 2966 3190 
Q 3341 2797 3341 1997 
z
" transform="scale(0.015625)"/>
      <path id="DejaVuSans-72" d="M 2631 2963 
Q 2534 3019 2420 3045 
Q 2306 3072 2169 3072 
Q 1681 3072 1420 2755 
Q 1159 2438 1159 1844 
L 1159 0 
L 581 0 
L 581 3500 
L 1159 3500 
L 1159 2956 
Q 1341 3275 1631 3429 
Q 1922 3584 2338 3584 
Q 2397 3584 2469 3576 
Q 2541 3569 2628 3553 
L 2631 2963 
z
" transform="scale(0.015625)"/>
      <path id="DejaVuSans-67" d="M 2906 1791 
Q 2906 2416 2648 2759 
Q 2391 3103 1925 3103 
Q 1463 3103 1205 2759 
Q 947 2416 947 1791 
Q 947 1169 1205 825 
Q 1463 481 1925 481 
Q 2391 481 2648 825 
Q 2906 1169 2906 1791 
z
M 3481 434 
Q 3481 -459 3084 -895 
Q 2688 -1331 1869 -1331 
Q 1566 -1331 1297 -1286 
Q 1028 -1241 775 -1147 
L 775 -588 
Q 1028 -725 1275 -790 
Q 1522 -856 1778 -856 
Q 2344 -856 2625 -561 
Q 2906 -266 2906 331 
L 2906 616 
Q 2728 306 2450 153 
Q 2172 0 1784 0 
Q 1141 0 747 490 
Q 353 981 353 1791 
Q 353 2603 747 3093 
Q 1141 3584 1784 3584 
Q 2172 3584 2450 3431 
Q 2728 3278 2906 2969 
L 2906 3500 
L 3481 3500 
L 3481 434 
z
" transform="scale(0.015625)"/>
      <path id="DejaVuSans-65" d="M 3597 1894 
L 3597 1613 
L 953 1613 
Q 991 1019 1311 708 
Q 1631 397 2203 397 
Q 2534 397 2845 478 
Q 3156 559 3463 722 
L 3463 178 
Q 3153 47 2828 -22 
Q 2503 -91 2169 -91 
Q 1331 -91 842 396 
Q 353 884 353 1716 
Q 353 2575 817 3079 
Q 1281 3584 2069 3584 
Q 2775 3584 3186 3129 
Q 3597 2675 3597 1894 
z
M 3022 2063 
Q 3016 2534 2758 2815 
Q 2500 3097 2075 3097 
Q 1594 3097 1305 2825 
Q 1016 2553 972 2059 
L 3022 2063 
z
" transform="scale(0.015625)"/>
      <path id="DejaVuSans-74" d="M 1172 4494 
L 1172 3500 
L 2356 3500 
L 2356 3053 
L 1172 3053 
L 1172 1153 
Q 1172 725 1289 603 
Q 1406 481 1766 481 
L 2356 481 
L 2356 0 
L 1766 0 
Q 1100 0 847 248 
Q 594 497 594 1153 
L 594 3053 
L 172 3053 
L 172 3500 
L 594 3500 
L 594 4494 
L 1172 4494 
z
" transform="scale(0.015625)"/>
     </defs>
     <use xlink:href="#DejaVuSans-54"/>
     <use xlink:href="#DejaVuSans-61" x="44.583984"/>
     <use xlink:href="#DejaVuSans-72" x="105.863281"/>
     <use xlink:href="#DejaVuSans-67" x="145.226562"/>
     <use xlink:href="#DejaVuSans-65" x="208.703125"/>
     <use xlink:href="#DejaVuSans-74" x="270.226562"/>
    </g>
   </g>
   <g id="text_18">
    <!-- t = 16.156 -->
    <g transform="translate(229.063605 186.134139) scale(0.1 -0.1)">
     <defs>
      <path id="DejaVuSans-3d" d="M 678 2906 
L 4684 2906 
L 4684 2381 
L 678 2381 
L 678 2906 
z
M 678 1631 
L 4684 1631 
L 4684 1100 
L 678 1100 
L 678 1631 
z
" transform="scale(0.015625)"/>
      <path id="DejaVuSans-2e" d="M 684 794 
L 1344 794 
L 1344 0 
L 684 0 
L 684 794 
z
" transform="scale(0.015625)"/>
      <path id="DejaVuSans-35" d="M 691 4666 
L 3169 4666 
L 3169 4134 
L 1269 4134 
L 1269 2991 
Q 1406 3038 1543 3061 
Q 1681 3084 1819 3084 
Q 2600 3084 3056 2656 
Q 3513 2228 3513 1497 
Q 3513 744 3044 326 
Q 2575 -91 1722 -91 
Q 1428 -91 1123 -41 
Q 819 9 494 109 
L 494 744 
Q 775 591 1075 516 
Q 1375 441 1709 441 
Q 2250 441 2565 725 
Q 2881 1009 2881 1497 
Q 2881 1984 2565 2268 
Q 2250 2553 1709 2553 
Q 1456 2553 1204 2497 
Q 953 2441 691 2322 
L 691 4666 
z
" transform="scale(0.015625)"/>
     </defs>
     <use xlink:href="#DejaVuSans-74"/>
     <use xlink:href="#DejaVuSans-20" x="39.208984"/>
     <use xlink:href="#DejaVuSans-3d" x="70.996094"/>
     <use xlink:href="#DejaVuSans-20" x="154.785156"/>
     <use xlink:href="#DejaVuSans-31" x="186.572266"/>
     <use xlink:href="#DejaVuSans-36" x="250.195312"/>
     <use xlink:href="#DejaVuSans-2e" x="313.818359"/>
     <use xlink:href="#DejaVuSans-31" x="345.605469"/>
     <use xlink:href="#DejaVuSans-35" x="409.228516"/>
     <use xlink:href="#DejaVuSans-36" x="472.851562"/>
    </g>
   </g>
   <g id="text_19">
    <!-- Pause - space, q - quit, click - data cursor -->
    <g transform="translate(618.287478 161.354716) scale(0.12 -0.12)">
     <defs>
      <path id="DejaVuSans-50" d="M 1259 4147 
L 1259 2394 
L 2053 2394 
Q 2494 2394 2734 2622 
Q 2975 2850 2975 3272 
Q 2975 3691 2734 3919 
Q 2494 4147 2053 4147 
L 1259 4147 
z
M 628 4666 
L 2053 4666 
Q 2838 4666 3239 4311 
Q 3641 3956 3641 3272 
Q 3641 2581 3239 2228 
Q 2838 1875 2053 1875 
L 1259 1875 
L 1259 0 
L 628 0 
L 628 4666 
z
" transform="scale(0.015625)"/>
      <path id="DejaVuSans-75" d="M 544 1381 
L 544 3500 
L 1119 3500 
L 1119 1403 
Q 1119 906 1312 657 
Q 1506 409 1894 409 
Q 2359 409 2629 706 
Q 2900 1003 2900 1516 
L 2900 3500 
L 3475 3500 
L 3475 0 
L 2900 0 
L 2900 538 
Q 2691 219 2414 64 
Q 2138 -91 1772 -91 
Q 1169 -91 856 284 
Q 544 659 544 1381 
z
M 1991 3584 
L 1991 3584 
z
" transform="scale(0.015625)"/>
      <path id="DejaVuSans-73" d="M 2834 3397 
L 2834 2853 
Q 2591 2978 2328 3040 
Q 2066 3103 1784 3103 
Q 1356 3103 1142 2972 
Q 928 2841 928 2578 
Q 928 2378 1081 2264 
Q 1234 2150 1697 2047 
L 1894 2003 
Q 2506 1872 2764 1633 
Q 3022 1394 3022 966 
Q 3022 478 2636 193 
Q 2250 -91 1575 -91 
Q 1294 -91 989 -36 
Q 684 19 347 128 
L 347 722 
Q 666 556 975 473 
Q 1284 391 1588 391 
Q 1994 391 2212 530 
Q 2431 669 2431 922 
Q 2431 1156 2273 1281 
Q 2116 1406 1581 1522 
L 1381 1569 
Q 847 1681 609 1914 
Q 372 2147 372 2553 
Q 372 3047 722 3315 
Q 1072 3584 1716 3584 
Q 2034 3584 2315 3537 
Q 2597 3491 2834 3397 
z
" transform="scale(0.015625)"/>
      <path id="DejaVuSans-2d" d="M 313 2009 
L 1997 2009 
L 1997 1497 
L 313 1497 
L 313 2009 
z
" transform="scale(0.015625)"/>
      <path id="DejaVuSans-70" d="M 1159 525 
L 1159 -1331 
L 581 -1331 
L 581 3500 
L 1159 3500 
L 1159 2969 
Q 1341 3281 1617 3432 
Q 1894 3584 2278 3584 
Q 2916 3584 3314 3078 
Q 3713 2572 3713 1747 
Q 3713 922 3314 415 
Q 2916 -91 2278 -91 
Q 1894 -91 1617 61 
Q 1341 213 1159 525 
z
M 3116 1747 
Q 3116 2381 2855 2742 
Q 2594 3103 2138 3103 
Q 1681 3103 1420 2742 
Q 1159 2381 1159 1747 
Q 1159 1113 1420 752 
Q 1681 391 2138 391 
Q 2594 391 2855 752 
Q 3116 1113 3116 1747 
z
" transform="scale(0.015625)"/>
      <path id="DejaVuSans-63" d="M 3122 3366 
L 3122 2828 
Q 2878 2963 2633 3030 
Q 2388 3097 2138 3097 
Q 1578 3097 1268 2742 
Q 959 2388 959 1747 
Q 959 1106 1268 751 
Q 1578 397 2138 397 
Q 2388 397 2633 464 
Q 2878 531 3122 666 
L 3122 134 
Q 2881 22 2623 -34 
Q 2366 -91 2075 -91 
Q 1284 -91 818 406 
Q 353 903 353 1747 
Q 353 2603 823 3093 
Q 1294 3584 2113 3584 
Q 2378 3584 2631 3529 
Q 2884 3475 3122 3366 
z
" transform="scale(0.015625)"/>
      <path id="DejaVuSans-2c" d="M 750 794 
L 1409 794 
L 1409 256 
L 897 -744 
L 494 -744 
L 750 256 
L 750 794 
z
" transform="scale(0.015625)"/>
      <path id="DejaVuSans-71" d="M 947 1747 
Q 947 1113 1208 752 
Q 1469 391 1925 391 
Q 2381 391 2643 752 
Q 2906 1113 2906 1747 
Q 2906 2381 2643 2742 
Q 2381 3103 1925 3103 
Q 1469 3103 1208 2742 
Q 947 2381 947 1747 
z
M 2906 525 
Q 2725 213 2448 61 
Q 2172 -91 1784 -91 
Q 1150 -91 751 415 
Q 353 922 353 1747 
Q 353 2572 751 3078 
Q 1150 3584 1784 3584 
Q 2172 3584 2448 3432 
Q 2725 3281 2906 2969 
L 2906 3500 
L 3481 3500 
L 3481 -1331 
L 2906 -1331 
L 2906 525 
z
" transform="scale(0.015625)"/>
      <path id="DejaVuSans-69" d="M 603 3500 
L 1178 3500 
L 1178 0 
L 603 0 
L 603 3500 
z
M 603 4863 
L 1178 4863 
L 1178 4134 
L 603 4134 
L 603 4863 
z
" transform="scale(0.015625)"/>
      <path id="DejaVuSans-6c" d="M 603 4863 
L 1178 4863 
L 1178 0 
L 603 0 
L 603 4863 
z
" transform="scale(0.015625)"/>
      <path id="DejaVuSans-6b" d="M 581 4863 
L 1159 4863 
L 1159 1991 
L 2875 3500 
L 3609 3500 
L 1753 1863 
L 3688 0 
L 2938 0 
L 1159 1709 
L 1159 0 
L 581 0 
L 581 4863 
z
" transform="scale(0.015625)"/>
      <path id="DejaVuSans-64" d="M 2906 2969 
L 2906 4863 
L 3481 4863 
L 3481 0 
L 2906 0 
L 2906 525 
Q 2725 213 2448 61 
Q 2172 -91 1784 -91 
Q 1150 -91 751 415 
Q 353 922 353 1747 
Q 353 2572 751 3078 
Q 1150 3584 1784 3584 
Q 2172 3584 2448 3432 
Q 2725 3281 2906 2969 
z
M 947 1747 
Q 947 1113 1208 752 
Q 1469 391 1925 391 
Q 2381 391 2643 752 
Q 2906 1113 2906 1747 
Q 2906 2381 2643 2742 
Q 2381 3103 1925 3103 
Q 1469 3103 1208 2742 
Q 947 2381 947 1747 
z
" transform="scale(0.015625)"/>
      <path id="DejaVuSans-6f" d="M 1959 3097 
Q 1497 3097 1228 2736 
Q 959 2375 959 1747 
Q 959 1119 1226 758 
Q 1494 397 1959 397 
Q 2419 397 2687 759 
Q 2956 1122 2956 1747 
Q 2956 2369 2687 2733 
Q 2419 3097 1959 3097 
z
M 1959 3584 
Q 2709 3584 3137 3096 
Q 3566 2609 3566 1747 
Q 3566 888 3137 398 
Q 2709 -91 1959 -91 
Q 1206 -91 779 398 
Q 353 888 353 1747 
Q 353 2609 779 3096 
Q 1206 3584 1959 3584 
z
" transform="scale(0.015625)"/>
     </defs>
     <use xlink:href="#DejaVuSans-50"/>
     <use xlink:href="#DejaVuSans-61" x="55.802734"/>
     <use xlink:href="#DejaVuSans-75" x="117.082031"/>
     <use xlink:href="#DejaVuSans-73" x="180.460938"/>
     <use xlink:href="#DejaVuSans-65" x="232.560547"/>
     <use xlink:href="#DejaVuSans-20" x="294.083984"/>
     <use xlink:href="#DejaVuSans-2d" x="325.871094"/>
     <use xlink:href="#DejaVuSans-20" x="361.955078"/>
     <use xlink:href="#DejaVuSans-73" x="393.742188"/>
     <use xlink:href="#DejaVuSans-70" x="445.841797"/>
     <use xlink:href="#DejaVuSans-61" x="509.318359"/>
     <use xlink:href="#DejaVuSans-63" x="570.597656"/>
     <use xlink:href="#DejaVuSans-65" x="625.578125"/>
     <use xlink:href="#DejaVuSans-2c" x="687.101562"/>
     <use xlink:href="#DejaVuSans-20" x="718.888672"/>
     <use xlink:href="#DejaVuSans-71" x="750.675781"/>
     <use xlink:href="#DejaVuSans-20" x="814.152344"/>
     <use xlink:href="#DejaVuSans-2d" x="845.939453"/>
     <use xlink:href="#DejaVuSans-20" x="882.023438"/>
     <use xlink:href="#DejaVuSans-71" x="913.810547"/>
     <use xlink:href="#DejaVuSans-75" x="977.287109"/>
     <use xlink:href="#DejaVuSans-69" x="1040.666016"/>
     <use xlink:href="#DejaVuSans-74" x="1068.449219"/>
     <use xlink:href="#DejaVuSans-2c" x="1107.658203"/>
     <use xlink:href="#DejaVuSans-20" x="1139.445312"/>
     <use xlink:href="#DejaVuSans-63" x="1171.232422"/>
     <use xlink:href="#DejaVuSans-6c" x="1226.212891"/>
     <use xlink:href="#DejaVuSans-69" x="1253.996094"/>
     <use xlink:href="#DejaVuSans-63" x="1281.779297"/>
     <use xlink:href="#DejaVuSans-6b" x="1336.759766"/>
     <use xlink:href="#DejaVuSans-20" x="1394.669922"/>
     <use xlink:href="#DejaVuSans-2d" x="1426.457031"/>
     <use xlink:href="#DejaVuSans-20" x="1462.541016"/>
     <use xlink:href="#DejaVuSans-64" x="1494.328125"/>
     <use xlink:href="#DejaVuSans-61" x="1557.804688"/>
     <use xlink:href="#DejaVuSans-74" x="1619.083984"/>
     <use xlink:href="#DejaVuSans-61" x="1658.292969"/>
     <use xlink:href="#DejaVuSans-20" x="1719.572266"/>
     <use xlink:href="#DejaVuSans-63" x="1751.359375"/>
     <use xlink:href="#DejaVuSans-75" x="1806.339844"/>
     <use xlink:href="#DejaVuSans-72" x="1869.71875"/>
     <use xlink:href="#DejaVuSans-73" x="1910.832031"/>
     <use xlink:href="#DejaVuSans-6f" x="1962.931641"/>
     <use xlink:href="#DejaVuSans-72" x="2024.113281"/>
    </g>
   </g>
  </g>
  <g id="axes_2">
   <g id="patch_8">
    <path d="M 1457.622295 633.9424 
L 2597.9184 633.9424 
L 2597.9184 21.168 
L 1457.622295 21.168 
z
" style="fill: #ffffff"/>
   </g>
   <g id="matplotlib.axis_3">
    <g id="xtick_10">
     <g id="line2d_19">
      <g>
       <use xlink:href="#mf78fa14f81" x="1457.622295" y="633.9424" style="stroke: #000000; stroke-width: 0.8"/>
      </g>
     </g>
     <g id="text_20">
      <!-- 0 -->
      <g transform="translate(1454.441045 648.540838) scale(0.1 -0.1)">
       <use xlink:href="#DejaVuSans-30"/>
      </g>
     </g>
    </g>
    <g id="xtick_11">
     <g id="line2d_20">
      <g>
       <use xlink:href="#mf78fa14f81" x="1647.671645" y="633.9424" style="stroke: #000000; stroke-width: 0.8"/>
      </g>
     </g>
     <g id="text_21">
      <!-- 5 -->
      <g transform="translate(1644.490395 648.540838) scale(0.1 -0.1)">
       <use xlink:href="#DejaVuSans-35"/>
      </g>
     </g>
    </g>
    <g id="xtick_12">
     <g id="line2d_21">
      <g>
       <use xlink:href="#mf78fa14f81" x="1837.720996" y="633.9424" style="stroke: #000000; stroke-width: 0.8"/>
      </g>
     </g>
     <g id="text_22">
      <!-- 10 -->
      <g transform="translate(1831.358496 648.540838) scale(0.1 -0.1)">
       <use xlink:href="#DejaVuSans-31"/>
       <use xlink:href="#DejaVuSans-30" x="63.623047"/>
      </g>
     </g>
    </g>
    <g id="xtick_13">
     <g id="line2d_22">
      <g>
       <use xlink:href="#mf78fa14f81" x="2027.770347" y="633.9424" style="stroke: #000000; stroke-width: 0.8"/>
      </g>
     </g>
     <g id="text_23">
      <!-- 15 -->
      <g transform="translate(2021.407847 648.540838) scale(0.1 -0.1)">
       <use xlink:href="#DejaVuSans-31"/>
       <use xlink:href="#DejaVuSans-35" x="63.623047"/>
      </g>
     </g>
    </g>
    <g id="xtick_14">
     <g id="line2d_23">
      <g>
       <use xlink:href="#mf78fa14f81" x="2217.819698" y="633.9424" style="stroke: #000000; stroke-width: 0.8"/>
      </g>
     </g>
     <g id="text_24">
      <!-- 20 -->
      <g transform="translate(2211.457198 648.540838) scale(0.1 -0.1)">
       <use xlink:href="#DejaVuSans-32"/>
       <use xlink:href="#DejaVuSans-30" x="63.623047"/>
      </g>
     </g>
    </g>
    <g id="xtick_15">
     <g id="line2d_24">
      <g>
       <use xlink:href="#mf78fa14f81" x="2407.869049" y="633.9424" style="stroke: #000000; stroke-width: 0.8"/>
      </g>
     </g>
     <g id="text_25">
      <!-- 25 -->
      <g transform="translate(2401.506549 648.540838) scale(0.1 -0.1)">
       <use xlink:href="#DejaVuSans-32"/>
       <use xlink:href="#DejaVuSans-35" x="63.623047"/>
      </g>
     </g>
    </g>
    <g id="xtick_16">
     <g id="line2d_25">
      <g>
       <use xlink:href="#mf78fa14f81" x="2597.9184" y="633.9424" style="stroke: #000000; stroke-width: 0.8"/>
      </g>
     </g>
     <g id="text_26">
      <!-- 30 -->
      <g transform="translate(2591.5559 648.540838) scale(0.1 -0.1)">
       <use xlink:href="#DejaVuSans-33"/>
       <use xlink:href="#DejaVuSans-30" x="63.623047"/>
      </g>
     </g>
    </g>
    <g id="text_27">
     <!-- t [s] -->
     <g transform="translate(2017.714879 662.218963) scale(0.1 -0.1)">
      <use xlink:href="#DejaVuSans-74"/>
      <use xlink:href="#DejaVuSans-20" x="39.208984"/>
      <use xlink:href="#DejaVuSans-5b" x="70.996094"/>
      <use xlink:href="#DejaVuSans-73" x="110.009766"/>
      <use xlink:href="#DejaVuSans-5d" x="162.109375"/>
     </g>
    </g>
   </g>
   <g id="matplotlib.axis_4">
    <g id="ytick_6">
     <g id="line2d_26">
      <g>
       <use xlink:href="#mf367998faf" x="1457.622295" y="606.089018" style="stroke: #000000; stroke-width: 0.8"/>
      </g>
     </g>
     <g id="text_28">
      <!-- −8 -->
      <g transform="translate(1435.880107 609.888237) scale(0.1 -0.1)">
       <use xlink:href="#DejaVuSans-2212"/>
       <use xlink:href="#DejaVuSans-38" x="83.789062"/>
      </g>
     </g>
    </g>
    <g id="ytick_7">
     <g id="line2d_27">
      <g>
       <use xlink:href="#mf367998faf" x="1457.622295" y="536.455564" style="stroke: #000000; stroke-width: 0.8"/>
      </g>
     </g>
     <g id="text_29">
      <!-- −6 -->
      <g transform="translate(1435.880107 540.254782) scale(0.1 -0.1)">
       <use xlink:href="#DejaVuSans-2212"/>
       <use xlink:href="#DejaVuSans-36" x="83.789062"/>
      </g>
     </g>
    </g>
    <g id="ytick_8">
     <g id="line2d_28">
      <g>
       <use xlink:href="#mf367998faf" x="1457.622295" y="466.822109" style="stroke: #000000; stroke-width: 0.8"/>
      </g>
     </g>
     <g id="text_30">
      <!-- −4 -->
      <g transform="translate(1435.880107 470.621328) scale(0.1 -0.1)">
       <use xlink:href="#DejaVuSans-2212"/>
       <use xlink:href="#DejaVuSans-34" x="83.789062"/>
      </g>
     </g>
    </g>
    <g id="ytick_9">
     <g id="line2d_29">
      <g>
       <use xlink:href="#mf367998faf" x="1457.622295" y="397.188655" style="stroke: #000000; stroke-width: 0.8"/>
      </g>
     </g>
     <g id="text_31">
      <!-- −2 -->
      <g transform="translate(1435.880107 400.987873) scale(0.1 -0.1)">
       <use xlink:href="#DejaVuSans-2212"/>
       <use xlink:href="#DejaVuSans-32" x="83.789062"/>
      </g>
     </g>
    </g>
    <g id="ytick_10">
     <g id="line2d_30">
      <g>
       <use xlink:href="#mf367998faf" x="1457.622295" y="327.5552" style="stroke: #000000; stroke-width: 0.8"/>
      </g>
     </g>
     <g id="text_32">
      <!-- 0 -->
      <g transform="translate(1444.259795 331.354419) scale(0.1 -0.1)">
       <use xlink:href="#DejaVuSans-30"/>
      </g>
     </g>
    </g>
    <g id="ytick_11">
     <g id="line2d_31">
      <g>
       <use xlink:href="#mf367998faf" x="1457.622295" y="257.921745" style="stroke: #000000; stroke-width: 0.8"/>
      </g>
     </g>
     <g id="text_33">
      <!-- 2 -->
      <g transform="translate(1444.259795 261.720964) scale(0.1 -0.1)">
       <use xlink:href="#DejaVuSans-32"/>
      </g>
     </g>
    </g>
    <g id="ytick_12">
     <g id="line2d_32">
      <g>
       <use xlink:href="#mf367998faf" x="1457.622295" y="188.288291" style="stroke: #000000; stroke-width: 0.8"/>
      </g>
     </g>
     <g id="text_34">
      <!-- 4 -->
      <g transform="translate(1444.259795 192.08751) scale(0.1 -0.1)">
       <use xlink:href="#DejaVuSans-34"/>
      </g>
     </g>
    </g>
    <g id="ytick_13">
     <g id="line2d_33">
      <g>
       <use xlink:href="#mf367998faf" x="1457.622295" y="118.654836" style="stroke: #000000; stroke-width: 0.8"/>
      </g>
     </g>
     <g id="text_35">
      <!-- 6 -->
      <g transform="translate(1444.259795 122.454055) scale(0.1 -0.1)">
       <use xlink:href="#DejaVuSans-36"/>
      </g>
     </g>
    </g>
    <g id="ytick_14">
     <g id="line2d_34">
      <g>
       <use xlink:href="#mf367998faf" x="1457.622295" y="49.021382" style="stroke: #000000; stroke-width: 0.8"/>
      </g>
     </g>
     <g id="text_36">
      <!-- 8 -->
      <g transform="translate(1444.259795 52.820601) scale(0.1 -0.1)">
       <use xlink:href="#DejaVuSans-38"/>
      </g>
     </g>
    </g>
   </g>
   <g id="line2d_35">
    <path d="M 1457.622295 327.5552 
L 2597.9184 327.5552 
" clip-path="url(#p2ea4e8af1f)" style="fill: none; stroke-dasharray: 2.775,1.2; stroke-dashoffset: 0; stroke: #000000; stroke-width: 0.75"/>
   </g>
   <g id="line2d_36">
    <path d="M 1603.521561 -1 
L 1615.602454 7.027282 
L 1666.915779 40.821537 
L 1676.418246 47.37731 
L 1693.522688 59.524014 
L 1710.62713 71.991936 
L 1729.632065 85.787245 
L 1742.935519 95.209758 
L 1756.238974 104.308 
L 1769.542428 113.180756 
L 1790.447857 126.796086 
L 1815.154273 142.976616 
L 1828.457727 152.007681 
L 1841.761182 161.404702 
L 1856.96513 172.365022 
L 1889.273519 195.844359 
L 1900.676481 203.873156 
L 1913.979935 212.951779 
L 1927.28339 221.779959 
L 1944.387831 232.82162 
L 1988.099182 261.027678 
L 2003.30313 271.379578 
L 2014.706091 279.35926 
L 2033.711026 293.011141 
L 2071.720896 320.80035 
L 2071.720896 320.80035 
" clip-path="url(#p2ea4e8af1f)" style="fill: none; stroke: #0000ff; stroke-width: 0.5; stroke-linecap: square"/>
   </g>
   <g id="line2d_37">
    <path d="M 1457.622295 272.892938 
L 1457.861493 272.865653 
L 1461.66248 272.418496 
L 1463.562973 270.328359 
L 1465.463467 268.051032 
L 1467.36396 278.032352 
L 1471.164947 300.453746 
L 1473.065441 280.272593 
L 1476.866428 233.613925 
L 1478.766921 230.052803 
L 1480.667415 228.474167 
L 1484.468402 227.328661 
L 1488.269389 226.837956 
L 1492.070376 225.913552 
L 1497.771857 225.181417 
L 1501.572844 225.206554 
L 1507.274324 225.596389 
L 1509.174818 225.767579 
L 1514.876298 224.207498 
L 1516.776792 223.80933 
L 1520.577779 223.324659 
L 1526.279259 223.020754 
L 1531.98074 222.989299 
L 1535.781727 221.336108 
L 1541.483207 218.736701 
L 1543.383701 436.630182 
L 1549.085181 435.702923 
L 1554.786662 435.297366 
L 1558.587649 432.990064 
L 1560.488142 431.787549 
L 1566.189623 429.767693 
L 1571.891103 428.692987 
L 1577.592584 428.134343 
L 1581.393571 426.408298 
L 1583.294064 425.512716 
L 1588.995545 423.964498 
L 1594.697026 423.131572 
L 1600.398506 422.698689 
L 1608.00048 421.261465 
L 1611.801467 420.865339 
L 1617.502948 420.458783 
L 1621.303935 420.2951 
L 1644.109857 420.823864 
L 1651.711831 422.712651 
L 1655.512818 423.373535 
L 1663.114792 424.111972 
L 1666.915779 424.354947 
L 1670.716766 426.268483 
L 1672.617259 427.265135 
L 1678.31874 429.077073 
L 1684.02022 430.138307 
L 1689.721701 430.769877 
L 1695.423182 433.309109 
L 1703.025156 436.774985 
L 1704.925649 218.881505 
L 1706.826143 219.747974 
L 1712.527623 220.604684 
L 1716.32861 223.050499 
L 1718.229104 224.319032 
L 1723.930584 226.458347 
L 1729.632065 227.622591 
L 1735.333545 228.254263 
L 1741.035026 230.646197 
L 1746.736506 232.06857 
L 1752.437987 232.839793 
L 1758.139467 233.244348 
L 1765.741441 234.238958 
L 1773.343415 234.738668 
L 1780.945389 234.960108 
L 1790.447857 234.165358 
L 1798.049831 233.806124 
L 1803.751312 233.638754 
L 1809.452792 231.753703 
L 1811.353286 231.230563 
L 1815.154273 230.460063 
L 1820.855753 229.697676 
L 1822.756247 229.499828 
L 1828.457727 226.489693 
L 1830.358221 225.668794 
L 1834.159208 224.464255 
L 1837.960195 223.588221 
L 1843.661675 222.710286 
L 1845.562169 222.480082 
L 1851.263649 219.938668 
L 1855.064636 218.20573 
L 1856.96513 436.09921 
L 1860.766117 434.682791 
L 1864.567104 433.672716 
L 1868.368091 432.960919 
L 1872.169078 430.518562 
L 1875.970065 428.703389 
L 1879.771052 427.435528 
L 1883.572039 426.545297 
L 1889.273519 425.700771 
L 1891.174013 425.488525 
L 1896.875493 423.578722 
L 1898.775987 423.063899 
L 1902.576974 422.32544 
L 1908.278455 421.627615 
L 1917.780922 420.846037 
L 1925.382896 420.399741 
L 1934.885364 420.18581 
L 1936.785857 420.165136 
L 1944.387831 421.229287 
L 1951.989805 421.859971 
L 1959.591779 422.214897 
L 1965.29326 424.374154 
L 1967.193753 424.972846 
L 1970.99474 425.857411 
L 1976.696221 426.73989 
L 1980.497208 427.143877 
L 1982.397701 427.311508 
L 1988.099182 430.705764 
L 1989.999675 431.617513 
L 1993.800662 432.930364 
L 1997.601649 433.86659 
L 2001.402636 434.53594 
L 2005.203624 436.219863 
L 2007.104117 218.326383 
L 2010.905104 220.143925 
L 2012.805598 221.103482 
L 2016.606585 222.485912 
L 2020.407572 223.459268 
L 2024.208559 224.144022 
L 2028.009546 226.30075 
L 2031.810533 227.92198 
L 2035.61152 229.065256 
L 2039.412507 229.873705 
L 2045.113987 230.647172 
L 2047.014481 230.842761 
L 2052.715961 232.368577 
L 2056.516948 233.087381 
L 2060.317935 233.596975 
L 2064.118922 233.955211 
L 2069.820403 234.327208 
L 2071.720896 234.403007 
L 2071.720896 234.403007 
" clip-path="url(#p2ea4e8af1f)" style="fill: none; stroke: #ff0000; stroke-width: 0.5; stroke-linecap: square"/>
   </g>
   <g id="patch_9">
    <path d="M 1457.622295 633.9424 
L 1457.622295 21.168 
" style="fill: none; stroke: #000000; stroke-width: 0.8; stroke-linejoin: miter; stroke-linecap: square"/>
   </g>
   <g id="patch_10">
    <path d="M 2597.9184 633.9424 
L 2597.9184 21.168 
" style="fill: none; stroke: #000000; stroke-width: 0.8; stroke-linejoin: miter; stroke-linecap: square"/>
   </g>
   <g id="patch_11">
    <path d="M 1457.622295 633.9424 
L 2597.9184 633.9424 
" style="fill: none; stroke: #000000; stroke-width: 0.8; stroke-linejoin: miter; stroke-linecap: square"/>
   </g>
   <g id="patch_12">
    <path d="M 1457.622295 21.168 
L 2597.9184 21.168 
" style="fill: none; stroke: #000000; stroke-width: 0.8; stroke-linejoin: miter; stroke-linecap: square"/>
   </g>
   <g id="legend_1">
    <g id="patch_13">
     <path d="M 2503.4184 58.946125 
L 2590.9184 58.946125 
Q 2592.9184 58.946125 2592.9184 56.946125 
L 2592.9184 28.168 
Q 2592.9184 26.168 2590.9184 26.168 
L 2503.4184 26.168 
Q 2501.4184 26.168 2501.4184 28.168 
L 2501.4184 56.946125 
Q 2501.4184 58.946125 2503.4184 58.946125 
z
" style="fill: #ffffff; opacity: 0.8; stroke: #cccccc; stroke-linejoin: miter"/>
    </g>
    <g id="line2d_38">
     <path d="M 2505.4184 34.368 
L 2515.4184 34.368 
L 2525.4184 34.368 
" style="fill: none; stroke: #0000ff; stroke-width: 0.5; stroke-linecap: square"/>
    </g>
    <g id="text_37">
     <!-- $\Vert(x,y)\Vert$ [m] -->
     <g transform="translate(2533.4184 37.868) scale(0.1 -0.1)">
      <defs>
       <path id="DejaVuSans-2016" d="M 1344 4891 
L 1344 -1509 
L 813 -1509 
L 813 4891 
L 1344 4891 
z
M 2376 4891 
L 2376 -1509 
L 1845 -1509 
L 1845 4891 
L 2376 4891 
z
" transform="scale(0.015625)"/>
       <path id="DejaVuSans-28" d="M 1984 4856 
Q 1566 4138 1362 3434 
Q 1159 2731 1159 2009 
Q 1159 1288 1364 580 
Q 1569 -128 1984 -844 
L 1484 -844 
Q 1016 -109 783 600 
Q 550 1309 550 2009 
Q 550 2706 781 3412 
Q 1013 4119 1484 4856 
L 1984 4856 
z
" transform="scale(0.015625)"/>
       <path id="DejaVuSans-Oblique-78" d="M 3841 3500 
L 2234 1784 
L 3219 0 
L 2559 0 
L 1819 1388 
L 531 0 
L -166 0 
L 1556 1844 
L 641 3500 
L 1300 3500 
L 1972 2234 
L 3144 3500 
L 3841 3500 
z
" transform="scale(0.015625)"/>
       <path id="DejaVuSans-Oblique-79" d="M 1588 -325 
Q 1188 -997 936 -1164 
Q 684 -1331 294 -1331 
L -159 -1331 
L -63 -850 
L 269 -850 
Q 509 -850 678 -719 
Q 847 -588 1056 -206 
L 1234 128 
L 459 3500 
L 1069 3500 
L 1650 819 
L 3256 3500 
L 3859 3500 
L 1588 -325 
z
" transform="scale(0.015625)"/>
       <path id="DejaVuSans-29" d="M 513 4856 
L 1013 4856 
Q 1481 4119 1714 3412 
Q 1947 2706 1947 2009 
Q 1947 1309 1714 600 
Q 1481 -109 1013 -844 
L 513 -844 
Q 928 -128 1133 580 
Q 1338 1288 1338 2009 
Q 1338 2731 1133 3434 
Q 928 4138 513 4856 
z
" transform="scale(0.015625)"/>
      </defs>
      <use xlink:href="#DejaVuSans-2016" transform="translate(0 0.578125)"/>
      <use xlink:href="#DejaVuSans-28" transform="translate(50 0.578125)"/>
      <use xlink:href="#DejaVuSans-Oblique-78" transform="translate(89.013672 0.578125)"/>
      <use xlink:href="#DejaVuSans-2c" transform="translate(148.193359 0.578125)"/>
      <use xlink:href="#DejaVuSans-Oblique-79" transform="translate(199.462891 0.578125)"/>
      <use xlink:href="#DejaVuSans-29" transform="translate(258.642578 0.578125)"/>
      <use xlink:href="#DejaVuSans-2016" transform="translate(297.65625 0.578125)"/>
      <use xlink:href="#DejaVuSans-20" transform="translate(347.65625 0.578125)"/>
      <use xlink:href="#DejaVuSans-5b" transform="translate(379.443359 0.578125)"/>
      <use xlink:href="#DejaVuSans-6d" transform="translate(418.457031 0.578125)"/>
      <use xlink:href="#DejaVuSans-5d" transform="translate(515.869141 0.578125)"/>
     </g>
    </g>
    <g id="line2d_39">
     <path d="M 2505.4184 49.366438 
L 2515.4184 49.366438 
L 2525.4184 49.366438 
" style="fill: none; stroke: #ff0000; stroke-width: 0.5; stroke-linecap: square"/>
    </g>
    <g id="text_38">
     <!-- $\alpha$ [rad] -->
     <g transform="translate(2533.4184 52.866438) scale(0.1 -0.1)">
      <defs>
       <path id="DejaVuSans-Oblique-3b1" d="M 2619 1628 
L 2622 2350 
Q 2625 3088 2069 3091 
Q 1653 3094 1394 2747 
Q 1069 2319 959 1747 
Q 825 1059 994 731 
Q 1169 397 1547 397 
Q 1966 397 2319 1063 
L 2619 1628 
z
M 2166 3578 
Q 3141 3594 3128 2584 
Q 3128 2584 3616 3500 
L 4128 3500 
L 3119 1603 
L 3109 919 
Q 3109 766 3194 638 
Q 3291 488 3391 488 
L 3669 488 
L 3575 0 
L 3228 0 
Q 2934 0 2722 263 
Q 2622 394 2619 669 
Q 2416 334 2066 50 
Q 1900 -81 1453 -78 
Q 722 -72 456 397 
Q 184 884 353 1747 
Q 534 2675 1009 3097 
Q 1544 3569 2166 3578 
z
" transform="scale(0.015625)"/>
      </defs>
      <use xlink:href="#DejaVuSans-Oblique-3b1" transform="translate(0 0.015625)"/>
      <use xlink:href="#DejaVuSans-20" transform="translate(65.917969 0.015625)"/>
      <use xlink:href="#DejaVuSans-5b" transform="translate(97.705078 0.015625)"/>
      <use xlink:href="#DejaVuSans-72" transform="translate(136.71875 0.015625)"/>
      <use xlink:href="#DejaVuSans-61" transform="translate(177.832031 0.015625)"/>
      <use xlink:href="#DejaVuSans-64" transform="translate(239.111328 0.015625)"/>
      <use xlink:href="#DejaVuSans-5d" transform="translate(302.587891 0.015625)"/>
     </g>
    </g>
   </g>
  </g>
  <g id="axes_3">
   <g id="patch_14">
    <path d="M 172.0488 1328.9584 
L 1312.344905 1328.9584 
L 1312.344905 716.184 
L 172.0488 716.184 
z
" style="fill: #ffffff"/>
   </g>
   <g id="matplotlib.axis_5">
    <g id="xtick_17">
     <g id="line2d_40">
      <g>
       <use xlink:href="#mf78fa14f81" x="172.0488" y="1328.9584" style="stroke: #000000; stroke-width: 0.8"/>
      </g>
     </g>
     <g id="text_39">
      <!-- 0 -->
      <g transform="translate(168.86755 1343.556838) scale(0.1 -0.1)">
       <use xlink:href="#DejaVuSans-30"/>
      </g>
     </g>
    </g>
    <g id="xtick_18">
     <g id="line2d_41">
      <g>
       <use xlink:href="#mf78fa14f81" x="362.098151" y="1328.9584" style="stroke: #000000; stroke-width: 0.8"/>
      </g>
     </g>
     <g id="text_40">
      <!-- 5 -->
      <g transform="translate(358.916901 1343.556838) scale(0.1 -0.1)">
       <use xlink:href="#DejaVuSans-35"/>
      </g>
     </g>
    </g>
    <g id="xtick_19">
     <g id="line2d_42">
      <g>
       <use xlink:href="#mf78fa14f81" x="552.147502" y="1328.9584" style="stroke: #000000; stroke-width: 0.8"/>
      </g>
     </g>
     <g id="text_41">
      <!-- 10 -->
      <g transform="translate(545.785002 1343.556838) scale(0.1 -0.1)">
       <use xlink:href="#DejaVuSans-31"/>
       <use xlink:href="#DejaVuSans-30" x="63.623047"/>
      </g>
     </g>
    </g>
    <g id="xtick_20">
     <g id="line2d_43">
      <g>
       <use xlink:href="#mf78fa14f81" x="742.196853" y="1328.9584" style="stroke: #000000; stroke-width: 0.8"/>
      </g>
     </g>
     <g id="text_42">
      <!-- 15 -->
      <g transform="translate(735.834353 1343.556838) scale(0.1 -0.1)">
       <use xlink:href="#DejaVuSans-31"/>
       <use xlink:href="#DejaVuSans-35" x="63.623047"/>
      </g>
     </g>
    </g>
    <g id="xtick_21">
     <g id="line2d_44">
      <g>
       <use xlink:href="#mf78fa14f81" x="932.246204" y="1328.9584" style="stroke: #000000; stroke-width: 0.8"/>
      </g>
     </g>
     <g id="text_43">
      <!-- 20 -->
      <g transform="translate(925.883704 1343.556838) scale(0.1 -0.1)">
       <use xlink:href="#DejaVuSans-32"/>
       <use xlink:href="#DejaVuSans-30" x="63.623047"/>
      </g>
     </g>
    </g>
    <g id="xtick_22">
     <g id="line2d_45">
      <g>
       <use xlink:href="#mf78fa14f81" x="1122.295555" y="1328.9584" style="stroke: #000000; stroke-width: 0.8"/>
      </g>
     </g>
     <g id="text_44">
      <!-- 25 -->
      <g transform="translate(1115.933055 1343.556838) scale(0.1 -0.1)">
       <use xlink:href="#DejaVuSans-32"/>
       <use xlink:href="#DejaVuSans-35" x="63.623047"/>
      </g>
     </g>
    </g>
    <g id="xtick_23">
     <g id="line2d_46">
      <g>
       <use xlink:href="#mf78fa14f81" x="1312.344905" y="1328.9584" style="stroke: #000000; stroke-width: 0.8"/>
      </g>
     </g>
     <g id="text_45">
      <!-- 30 -->
      <g transform="translate(1305.982405 1343.556838) scale(0.1 -0.1)">
       <use xlink:href="#DejaVuSans-33"/>
       <use xlink:href="#DejaVuSans-30" x="63.623047"/>
      </g>
     </g>
    </g>
    <g id="text_46">
     <!-- t [s] -->
     <g transform="translate(732.141384 1357.234963) scale(0.1 -0.1)">
      <use xlink:href="#DejaVuSans-74"/>
      <use xlink:href="#DejaVuSans-20" x="39.208984"/>
      <use xlink:href="#DejaVuSans-5b" x="70.996094"/>
      <use xlink:href="#DejaVuSans-73" x="110.009766"/>
      <use xlink:href="#DejaVuSans-5d" x="162.109375"/>
     </g>
    </g>
   </g>
   <g id="matplotlib.axis_6">
    <g id="ytick_15">
     <g id="line2d_47">
      <g>
       <use xlink:href="#mf367998faf" x="172.0488" y="1328.9584" style="stroke: #000000; stroke-width: 0.8"/>
      </g>
     </g>
     <g id="text_47">
      <!-- $\mathdefault{0}$ -->
      <g transform="translate(158.6488 1332.757619) scale(0.1 -0.1)">
       <use xlink:href="#DejaVuSans-30" transform="translate(0 0.78125)"/>
      </g>
     </g>
    </g>
    <g id="ytick_16">
     <g id="line2d_48">
      <g>
       <use xlink:href="#mf367998faf" x="172.0488" y="1258.18408" style="stroke: #000000; stroke-width: 0.8"/>
      </g>
     </g>
     <g id="text_48">
      <!-- $\mathdefault{10^{0}}$ -->
      <g transform="translate(147.4488 1261.983298) scale(0.1 -0.1)">
       <use xlink:href="#DejaVuSans-31" transform="translate(0 0.765625)"/>
       <use xlink:href="#DejaVuSans-30" transform="translate(63.623047 0.765625)"/>
       <use xlink:href="#DejaVuSans-30" transform="translate(128.203125 39.046875) scale(0.7)"/>
      </g>
     </g>
    </g>
    <g id="ytick_17">
     <g id="line2d_49">
      <g>
       <use xlink:href="#mf367998faf" x="172.0488" y="1098.36533" style="stroke: #000000; stroke-width: 0.8"/>
      </g>
     </g>
     <g id="text_49">
      <!-- $\mathdefault{10^{1}}$ -->
      <g transform="translate(147.4488 1102.164549) scale(0.1 -0.1)">
       <use xlink:href="#DejaVuSans-31" transform="translate(0 0.684375)"/>
       <use xlink:href="#DejaVuSans-30" transform="translate(63.623047 0.684375)"/>
       <use xlink:href="#DejaVuSans-31" transform="translate(128.203125 38.965625) scale(0.7)"/>
      </g>
     </g>
    </g>
    <g id="ytick_18">
     <g id="line2d_50">
      <g>
       <use xlink:href="#mf367998faf" x="172.0488" y="970.971554" style="stroke: #000000; stroke-width: 0.8"/>
      </g>
     </g>
     <g id="text_50">
      <!-- $\mathdefault{10^{2}}$ -->
      <g transform="translate(147.4488 974.770772) scale(0.1 -0.1)">
       <use xlink:href="#DejaVuSans-31" transform="translate(0 0.765625)"/>
       <use xlink:href="#DejaVuSans-30" transform="translate(63.623047 0.765625)"/>
       <use xlink:href="#DejaVuSans-32" transform="translate(128.203125 39.046875) scale(0.7)"/>
      </g>
     </g>
    </g>
    <g id="ytick_19">
     <g id="line2d_51">
      <g>
       <use xlink:href="#mf367998faf" x="172.0488" y="843.577777" style="stroke: #000000; stroke-width: 0.8"/>
      </g>
     </g>
     <g id="text_51">
      <!-- $\mathdefault{10^{3}}$ -->
      <g transform="translate(147.4488 847.376996) scale(0.1 -0.1)">
       <use xlink:href="#DejaVuSans-31" transform="translate(0 0.765625)"/>
       <use xlink:href="#DejaVuSans-30" transform="translate(63.623047 0.765625)"/>
       <use xlink:href="#DejaVuSans-33" transform="translate(128.203125 39.046875) scale(0.7)"/>
      </g>
     </g>
    </g>
    <g id="ytick_20">
     <g id="line2d_52">
      <g>
       <use xlink:href="#mf367998faf" x="172.0488" y="716.184" style="stroke: #000000; stroke-width: 0.8"/>
      </g>
     </g>
     <g id="text_52">
      <!-- $\mathdefault{10^{4}}$ -->
      <g transform="translate(147.4488 719.983219) scale(0.1 -0.1)">
       <use xlink:href="#DejaVuSans-31" transform="translate(0 0.684375)"/>
       <use xlink:href="#DejaVuSans-30" transform="translate(63.623047 0.684375)"/>
       <use xlink:href="#DejaVuSans-34" transform="translate(128.203125 38.965625) scale(0.7)"/>
      </g>
     </g>
    </g>
   </g>
   <g id="line2d_53">
    <path d="M 172.0488 1258.18408 
L 786.147402 1258.18408 
L 786.147402 1258.18408 
" clip-path="url(#p37331ac631)" style="fill: none; stroke: #ff0000; stroke-width: 0.5; stroke-linecap: square"/>
   </g>
   <g id="line2d_54">
    <path d="M 172.0488 1328.9584 
L 172.090611 1314.803536 
L 172.287998 1307.726104 
L 204.596388 1187.409759 
L 208.397375 1182.136589 
L 212.198362 1177.322561 
L 215.999349 1172.894085 
L 219.800336 1168.793957 
L 223.601323 1164.976829 
L 227.40231 1161.406144 
L 231.203297 1158.052001 
L 236.904778 1153.373744 
L 242.606258 1149.060411 
L 248.307739 1145.059168 
L 254.009219 1141.327884 
L 259.7107 1137.832422 
L 265.41218 1134.544737 
L 273.014154 1130.444609 
L 280.616128 1126.62748 
L 288.218102 1123.056796 
L 295.820076 1119.702653 
L 305.322544 1115.777147 
L 314.825012 1112.111806 
L 324.327479 1108.674278 
L 335.73044 1104.812729 
L 347.133401 1101.203204 
L 358.536362 1097.814814 
L 371.839817 1094.107352 
L 385.143271 1090.632803 
L 400.347219 1086.911979 
L 415.551168 1083.425697 
L 432.655609 1079.749528 
L 449.760051 1076.302478 
L 468.764986 1072.70859 
L 487.769921 1069.333982 
L 508.675349 1065.845202 
L 531.481272 1062.274517 
L 556.187687 1058.649829 
L 580.894103 1055.248079 
L 607.501012 1051.804436 
L 636.008415 1048.338182 
L 666.416311 1044.865582 
L 698.7247 1041.40018 
L 732.933584 1037.953129 
L 769.04296 1034.533499 
L 786.147402 1032.984602 
L 786.147402 1032.984602 
" clip-path="url(#p37331ac631)" style="fill: none; stroke: #008000; stroke-width: 0.5; stroke-linecap: square"/>
   </g>
   <g id="patch_15">
    <path d="M 172.0488 1328.9584 
L 172.0488 716.184 
" style="fill: none; stroke: #000000; stroke-width: 0.8; stroke-linejoin: miter; stroke-linecap: square"/>
   </g>
   <g id="patch_16">
    <path d="M 1312.344905 1328.9584 
L 1312.344905 716.184 
" style="fill: none; stroke: #000000; stroke-width: 0.8; stroke-linejoin: miter; stroke-linecap: square"/>
   </g>
   <g id="patch_17">
    <path d="M 172.0488 1328.9584 
L 1312.344905 1328.9584 
" style="fill: none; stroke: #000000; stroke-width: 0.8; stroke-linejoin: miter; stroke-linecap: square"/>
   </g>
   <g id="patch_18">
    <path d="M 172.0488 716.184 
L 1312.344905 716.184 
" style="fill: none; stroke: #000000; stroke-width: 0.8; stroke-linejoin: miter; stroke-linecap: square"/>
   </g>
   <g id="legend_2">
    <g id="patch_19">
     <path d="M 1207.244905 757.762125 
L 1305.344905 757.762125 
Q 1307.344905 757.762125 1307.344905 755.762125 
L 1307.344905 723.184 
Q 1307.344905 721.184 1305.344905 721.184 
L 1207.244905 721.184 
Q 1205.244905 721.184 1205.244905 723.184 
L 1205.244905 755.762125 
Q 1205.244905 757.762125 1207.244905 757.762125 
z
" style="fill: #ffffff; opacity: 0.8; stroke: #cccccc; stroke-linejoin: miter"/>
    </g>
    <g id="line2d_55">
     <path d="M 1209.244905 729.282438 
L 1219.244905 729.282438 
L 1229.244905 729.282438 
" style="fill: none; stroke: #ff0000; stroke-width: 0.5; stroke-linecap: square"/>
    </g>
    <g id="text_53">
     <!-- Run. obj. -->
     <g transform="translate(1237.244905 732.782438) scale(0.1 -0.1)">
      <defs>
       <path id="DejaVuSans-52" d="M 2841 2188 
Q 3044 2119 3236 1894 
Q 3428 1669 3622 1275 
L 4263 0 
L 3584 0 
L 2988 1197 
Q 2756 1666 2539 1819 
Q 2322 1972 1947 1972 
L 1259 1972 
L 1259 0 
L 628 0 
L 628 4666 
L 2053 4666 
Q 2853 4666 3247 4331 
Q 3641 3997 3641 3322 
Q 3641 2881 3436 2590 
Q 3231 2300 2841 2188 
z
M 1259 4147 
L 1259 2491 
L 2053 2491 
Q 2509 2491 2742 2702 
Q 2975 2913 2975 3322 
Q 2975 3731 2742 3939 
Q 2509 4147 2053 4147 
L 1259 4147 
z
" transform="scale(0.015625)"/>
       <path id="DejaVuSans-6e" d="M 3513 2113 
L 3513 0 
L 2938 0 
L 2938 2094 
Q 2938 2591 2744 2837 
Q 2550 3084 2163 3084 
Q 1697 3084 1428 2787 
Q 1159 2491 1159 1978 
L 1159 0 
L 581 0 
L 581 3500 
L 1159 3500 
L 1159 2956 
Q 1366 3272 1645 3428 
Q 1925 3584 2291 3584 
Q 2894 3584 3203 3211 
Q 3513 2838 3513 2113 
z
" transform="scale(0.015625)"/>
       <path id="DejaVuSans-62" d="M 3116 1747 
Q 3116 2381 2855 2742 
Q 2594 3103 2138 3103 
Q 1681 3103 1420 2742 
Q 1159 2381 1159 1747 
Q 1159 1113 1420 752 
Q 1681 391 2138 391 
Q 2594 391 2855 752 
Q 3116 1113 3116 1747 
z
M 1159 2969 
Q 1341 3281 1617 3432 
Q 1894 3584 2278 3584 
Q 2916 3584 3314 3078 
Q 3713 2572 3713 1747 
Q 3713 922 3314 415 
Q 2916 -91 2278 -91 
Q 1894 -91 1617 61 
Q 1341 213 1159 525 
L 1159 0 
L 581 0 
L 581 4863 
L 1159 4863 
L 1159 2969 
z
" transform="scale(0.015625)"/>
       <path id="DejaVuSans-6a" d="M 603 3500 
L 1178 3500 
L 1178 -63 
Q 1178 -731 923 -1031 
Q 669 -1331 103 -1331 
L -116 -1331 
L -116 -844 
L 38 -844 
Q 366 -844 484 -692 
Q 603 -541 603 -63 
L 603 3500 
z
M 603 4863 
L 1178 4863 
L 1178 4134 
L 603 4134 
L 603 4863 
z
" transform="scale(0.015625)"/>
      </defs>
      <use xlink:href="#DejaVuSans-52"/>
      <use xlink:href="#DejaVuSans-75" x="64.982422"/>
      <use xlink:href="#DejaVuSans-6e" x="128.361328"/>
      <use xlink:href="#DejaVuSans-2e" x="191.740234"/>
      <use xlink:href="#DejaVuSans-20" x="223.527344"/>
      <use xlink:href="#DejaVuSans-6f" x="255.314453"/>
      <use xlink:href="#DejaVuSans-62" x="316.496094"/>
      <use xlink:href="#DejaVuSans-6a" x="379.972656"/>
      <use xlink:href="#DejaVuSans-2e" x="407.755859"/>
     </g>
    </g>
    <g id="line2d_56">
     <path d="M 1209.244905 747.162125 
L 1219.244905 747.162125 
L 1229.244905 747.162125 
" style="fill: none; stroke: #008000; stroke-width: 0.5; stroke-linecap: square"/>
    </g>
    <g id="text_54">
     <!-- $\int \mathrm{Run.\,obj.} \,\mathrm{d}t$ -->
     <g transform="translate(1237.244905 750.662125) scale(0.1 -0.1)">
      <defs>
       <path id="DejaVuSansDisplay-222b" d="M 2134 5525 
Q 2172 6263 2528 6556 
Q 2884 6850 3218 6850 
Q 3553 6850 3833 6575 
Q 4113 6300 4200 5678 
L 3544 5613 
Q 3469 6188 3219 6188 
Q 2906 6188 2869 5413 
L 2581 -597 
Q 2547 -1334 2187 -1628 
Q 1828 -1922 1497 -1922 
Q 1163 -1922 883 -1647 
Q 603 -1372 516 -750 
L 1172 -684 
Q 1247 -1259 1497 -1259 
Q 1809 -1259 1847 -488 
L 2134 5525 
z
" transform="scale(0.015625)"/>
       <path id="DejaVuSans-Oblique-74" d="M 2706 3500 
L 2619 3053 
L 1472 3053 
L 1100 1153 
Q 1081 1047 1072 975 
Q 1063 903 1063 863 
Q 1063 663 1183 572 
Q 1303 481 1569 481 
L 2150 481 
L 2053 0 
L 1503 0 
Q 991 0 739 200 
Q 488 400 488 806 
Q 488 878 497 964 
Q 506 1050 525 1153 
L 897 3053 
L 409 3053 
L 500 3500 
L 978 3500 
L 1172 4494 
L 1747 4494 
L 1556 3500 
L 2706 3500 
z
" transform="scale(0.015625)"/>
      </defs>
      <use xlink:href="#DejaVuSansDisplay-222b" transform="translate(0 0.96875)"/>
      <use xlink:href="#DejaVuSans-52" transform="translate(73.632812 0.96875)"/>
      <use xlink:href="#DejaVuSans-75" transform="translate(143.115234 0.96875)"/>
      <use xlink:href="#DejaVuSans-6e" transform="translate(206.494141 0.96875)"/>
      <use xlink:href="#DejaVuSans-2e" transform="translate(269.873047 0.96875)"/>
      <use xlink:href="#DejaVuSans-6f" transform="translate(337.378254 0.96875)"/>
      <use xlink:href="#DejaVuSans-62" transform="translate(398.559895 0.96875)"/>
      <use xlink:href="#DejaVuSans-6a" transform="translate(462.036458 0.96875)"/>
      <use xlink:href="#DejaVuSans-2e" transform="translate(489.819661 0.96875)"/>
      <use xlink:href="#DejaVuSans-64" transform="translate(557.324868 0.96875)"/>
      <use xlink:href="#DejaVuSans-Oblique-74" transform="translate(620.801431 0.96875)"/>
     </g>
    </g>
   </g>
  </g>
  <g id="axes_4">
   <g id="patch_20">
    <path d="M 1457.622295 1328.9584 
L 2597.9184 1328.9584 
L 2597.9184 716.184 
L 1457.622295 716.184 
z
" style="fill: #ffffff"/>
   </g>
   <g id="matplotlib.axis_7">
    <g id="xtick_24">
     <g id="line2d_57">
      <g>
       <use xlink:href="#mf78fa14f81" x="1457.622295" y="1328.9584" style="stroke: #000000; stroke-width: 0.8"/>
      </g>
     </g>
     <g id="text_55">
      <!-- 0 -->
      <g transform="translate(1454.441045 1343.556838) scale(0.1 -0.1)">
       <use xlink:href="#DejaVuSans-30"/>
      </g>
     </g>
    </g>
    <g id="xtick_25">
     <g id="line2d_58">
      <g>
       <use xlink:href="#mf78fa14f81" x="1647.671645" y="1328.9584" style="stroke: #000000; stroke-width: 0.8"/>
      </g>
     </g>
     <g id="text_56">
      <!-- 5 -->
      <g transform="translate(1644.490395 1343.556838) scale(0.1 -0.1)">
       <use xlink:href="#DejaVuSans-35"/>
      </g>
     </g>
    </g>
    <g id="xtick_26">
     <g id="line2d_59">
      <g>
       <use xlink:href="#mf78fa14f81" x="1837.720996" y="1328.9584" style="stroke: #000000; stroke-width: 0.8"/>
      </g>
     </g>
     <g id="text_57">
      <!-- 10 -->
      <g transform="translate(1831.358496 1343.556838) scale(0.1 -0.1)">
       <use xlink:href="#DejaVuSans-31"/>
       <use xlink:href="#DejaVuSans-30" x="63.623047"/>
      </g>
     </g>
    </g>
    <g id="xtick_27">
     <g id="line2d_60">
      <g>
       <use xlink:href="#mf78fa14f81" x="2027.770347" y="1328.9584" style="stroke: #000000; stroke-width: 0.8"/>
      </g>
     </g>
     <g id="text_58">
      <!-- 15 -->
      <g transform="translate(2021.407847 1343.556838) scale(0.1 -0.1)">
       <use xlink:href="#DejaVuSans-31"/>
       <use xlink:href="#DejaVuSans-35" x="63.623047"/>
      </g>
     </g>
    </g>
    <g id="xtick_28">
     <g id="line2d_61">
      <g>
       <use xlink:href="#mf78fa14f81" x="2217.819698" y="1328.9584" style="stroke: #000000; stroke-width: 0.8"/>
      </g>
     </g>
     <g id="text_59">
      <!-- 20 -->
      <g transform="translate(2211.457198 1343.556838) scale(0.1 -0.1)">
       <use xlink:href="#DejaVuSans-32"/>
       <use xlink:href="#DejaVuSans-30" x="63.623047"/>
      </g>
     </g>
    </g>
    <g id="xtick_29">
     <g id="line2d_62">
      <g>
       <use xlink:href="#mf78fa14f81" x="2407.869049" y="1328.9584" style="stroke: #000000; stroke-width: 0.8"/>
      </g>
     </g>
     <g id="text_60">
      <!-- 25 -->
      <g transform="translate(2401.506549 1343.556838) scale(0.1 -0.1)">
       <use xlink:href="#DejaVuSans-32"/>
       <use xlink:href="#DejaVuSans-35" x="63.623047"/>
      </g>
     </g>
    </g>
    <g id="xtick_30">
     <g id="line2d_63">
      <g>
       <use xlink:href="#mf78fa14f81" x="2597.9184" y="1328.9584" style="stroke: #000000; stroke-width: 0.8"/>
      </g>
     </g>
     <g id="text_61">
      <!-- 30 -->
      <g transform="translate(2591.5559 1343.556838) scale(0.1 -0.1)">
       <use xlink:href="#DejaVuSans-33"/>
       <use xlink:href="#DejaVuSans-30" x="63.623047"/>
      </g>
     </g>
    </g>
    <g id="text_62">
     <!-- t [s] -->
     <g transform="translate(2017.714879 1357.234963) scale(0.1 -0.1)">
      <use xlink:href="#DejaVuSans-74"/>
      <use xlink:href="#DejaVuSans-20" x="39.208984"/>
      <use xlink:href="#DejaVuSans-5b" x="70.996094"/>
      <use xlink:href="#DejaVuSans-73" x="110.009766"/>
      <use xlink:href="#DejaVuSans-5d" x="162.109375"/>
     </g>
    </g>
   </g>
   <g id="matplotlib.axis_8">
    <g id="ytick_21">
     <g id="line2d_64">
      <g>
       <use xlink:href="#mf367998faf" x="1457.622295" y="1316.797064" style="stroke: #000000; stroke-width: 0.8"/>
      </g>
     </g>
     <g id="text_63">
      <!-- −3 -->
      <g transform="translate(1435.880107 1320.596283) scale(0.1 -0.1)">
       <use xlink:href="#DejaVuSans-2212"/>
       <use xlink:href="#DejaVuSans-33" x="83.789062"/>
      </g>
     </g>
    </g>
    <g id="ytick_22">
     <g id="line2d_65">
      <g>
       <use xlink:href="#mf367998faf" x="1457.622295" y="1218.721776" style="stroke: #000000; stroke-width: 0.8"/>
      </g>
     </g>
     <g id="text_64">
      <!-- −2 -->
      <g transform="translate(1435.880107 1222.520995) scale(0.1 -0.1)">
       <use xlink:href="#DejaVuSans-2212"/>
       <use xlink:href="#DejaVuSans-32" x="83.789062"/>
      </g>
     </g>
    </g>
    <g id="ytick_23">
     <g id="line2d_66">
      <g>
       <use xlink:href="#mf367998faf" x="1457.622295" y="1120.646488" style="stroke: #000000; stroke-width: 0.8"/>
      </g>
     </g>
     <g id="text_65">
      <!-- −1 -->
      <g transform="translate(1435.880107 1124.445707) scale(0.1 -0.1)">
       <use xlink:href="#DejaVuSans-2212"/>
       <use xlink:href="#DejaVuSans-31" x="83.789062"/>
      </g>
     </g>
    </g>
    <g id="ytick_24">
     <g id="line2d_67">
      <g>
       <use xlink:href="#mf367998faf" x="1457.622295" y="1022.5712" style="stroke: #000000; stroke-width: 0.8"/>
      </g>
     </g>
     <g id="text_66">
      <!-- 0 -->
      <g transform="translate(1444.259795 1026.370419) scale(0.1 -0.1)">
       <use xlink:href="#DejaVuSans-30"/>
      </g>
     </g>
    </g>
    <g id="ytick_25">
     <g id="line2d_68">
      <g>
       <use xlink:href="#mf367998faf" x="1457.622295" y="924.495912" style="stroke: #000000; stroke-width: 0.8"/>
      </g>
     </g>
     <g id="text_67">
      <!-- 1 -->
      <g transform="translate(1444.259795 928.295131) scale(0.1 -0.1)">
       <use xlink:href="#DejaVuSans-31"/>
      </g>
     </g>
    </g>
    <g id="ytick_26">
     <g id="line2d_69">
      <g>
       <use xlink:href="#mf367998faf" x="1457.622295" y="826.420624" style="stroke: #000000; stroke-width: 0.8"/>
      </g>
     </g>
     <g id="text_68">
      <!-- 2 -->
      <g transform="translate(1444.259795 830.219843) scale(0.1 -0.1)">
       <use xlink:href="#DejaVuSans-32"/>
      </g>
     </g>
    </g>
    <g id="ytick_27">
     <g id="line2d_70">
      <g>
       <use xlink:href="#mf367998faf" x="1457.622295" y="728.345336" style="stroke: #000000; stroke-width: 0.8"/>
      </g>
     </g>
     <g id="text_69">
      <!-- 3 -->
      <g transform="translate(1444.259795 732.144554) scale(0.1 -0.1)">
       <use xlink:href="#DejaVuSans-33"/>
      </g>
     </g>
    </g>
   </g>
   <g id="line2d_71">
    <path d="M 1457.622295 1022.5712 
L 2597.9184 1022.5712 
" clip-path="url(#p6b6259a1d6)" style="fill: none; stroke-dasharray: 2.775,1.2; stroke-dashoffset: 0; stroke: #000000; stroke-width: 0.75"/>
   </g>
   <g id="line2d_72">
    <path d="M 1457.622295 1022.5712 
L 1457.664105 1044.147763 
L 1459.761986 1044.147763 
L 1461.66248 944.11097 
L 2071.720896 944.11097 
L 2071.720896 944.11097 
" clip-path="url(#p6b6259a1d6)" style="fill: none; stroke: #1f77b4; stroke-width: 0.5; stroke-linecap: square"/>
   </g>
   <g id="line2d_73">
    <path d="M 1457.622295 1022.5712 
L 1457.664105 1050.424582 
L 1459.761986 1050.424582 
L 1461.66248 1263.464141 
L 1463.562973 1263.464141 
L 1465.463467 844.631338 
L 1469.264454 844.631338 
L 1471.164947 1188.281751 
L 1474.965934 1188.281751 
L 1476.866428 972.001166 
L 1478.766921 972.001166 
L 1480.667415 1004.309069 
L 1482.567909 1004.309069 
L 1484.468402 1014.42055 
L 1486.368896 1014.42055 
L 1488.269389 1006.067049 
L 1490.169883 1006.067049 
L 1492.070376 1014.250902 
L 1495.871363 1014.250902 
L 1497.771857 1023.433112 
L 1499.67235 1023.433112 
L 1501.572844 1026.653648 
L 1503.473337 1026.653648 
L 1505.373831 1028.591436 
L 1507.274324 1028.591436 
L 1509.174818 1001.530226 
L 1511.075311 1001.530226 
L 1512.975805 1008.645539 
L 1514.876298 1008.645539 
L 1516.776792 1014.319797 
L 1518.677285 1014.319797 
L 1520.577779 1018.298788 
L 1522.478272 1018.298788 
L 1524.378766 1021.034439 
L 1526.279259 1021.034439 
L 1528.179753 1022.869499 
L 1530.080246 1022.869499 
L 1531.98074 1330.683805 
L 1533.881233 1301.105018 
L 1535.781727 1301.105018 
L 1537.68222 1330.683805 
L 1539.582714 1301.105018 
L 1541.483207 1301.105018 
L 1543.383701 1012.340118 
L 1547.184688 1012.340118 
L 1549.085181 1017.987088 
L 1552.886168 1017.987088 
L 1554.786662 982.599865 
L 1558.587649 982.599865 
L 1560.488142 999.862587 
L 1564.289129 999.862587 
L 1566.189623 1010.350229 
L 1569.99061 1010.350229 
L 1571.891103 1016.202786 
L 1575.69209 1016.202786 
L 1577.592584 992.060528 
L 1581.393571 992.060528 
L 1583.294064 1005.008522 
L 1587.095052 1005.008522 
L 1588.995545 1013.074807 
L 1592.796532 1013.074807 
L 1594.697026 1017.633877 
L 1598.498013 1017.633877 
L 1600.398506 1008.412911 
L 1604.199493 1008.412911 
L 1606.099987 1014.465525 
L 1608.00048 1014.465525 
L 1609.900974 1016.984028 
L 1613.701961 1016.984028 
L 1615.602454 1019.690277 
L 1619.403441 1019.690277 
L 1621.303935 1024.841356 
L 1625.104922 1024.841356 
L 1627.005415 1024.343219 
L 1630.806402 1024.343219 
L 1632.706896 1023.874807 
L 1636.507883 1023.874807 
L 1638.408376 1023.548103 
L 1642.209363 1023.548103 
L 1644.109857 1040.96665 
L 1647.910844 1040.96665 
L 1649.811337 1034.152348 
L 1653.612324 1034.152348 
L 1655.512818 1029.576927 
L 1659.313805 1029.576927 
L 1661.214298 1026.84621 
L 1665.015285 1026.84621 
L 1666.915779 1056.272323 
L 1670.716766 1056.272323 
L 1672.617259 1043.099691 
L 1676.418246 1043.099691 
L 1678.31874 1034.702243 
L 1682.119727 1034.702243 
L 1684.02022 1029.820963 
L 1687.821207 1029.820963 
L 1689.721701 714.458595 
L 1691.622195 744.037382 
L 1693.522688 744.037382 
L 1695.423182 714.458595 
L 1697.323675 744.037382 
L 1699.224169 744.037382 
L 1701.124662 714.458595 
L 1703.025156 744.037382 
L 1704.925649 744.037382 
L 1706.826143 1031.956815 
L 1710.62713 1031.956815 
L 1712.527623 1064.484889 
L 1716.32861 1064.484889 
L 1718.229104 1046.576563 
L 1722.030091 1046.576563 
L 1723.930584 1035.815534 
L 1727.731571 1035.815534 
L 1729.632065 1029.786906 
L 1733.433052 1029.786906 
L 1735.333545 1050.516996 
L 1739.134532 1050.516996 
L 1741.035026 1038.740568 
L 1744.836013 1038.740568 
L 1746.736506 1031.371754 
L 1750.537493 1031.371754 
L 1752.437987 1027.188377 
L 1756.238974 1027.188377 
L 1758.139467 1032.789906 
L 1760.039961 1032.789906 
L 1761.940454 1029.937985 
L 1763.840948 1029.937985 
L 1765.741441 1027.692541 
L 1767.641935 1027.692541 
L 1769.542428 1026.064327 
L 1771.442922 1026.064327 
L 1773.343415 1024.892842 
L 1775.243909 1024.892842 
L 1777.144402 1024.056021 
L 1779.044896 1024.056021 
L 1780.945389 1015.725574 
L 1782.845883 1015.725574 
L 1784.746376 1017.213835 
L 1786.64687 1017.213835 
L 1788.547363 1018.523825 
L 1790.447857 1018.523825 
L 1792.34835 1019.510992 
L 1794.248844 1019.510992 
L 1796.149338 1020.252341 
L 1798.049831 1020.252341 
L 1799.950325 1020.809788 
L 1801.850818 1020.809788 
L 1803.751312 998.340108 
L 1805.651805 998.340108 
L 1807.552299 1004.362875 
L 1809.452792 1004.362875 
L 1811.353286 1009.319152 
L 1813.253779 1009.319152 
L 1815.154273 1012.953232 
L 1817.054766 1012.953232 
L 1818.95526 1015.616414 
L 1820.855753 1015.616414 
L 1822.756247 984.983768 
L 1824.65674 984.983768 
L 1826.557234 994.46212 
L 1828.457727 994.46212 
L 1830.358221 1002.037495 
L 1832.258714 1002.037495 
L 1834.159208 1007.525811 
L 1836.059701 1007.525811 
L 1837.960195 1011.535966 
L 1839.860688 1011.535966 
L 1841.761182 1014.483827 
L 1843.661675 1014.483827 
L 1845.562169 1330.683805 
L 1847.462662 1301.105018 
L 1849.363156 1330.683805 
L 1851.263649 1301.105018 
L 1853.164143 1330.683805 
L 1855.064636 1301.105018 
L 1856.96513 998.401788 
L 1858.865623 998.401788 
L 1860.766117 1005.297919 
L 1862.66661 1005.297919 
L 1864.567104 1010.338453 
L 1866.467597 1010.338453 
L 1868.368091 980.824435 
L 1870.268584 980.824435 
L 1872.169078 992.218826 
L 1874.069571 992.218826 
L 1875.970065 1001.034296 
L 1877.870558 1001.034296 
L 1879.771052 1007.319112 
L 1881.671545 1007.319112 
L 1883.572039 1011.842662 
L 1885.472532 1011.842662 
L 1887.373026 1015.112175 
L 1889.273519 1015.112175 
L 1891.174013 998.05021 
L 1893.074506 998.05021 
L 1894.975 1004.645919 
L 1896.875493 1004.645919 
L 1898.775987 1009.886168 
L 1900.676481 1009.886168 
L 1902.576974 1013.684717 
L 1904.477468 1013.684717 
L 1906.377961 1016.43207 
L 1908.278455 1016.43207 
L 1910.178948 1018.413977 
L 1912.079442 1018.413977 
L 1913.979935 1016.035882 
L 1915.880429 1016.035882 
L 1917.780922 1017.976728 
L 1919.681416 1017.976728 
L 1921.581909 1019.469628 
L 1923.482403 1019.469628 
L 1925.382896 1020.54261 
L 1927.28339 1020.54261 
L 1929.183883 1021.305967 
L 1931.084377 1021.305967 
L 1932.98487 1021.843238 
L 1934.885364 1021.843238 
L 1936.785857 1033.326987 
L 1938.686351 1033.326987 
L 1940.586844 1030.900737 
L 1942.487338 1030.900737 
L 1944.387831 1028.814917 
L 1946.288325 1028.814917 
L 1948.188818 1027.252041 
L 1950.089312 1027.252041 
L 1951.989805 1026.084461 
L 1953.890299 1026.084461 
L 1955.790792 1025.21137 
L 1957.691286 1025.21137 
L 1959.591779 1050.13673 
L 1961.492273 1050.13673 
L 1963.392766 1043.33597 
L 1965.29326 1043.33597 
L 1967.193753 1037.758962 
L 1969.094247 1037.758962 
L 1970.99474 1033.672357 
L 1972.895234 1033.672357 
L 1974.795727 1030.672956 
L 1976.696221 1030.672956 
L 1978.596714 1028.466604 
L 1980.497208 1028.466604 
L 1982.397701 1064.678101 
L 1984.298195 1064.678101 
L 1986.198688 1053.596901 
L 1988.099182 1053.596901 
L 1989.999675 1044.863495 
L 1991.900169 1044.863495 
L 1993.800662 1038.613328 
L 1995.701156 1038.613328 
L 1997.601649 1034.092028 
L 1999.502143 1034.092028 
L 2001.402636 714.458595 
L 2003.30313 744.037382 
L 2005.203624 714.458595 
L 2007.104117 744.037382 
L 2009.004611 1055.109582 
L 2010.905104 1055.109582 
L 2012.805598 1046.002365 
L 2014.706091 1046.002365 
L 2016.606585 1039.223518 
L 2018.507078 1039.223518 
L 2020.407572 1034.342639 
L 2022.308065 1034.342639 
L 2024.208559 1059.879751 
L 2026.109052 1059.879751 
L 2028.009546 1049.876159 
L 2029.910039 1049.876159 
L 2031.810533 1042.061159 
L 2033.711026 1042.061159 
L 2035.61152 1036.447668 
L 2037.512013 1036.447668 
L 2039.412507 1032.389399 
L 2041.313 1032.389399 
L 2043.213494 1029.446826 
L 2045.113987 1029.446826 
L 2047.014481 1042.231867 
L 2048.914974 1042.231867 
L 2050.815468 1037.034913 
L 2052.715961 1037.034913 
L 2054.616455 1032.889483 
L 2056.516948 1032.889483 
L 2058.417442 1029.866877 
L 2060.317935 1029.866877 
L 2062.218429 1027.670384 
L 2066.019416 1027.670384 
L 2067.919909 1025.239532 
L 2069.820403 1025.239532 
L 2071.720896 1024.310417 
L 2071.720896 1024.310417 
" clip-path="url(#p6b6259a1d6)" style="fill: none; stroke: #ff7f0e; stroke-width: 0.5; stroke-linecap: square"/>
   </g>
   <g id="patch_21">
    <path d="M 1457.622295 1328.9584 
L 1457.622295 716.184 
" style="fill: none; stroke: #000000; stroke-width: 0.8; stroke-linejoin: miter; stroke-linecap: square"/>
   </g>
   <g id="patch_22">
    <path d="M 2597.9184 1328.9584 
L 2597.9184 716.184 
" style="fill: none; stroke: #000000; stroke-width: 0.8; stroke-linejoin: miter; stroke-linecap: square"/>
   </g>
   <g id="patch_23">
    <path d="M 1457.622295 1328.9584 
L 2597.9184 1328.9584 
" style="fill: none; stroke: #000000; stroke-width: 0.8; stroke-linejoin: miter; stroke-linecap: square"/>
   </g>
   <g id="patch_24">
    <path d="M 1457.622295 716.184 
L 2597.9184 716.184 
" style="fill: none; stroke: #000000; stroke-width: 0.8; stroke-linejoin: miter; stroke-linecap: square"/>
   </g>
   <g id="legend_3">
    <g id="patch_25">
     <path d="M 2514.3184 753.54025 
L 2590.9184 753.54025 
Q 2592.9184 753.54025 2592.9184 751.54025 
L 2592.9184 723.184 
Q 2592.9184 721.184 2590.9184 721.184 
L 2514.3184 721.184 
Q 2512.3184 721.184 2512.3184 723.184 
L 2512.3184 751.54025 
Q 2512.3184 753.54025 2514.3184 753.54025 
z
" style="fill: #ffffff; opacity: 0.8; stroke: #cccccc; stroke-linejoin: miter"/>
    </g>
    <g id="line2d_74">
     <path d="M 2516.3184 729.282438 
L 2526.3184 729.282438 
L 2536.3184 729.282438 
" style="fill: none; stroke: #1f77b4; stroke-width: 0.5; stroke-linecap: square"/>
    </g>
    <g id="text_70">
     <!-- v [m/s] -->
     <g transform="translate(2544.3184 732.782438) scale(0.1 -0.1)">
      <defs>
       <path id="DejaVuSans-76" d="M 191 3500 
L 800 3500 
L 1894 563 
L 2988 3500 
L 3597 3500 
L 2284 0 
L 1503 0 
L 191 3500 
z
" transform="scale(0.015625)"/>
       <path id="DejaVuSans-2f" d="M 1625 4666 
L 2156 4666 
L 531 -594 
L 0 -594 
L 1625 4666 
z
" transform="scale(0.015625)"/>
      </defs>
      <use xlink:href="#DejaVuSans-76"/>
      <use xlink:href="#DejaVuSans-20" x="59.179688"/>
      <use xlink:href="#DejaVuSans-5b" x="90.966797"/>
      <use xlink:href="#DejaVuSans-6d" x="129.980469"/>
      <use xlink:href="#DejaVuSans-2f" x="227.392578"/>
      <use xlink:href="#DejaVuSans-73" x="261.083984"/>
      <use xlink:href="#DejaVuSans-5d" x="313.183594"/>
     </g>
    </g>
    <g id="line2d_75">
     <path d="M 2516.3184 743.960563 
L 2526.3184 743.960563 
L 2536.3184 743.960563 
" style="fill: none; stroke: #ff7f0e; stroke-width: 0.5; stroke-linecap: square"/>
    </g>
    <g id="text_71">
     <!-- $\omega$ [rad/s] -->
     <g transform="translate(2544.3184 747.460563) scale(0.1 -0.1)">
      <defs>
       <path id="DejaVuSans-Oblique-3c9" d="M 1369 -91 
Q 72 -91 434 1766 
Q 575 2500 1256 3500 
L 1875 3500 
Q 1231 2500 1088 1750 
Q 819 397 1519 397 
Q 2166 397 2478 2078 
L 3009 2078 
Q 2669 388 3316 397 
Q 4013 403 4275 1750 
Q 4419 2500 4169 3500 
L 4788 3500 
Q 5075 2500 4934 1766 
Q 4578 -94 3278 -91 
Q 2428 -88 2503 844 
Q 2194 -91 1369 -91 
z
" transform="scale(0.015625)"/>
      </defs>
      <use xlink:href="#DejaVuSans-Oblique-3c9" transform="translate(0 0.015625)"/>
      <use xlink:href="#DejaVuSans-20" transform="translate(83.740234 0.015625)"/>
      <use xlink:href="#DejaVuSans-5b" transform="translate(115.527344 0.015625)"/>
      <use xlink:href="#DejaVuSans-72" transform="translate(154.541016 0.015625)"/>
      <use xlink:href="#DejaVuSans-61" transform="translate(195.654297 0.015625)"/>
      <use xlink:href="#DejaVuSans-64" transform="translate(256.933594 0.015625)"/>
      <use xlink:href="#DejaVuSans-2f" transform="translate(320.410156 0.015625)"/>
      <use xlink:href="#DejaVuSans-73" transform="translate(354.101562 0.015625)"/>
      <use xlink:href="#DejaVuSans-5d" transform="translate(406.201172 0.015625)"/>
     </g>
    </g>
   </g>
  </g>
  <g id="text_72">
   <!-- $\int \mathrm{Run.\,obj.} \,\mathrm{d}t$ = 32.6 -->
   <g transform="translate(133.056 709.45) scale(0.1 -0.1)">
    <use xlink:href="#DejaVuSansDisplay-222b" transform="translate(0 0.96875)"/>
    <use xlink:href="#DejaVuSans-52" transform="translate(73.632812 0.96875)"/>
    <use xlink:href="#DejaVuSans-75" transform="translate(143.115234 0.96875)"/>
    <use xlink:href="#DejaVuSans-6e" transform="translate(206.494141 0.96875)"/>
    <use xlink:href="#DejaVuSans-2e" transform="translate(269.873047 0.96875)"/>
    <use xlink:href="#DejaVuSans-6f" transform="translate(337.378254 0.96875)"/>
    <use xlink:href="#DejaVuSans-62" transform="translate(398.559895 0.96875)"/>
    <use xlink:href="#DejaVuSans-6a" transform="translate(462.036458 0.96875)"/>
    <use xlink:href="#DejaVuSans-2e" transform="translate(489.819661 0.96875)"/>
    <use xlink:href="#DejaVuSans-64" transform="translate(557.324868 0.96875)"/>
    <use xlink:href="#DejaVuSans-Oblique-74" transform="translate(620.801431 0.96875)"/>
    <use xlink:href="#DejaVuSans-20" transform="translate(660.010415 0.96875)"/>
    <use xlink:href="#DejaVuSans-3d" transform="translate(691.797524 0.96875)"/>
    <use xlink:href="#DejaVuSans-20" transform="translate(775.586587 0.96875)"/>
    <use xlink:href="#DejaVuSans-33" transform="translate(807.373696 0.96875)"/>
    <use xlink:href="#DejaVuSans-32" transform="translate(870.996743 0.96875)"/>
    <use xlink:href="#DejaVuSans-2e" transform="translate(934.61979 0.96875)"/>
    <use xlink:href="#DejaVuSans-36" transform="translate(966.406899 0.96875)"/>
   </g>
  </g>
 </g>
 <defs>
  <clipPath id="p079f7e74a2">
   <rect x="172.0488" y="167.354716" width="1140.296105" height="320.400969"/>
  </clipPath>
  <clipPath id="p2ea4e8af1f">
   <rect x="1457.622295" y="21.168" width="1140.296105" height="612.7744"/>
  </clipPath>
  <clipPath id="p37331ac631">
   <rect x="172.0488" y="716.184" width="1140.296105" height="612.7744"/>
  </clipPath>
  <clipPath id="p6b6259a1d6">
   <rect x="1457.622295" y="716.184" width="1140.296105" height="612.7744"/>
  </clipPath>
 </defs>
</svg>
